/* XPM */
static char *xpm_[] = {
/* columns rows colors chars-per-pixel */
"96 32 10 1 ",
"  c #0E071B",
". c #1A1932",
"X c #2A2F4E",
"o c #424C6E",
"O c #FF0040",
"+ c #657392",
"@ c #E3A0BC",
"# c #F9E6CF",
"$ c #FDD2ED",
"% c None",
/* pixels */
"%%%%%%%%%%%%%%%%%%%%%%%%%%%%%%%%%%%%%%%%%%%%%%%%%%%%%%%%%%%%%%%%%%%%%%%%%%%%%%%%%%%%%%%%%%%%%%%%",
"%%%%%%%%%%%%%%%%%%%%%%%%%%%%%%%%%%%%%%%%%%%%%%%%%%%%%%%%%%%%%%%%%%%%%%%%%%%%%%%%%%%%%%%%%%%%%%%%",
"%%%%%%%%%%%%%%%%%%%%%%%%%%%%%%%%%%%%%%%%%%%%%%%%%%%%%%%%%%%%%%%%%%%%%%%%%%%%%%%%%%%%%%%%%%%%%%%%",
"%%%%%%%%%%%%%%%%%%%%%%%%%%%%%%%%%%%%%%%%%%%%%%%%%%%%%%%%%%%%%%%%%%%%%%%%%%%%%%%%%%%%%%%%%%%%%%%%",
"%%%%%%%%%%%%%%%%%%%%%%%%%%%%%%%%%%%%%%%%%%%%%%%%%%%%%%%%%%%%%%%%%%%%%%%%%%%%%%%%%%%%%%%%%%%%%%%%",
"%%%%%%%%%%%%%%%%%%%%%%%%%%%%%%%%%%%%%%%%%%%%%%%%%%%%%%%%%%%%%%%%%%%%%%%%%%%%%%%%%%%%%%%%%%%%%%%%",
"%%%%%%%%%%% %%%%%% %%%%%%%%%%%%%%%%%%%%%%%%%%%%%%%%%%%%%%%%%%%%%%%%%%%%%%%%%%%%%%%%%%%%%%%%%%%%%",
"%%%%%%%%%% . %%%% X  %%%%%%%%%%%%%%%%%%%%%%%%%%%%%%%%%%%%%%%%%%%%%%%%%%%%%%%%%%%%%%%%%%%%%%%%%%%",
"%%%%%%%%% . %%%%%% X+ %%%%%%%%%%%%%%%%  %%%%%%%%%%   %%%%%%%%%%%%%%%%%  %%%%%%%%%%   %%%%%%%%%%%",
"%%%%%%   . %%%%%%%   + %%%%%%%%%%%%%% .. %%%%%%%% XXX %%%%%%%%%%%%%%% ..  %%%%%%  XXX %%%%%%%%%%",
"%%%%% .. . %%%%%% XXX   %%%%%%%%%%%%%% @. %%%%%% X@. %%%%%%%%%%%%%%%%%% @.      X@@ %%%%%%%%%%%%",
"%%%%%% @. %%%%%% X@. Xo+ %%%%%%%%%%%%%% @.      X@$ %%%%%%%%%%%%%%%%%%% @ XXXXXX@@$ %%%%%%%%%%%%",
"%%%%%%  @.      X@$  Xo+ %%%%%%%%%%%%%% @ XXXXXX@@$ %%%%%%%%%%%%%%%%%%%% XXXXXX.@$$ %%%%%%%%%%%%",
"%%%%%%  @ XXXXXX@@$  Xo+ %%%%%%%%%%%%%%% XXXXXX.@$$ %%%%%%%%%%%%%%%%%%%% #XX##X.@$$ %%%%%%%%%%%%",
"%%%%%% o XXXXXX.@$$  Xo+ %%%%%%%%%%%%%%% #XX##X.@$$ %%%%%%%%%%%%%%%%%%%% OXXO#X.$$  %%%%%%%%%%%%",
"%%%%%% o #XX##X.@$$  Xo+ %%%%%%%%%%%%%%% OXXO#X.$$ %%%%%%%%%%%%%%%%%%%%% XXXXXX.. XX  %%%%%%%%%%",
"%%%%%% o OXXO#X.$$  Xo++ %%%%%%%%%       XXXXXX..             %%%%%%%%%%  #.#... ++XXX %%%%%%%%%",
"%%%%%%%  XXXXXX..  Xo++ %%%%%%%%% ....... #.#... ...XXXXXXXXXX %%%%%%%% .o      .  +XXX %%%%%%%%",
"%%%%%%%%  #.#... XXo++ %%%%%%%%%%%  oooooo      .ooooo++++++  %%%%%%%%% .o %% .   X +XX %%%%%%%%",
"%%%%%%%%%       .oo+  %%%%%%%%%%%%%%  ooooo  ...X    +++++  %%%%%%%%%%% .o %% . % . +XX %%%%%%%%",
"%%%%%%%%%%  ....X   %%%%%%%%%%%%%%%%%%     %% .   X %     %%%%%%%%%%%%% .o %%% %%%  +XX %%%%%%%%",
"%%%%%%%%%%%% XXXX.X %%%%%%%%%%%%%%%%%%%%%%%%% . % . %%%%%%%%%%%%%%%%%%% .o %%%%%%%% +XX %%%%%%%%",
"%%%%%%%%%%%%% .   X %%%%%%%%%%%%%%%%%%%%%%%%%% %%% %%%%%%%%%%%%%%%%%%%%% o %%%%%%%% +X %%%%%%%%%",
"%%%%%%%%%%%%% . % . %%%%%%%%%%%%%%%%%%%%%%%%%%%%%%%%%%%%%%%%%%%%%%%%%%%% .o %%%%%% +XX %%%%%%%%%",
"%%%%%%%%%%%%%% %%% %%%%%%%%%%%%%%%%%%%%%%%%%%%%%%%%%%%%%%%%%%%%%%%%%%%%% .o %%%%%% +X %%%%%%%%%%",
"%%%%%%%%%%%%%%%%%%%%%%%%%%%%%%%%%%%%%%%%%%%%%%%%%%%%%%%%%%%%%%%%%%%%%%%%% .o %%%% XX %%%%%%%%%%%",
"%%%%%%%%%%%%%%%%%%%%%%%%%%%%%%%%%%%%%%%%%%%%%%%%%%%%%%%%%%%%%%%%%%%%%%%%%%  %%%%%%  %%%%%%%%%%%%",
"%%%%%%%%%%%%%%%%%%%%%%%%%%%%%%%%%%%%%%%%%%%%%%%%%%%%%%%%%%%%%%%%%%%%%%%%%%%%%%%%%%%%%%%%%%%%%%%%",
"%%%%%%%%%%%%%%%%%%%%%%%%%%%%%%%%%%%%%%%%%%%%%%%%%%%%%%%%%%%%%%%%%%%%%%%%%%%%%%%%%%%%%%%%%%%%%%%%",
"%%%%%%%%%%%%%%%%%%%%%%%%%%%%%%%%%%%%%%%%%%%%%%%%%%%%%%%%%%%%%%%%%%%%%%%%%%%%%%%%%%%%%%%%%%%%%%%%",
"%%%%%%%%%%%%%%%%%%%%%%%%%%%%%%%%%%%%%%%%%%%%%%%%%%%%%%%%%%%%%%%%%%%%%%%%%%%%%%%%%%%%%%%%%%%%%%%%",
"%%%%%%%%%%%%%%%%%%%%%%%%%%%%%%%%%%%%%%%%%%%%%%%%%%%%%%%%%%%%%%%%%%%%%%%%%%%%%%%%%%%%%%%%%%%%%%%%"
};
