/* XPM */
static char *xpm_[] = {
/* columns rows colors chars-per-pixel */
"96 32 10 1 ",
"  c #0E071B",
". c #1A1932",
"X c #2A2F4E",
"o c #424C6E",
"O c #FF0040",
"+ c #657392",
"@ c #E3A0BC",
"# c #F9E6CF",
"$ c #FDD2ED",
"% c None",
/* pixels */
"%%%%%%%%%%%%%%%%%%%%%%%%%%%%%%%%%%%%%%%%%%%%%%%%%%%%%%%%%%%%%%%%%%%%%%%%%%%%%%%%%%%%%%%%%%%%%%%%",
"%%%%%%%%%%%%%%%%%%%%%%%%%%%%%%%%%%%%%%%%%%%%%%%%%%%%%%%%%%%%%%%%%%%%%%%%%%%%%%%%%%%%%%%%%%%%%%%%",
"%%%%%%%%%%%%%%%%%%%%%%%%%%%%%%%%%%%%%%%%%%%%%%%%%%%%%%%%%%%%%%%%%%%%%%%%%%%%%%%%%%%%%%%%%%%%%%%%",
"%%%%%%%%%%%%%%%%%%%%%%%%%%%%%%%%%%%%%%%%%%%%%%%%%%%%%%%%%%%%%%%%%%%%%%%%%%%%%%%%%%%%%%%%%%%%%%%%",
"%%%%%%%%%%%%%%%%%%%%%%%%%%%%%%%%%%%%%%%%%%%%%%%%%%%%%%%%%%%%%%%%%%%%%%%%%%%%%%%%%%%%%%%%%%%%%%%%",
"%%%%%%%%%%%%%%%%%%%%%%%%%%%%%%%%%%%%%%%%%%%%%%%%%%%%%%%%%%%%%%%%%%%%%%%%%%%%%%%%%%%%%%%%%%%%%%%%",
"%%%%%%%%%%%%% %%%%%% %%%%%%%%%%%%%%%%%%%%%%%%%%%%%%%%%%%%%%%%%%%%%%%%%%%%%%%%%%%%%%%%%%%%%%%%%%%",
"%%%%%%%%%%%  X %%%% . %%%%%%%%%%%%%%%%%%%%%%%%%%%%%%%%%%%%%%%%%%%%%%%%%%%%%%%%%%%%%%%%%%%%%%%%%%",
"%%%%%%%%%% +X %%%%%% . %%%%%%%%%%%%%%%%%%%%   %%%%%%%%%%  %%%%%%%%%%%%%%%%%   %%%%%%%%%%  %%%%%%",
"%%%%%%%%% +   %%%%%%% .   %%%%%%%%%%%%%%%% XXX %%%%%%%% .. %%%%%%%%%%%%%%% XXX  %%%%%%  .. %%%%%",
"%%%%%%%%   XXX %%%%%% . .. %%%%%%%%%%%%%%%% .@X %%%%%% .@ %%%%%%%%%%%%%%%%%% @@X      .@ %%%%%%%",
"%%%%%%% +oX .@X %%%%%% .@ %%%%%%%%%%%%%%%%%% $@X      .@ %%%%%%%%%%%%%%%%%%% $@@XXXXXX @ %%%%%%%",
"%%%%%%% +oX  $@X      .@  %%%%%%%%%%%%%%%%%% $@@XXXXXX @ %%%%%%%%%%%%%%%%%%% $$@.XXXXXX %%%%%%%%",
"%%%%%%% +oX  $@@XXXXXX @  %%%%%%%%%%%%%%%%%% $$@.XXXXXX %%%%%%%%%%%%%%%%%%%% $$@.X##XX# %%%%%%%%",
"%%%%%%% +oX  $$@.XXXXXX o %%%%%%%%%%%%%%%%%% $$@.X##XX# %%%%%%%%%%%%%%%%%%%%  $$.X#OXXO %%%%%%%%",
"%%%%%%% +oX  $$@.X##XX# o %%%%%%%%%%%%%%%%%%% $$.X#OXXO %%%%%%%%%%%%%%%%%%  XX ..XXXXXX %%%%%%%%",
"%%%%%%% ++oX  $$.X#OXXO o %%%%%%%%             ..XXXXXX       %%%%%%%%%%% XXX++ ...#.#  %%%%%%%%",
"%%%%%%%% ++oX  ..XXXXXX  %%%%%%%% XXXXXXXXXX... ...#.# ....... %%%%%%%%% XXX+  X      o. %%%%%%%",
"%%%%%%%%% ++oXX ...#.#  %%%%%%%%%%  ++++++ooooo.      oooooo  %%%%%%%%%% XX+ X   . %% o. %%%%%%%",
"%%%%%%%%%%  +oo.       %%%%%%%%%%%%%  +++++    X...  ooooo  %%%%%%%%%%%% XX+ . % . %% o. %%%%%%%",
"%%%%%%%%%%%%   X....  %%%%%%%%%%%%%%%%     % X   . %%     %%%%%%%%%%%%%% XX+  %%% %%% o. %%%%%%%",
"%%%%%%%%%%%% X.XXXX %%%%%%%%%%%%%%%%%%%%%%%% . % . %%%%%%%%%%%%%%%%%%%%% XX+ %%%%%%%% o. %%%%%%%",
"%%%%%%%%%%%% X   . %%%%%%%%%%%%%%%%%%%%%%%%%% %%% %%%%%%%%%%%%%%%%%%%%%%% X+ %%%%%%%% o %%%%%%%%",
"%%%%%%%%%%%% . % . %%%%%%%%%%%%%%%%%%%%%%%%%%%%%%%%%%%%%%%%%%%%%%%%%%%%%% XX+ %%%%%% o. %%%%%%%%",
"%%%%%%%%%%%%% %%% %%%%%%%%%%%%%%%%%%%%%%%%%%%%%%%%%%%%%%%%%%%%%%%%%%%%%%%% X+ %%%%%% o. %%%%%%%%",
"%%%%%%%%%%%%%%%%%%%%%%%%%%%%%%%%%%%%%%%%%%%%%%%%%%%%%%%%%%%%%%%%%%%%%%%%%%% XX %%%% o. %%%%%%%%%",
"%%%%%%%%%%%%%%%%%%%%%%%%%%%%%%%%%%%%%%%%%%%%%%%%%%%%%%%%%%%%%%%%%%%%%%%%%%%%  %%%%%%  %%%%%%%%%%",
"%%%%%%%%%%%%%%%%%%%%%%%%%%%%%%%%%%%%%%%%%%%%%%%%%%%%%%%%%%%%%%%%%%%%%%%%%%%%%%%%%%%%%%%%%%%%%%%%",
"%%%%%%%%%%%%%%%%%%%%%%%%%%%%%%%%%%%%%%%%%%%%%%%%%%%%%%%%%%%%%%%%%%%%%%%%%%%%%%%%%%%%%%%%%%%%%%%%",
"%%%%%%%%%%%%%%%%%%%%%%%%%%%%%%%%%%%%%%%%%%%%%%%%%%%%%%%%%%%%%%%%%%%%%%%%%%%%%%%%%%%%%%%%%%%%%%%%",
"%%%%%%%%%%%%%%%%%%%%%%%%%%%%%%%%%%%%%%%%%%%%%%%%%%%%%%%%%%%%%%%%%%%%%%%%%%%%%%%%%%%%%%%%%%%%%%%%",
"%%%%%%%%%%%%%%%%%%%%%%%%%%%%%%%%%%%%%%%%%%%%%%%%%%%%%%%%%%%%%%%%%%%%%%%%%%%%%%%%%%%%%%%%%%%%%%%%"
};
