/* XPM */
static char *xpm_[] = {
/* columns rows colors chars-per-pixel */
"96 32 10 1 ",
"  c #0E071B",
". c #1A1932",
"X c #2A2F4E",
"o c #424C6E",
"O c #FF0040",
"+ c #657392",
"@ c #E3A0BC",
"# c #F9E6CF",
"$ c #FDD2ED",
"% c None",
/* pixels */
"%%%%%%%%%%%%%%%%%%%%%%%%%%%%%%%%%%%%%%%%%%%%%%%%%%%%%%%%%%%%%%%%%%%%%%%%%%%%%%%%%%%%%%%%%%%%%%%%",
"%%%%%%%%%%%%%%%%%%%%%%%%%%%%%%%%%%%%%%%%%%%%%%%%%%%%%%%%%%%%%%%%%%%%%%%%%%%%%%%%%%%%%%%%%%%%%%%%",
"%%%%%%%%%%%%%%%%%%%%%%%%%%%%%%%%%%%%%%%%%%%%%%%%%%%%%%%%%%%%%%%%%%%%%%%%%%%%%%%%%%%%%%%%%%%%%%%%",
"%%%%%%%%%%%%%%%%%%%%%%%%%%%%%%%%%%%%%%%%%%%%%%%%%%%%%%%%%%%%%%%%%%%%%%%%%%%%%%%%%%%%%%%%%%%%%%%%",
"%%%%%%%%%%%%%%%%%%%%%%%%%%%%%%%%%%%%%%%%%%%%%%%%%%%%%%%%%%%%%%%%%%%%%%%%%%%%%%%%%%%%%%%%%%%%%%%%",
"%%%%%%%%%%%%%%%%%%%%%%%%%%%%%%%%%%%%%%%%%%%%%%%%%%%%%%%%%%%%%%%%%%%%%%%%%%%%%%%%%%%%%%%%%%%%%%%%",
"%%%%%%%%%%% %%%%%%%% %%%%%%%%%%%%%%%%%%%%%%%%%%%%%%%%%%%%%%%%%%%%%%%%%%%%%%%%%%%%%%%%%%%%%%%%%%%",
"%%%%%%%%%  X %%%%%% X  %%%%%%%%%%%%%%%%%%%%%%%%%%%%%%%%%%%%%%%%%%%%%%%%%%%%%%%%%%%%%%%%%%%%%%%%%",
"%%%%%%%% +X %%%%%%%% X+ %%%%%%%%%%%%%%%%   %%%%%%%%%%   %%%%%%%%%%%%%%%%   %%%%%%%%%%   %%%%%%%%",
"%%%%%%%    %%%%%%%%%%    %%%%%%%%%%%%%% XXX %%%%%%%% XXX %%%%%%%%%%%%%% XXX  %%%%%%  XXX %%%%%%%",
"%%%%%%  XXX %%%%%%%% XXX  %%%%%%%%%%%%%% @@X %%%%%% X@@ %%%%%%%%%%%%%%%%% @X        X@ %%%%%%%%%",
"%%%%% ++ @@X %%%%%% X@@ ++ %%%%%%%%%%%%%% @X        X@ %%%%%%%%%%%%%%%%%% @@XXXXXXXX@@ %%%%%%%%%",
"%%%%% ++X @X        X@ X++ %%%%%%%%%%%%%% @@XXXXXXXX@@ %%%%%%%%%%%%%%%%%% $@.XXXXXX.@$ %%%%%%%%%",
"%%%%% ++X @@XXXXXXXX@@ X++ %%%%%%%%%%%%%% $@.XXXXXX.@$ %%%%%%%%%%%%%%%%%% $@.##XX##.@$ %%%%%%%%%",
"%%%%% ++X $@.XXXXXX.@$ X++ %%%%%%%%%%%%%% $@.##XX##.@$ %%%%%%%%%%%%%%%%%%% $.#OXXO#.$ %%%%%%%%%%",
"%%%%% ++X $@.##XX##.@$ X++ %%%%%%%%%%%%%%% $.#OXXO#.$ %%%%%%%%%%%%%%%%%%  . ..XXXX.. .  %%%%%%%%",
"%%%%% ++o. $.#OXXO#.$ .o++ %%%%%%           ..XXXX..           %%%%%%%% X..o .#..#. o..X %%%%%%%",
"%%%%%% ++o. ..XXXX.. .o++ %%%%%%% XXXXXX.... .#..#. ....XXXXXX %%%%%%% X..o          o..X %%%%%%",
"%%%%%%% ++o. .#..#. .o++ %%%%%%%%% ++++++oooo      oooo++++++ %%%%%%%% X.o % X.  .X % o.X %%%%%%",
"%%%%%%%%  +oo      oo+  %%%%%%%%%%%  +++++   ......   +++++  %%%%%%%%% X.o % . %% . % o.X %%%%%%",
"%%%%%%%%%%   ......   %%%%%%%%%%%%%%%     %% X.  .X %%     %%%%%%%%%%% XXo %% %%%% %% oXX %%%%%%",
"%%%%%%%%%%%% XXXXXX %%%%%%%%%%%%%%%%%%%%%%%% . %% . %%%%%%%%%%%%%%%%%% XX+ %%%%%%%%%% +XX %%%%%%",
"%%%%%%%%%%%% X.  .X %%%%%%%%%%%%%%%%%%%%%%%%% %%%% %%%%%%%%%%%%%%%%%%%% X+ %%%%%%%%%% +X %%%%%%%",
"%%%%%%%%%%%% . %% . %%%%%%%%%%%%%%%%%%%%%%%%%%%%%%%%%%%%%%%%%%%%%%%%%%% XX+ %%%%%%%% +XX %%%%%%%",
"%%%%%%%%%%%%% %%%% %%%%%%%%%%%%%%%%%%%%%%%%%%%%%%%%%%%%%%%%%%%%%%%%%%%%% X+ %%%%%%%% +X %%%%%%%%",
"%%%%%%%%%%%%%%%%%%%%%%%%%%%%%%%%%%%%%%%%%%%%%%%%%%%%%%%%%%%%%%%%%%%%%%%%% XX %%%%%% XX %%%%%%%%%",
"%%%%%%%%%%%%%%%%%%%%%%%%%%%%%%%%%%%%%%%%%%%%%%%%%%%%%%%%%%%%%%%%%%%%%%%%%%  %%%%%%%%  %%%%%%%%%%",
"%%%%%%%%%%%%%%%%%%%%%%%%%%%%%%%%%%%%%%%%%%%%%%%%%%%%%%%%%%%%%%%%%%%%%%%%%%%%%%%%%%%%%%%%%%%%%%%%",
"%%%%%%%%%%%%%%%%%%%%%%%%%%%%%%%%%%%%%%%%%%%%%%%%%%%%%%%%%%%%%%%%%%%%%%%%%%%%%%%%%%%%%%%%%%%%%%%%",
"%%%%%%%%%%%%%%%%%%%%%%%%%%%%%%%%%%%%%%%%%%%%%%%%%%%%%%%%%%%%%%%%%%%%%%%%%%%%%%%%%%%%%%%%%%%%%%%%",
"%%%%%%%%%%%%%%%%%%%%%%%%%%%%%%%%%%%%%%%%%%%%%%%%%%%%%%%%%%%%%%%%%%%%%%%%%%%%%%%%%%%%%%%%%%%%%%%%",
"%%%%%%%%%%%%%%%%%%%%%%%%%%%%%%%%%%%%%%%%%%%%%%%%%%%%%%%%%%%%%%%%%%%%%%%%%%%%%%%%%%%%%%%%%%%%%%%%"
};
