/* XPM */
static char *xpm_[] = {
/* columns rows colors chars-per-pixel */
"160 32 11 1 ",
"  c #0E071B",
". c #1A1932",
"X c #2A2F4E",
"o c #424C6E",
"O c #C42430",
"+ c #657392",
"@ c #E3A0BC",
"# c #F9E6CF",
"$ c #FDD2ED",
"% c #F6F0F0",
"& c None",
/* pixels */
"&&&&&&& &&&&&&&&&&&&&&&& &&&&&&&&&&&&&&&&&&&&&&&&&&&&&&&&&&&&&&&&&&&&&&&&&&&&&&&&&&&&&&&&&&&&&&&&&&&&&&&&&&&&&&&&&&&&&&&&&&&&&&&&&&&&&&&&&&&&&&&&&&&&&&&&&&&&&&&",
"&&&&&& X &&&&&&&&&&&&&& X &&&&&&&&&&&&&&&&&&&&&&&&&&&&&&&&&&&&&&&&&&&&&&&&&&&&&&&&&&&&&&&&&&&&&&&&&&&&&&&&&&&&&&&&&&&&&&&&&&&&&&&&&&&&&&&&&&&&&&&&&&&&&&&&&&&&&&",
"&&&&& oXX &&&&&&&&%&&&%XXo &&&&&&&&&&&&&&&&&&&&&&&&&&&&&&&&&&&&&&&&&&&&&&&&&&&&&&&&&&&&&&&&&&&&&&&&&&&&&&&&&&&&&&&&&&&&&&&&&&&&&&&&&&&&&&&&&&&&&&&&&&&&&&&&&&&&&",
"&&&&& +oX &&%&&&%&&%&& Xo+ &&&&&&&&&&&&&&&&&&&&&&&&&&&&&&&&&&&&&&&&&&&&&&&&&&&&&&&&&&&&&&&&&&&&&&&&&&&&&&&&&&&&&&&&&&&&&&&&&&&&&&&&&&&&&&&&&&&&&&&&&&&&&&&&&&&&&",
"&&&&& +oX &&&%&&&&&&&& Xo+ &&&&&&&&&&&&&&&&&&&&&&&&&&&&&&&&&&&&&&&&&&&&&&&&&&&&&&&&&&&&&&&&&&&&&&&&&&&&&&&&&&&&&&&&&&&&&&&&&&&&&&&&&&&&&&&&&&&&&&&&&&&&&&&&&&&&&",
"&&&&& +o X &&&&&&&%&& X o+ &&&&&&&&&&&&&& &&&&&&&&&&&& &&&&&&&&&&&&&&&&&&&&&&&&&&&&&&&&&&&&&&&&&&&&&&&&&&&&&&&&&&&&&&&&&&&&&&&&&&&&&&&&&&&&&&&&&&&&&&&&&&&&&&&&&",
"&&&& +++ @X &&&&&&&& X@ +++ &&&&&&&&&&&& X &&&&&&&&&& X &&&&&&&&&&&&&&&&&&&&&&&&&&&&&&&&&&&&&&&&&&&&&&&&&&&&&&&&&&&&&&&&&&&&&&&&&&&&&&&&&&&&&&&&&&&&&&&&&&&&&&&&",
"&&&& +++o @X &&&&&& X@ o++% &&&&&&&&&&&& X &&&&&&&&&& X &&&&&&&&&&&&&&&&&&&&&&&&&&&&&&&&&&&&&&&&&&&&&&&&&&&&&&&&&&&&&&&&&&&&&&&&&&&&&&&&&&&&&&&&&&&&&&&&&&&&&&&&",
"&&&& +%+o @X        X@ o+++ &&&&&&&&&&& oXX &&&&&&&& XXo &&&&&&&&&&&&&&&&&&&&&&&&&&&&&&&&&&&&&&&&&&&&&&&&&&&&&&&&&&&&&&&&&&&&&&&&&&&&&&&&&&&&&&&&&&&&&&&&&&&&&&&",
"&&&& ++++ @@XXXXXXXX@@ ++++ &&&&&&&&&&& +oX &&&&&&&& Xo+ &&&&&&&&&&&&&&&&&&&&&&&&&&&&&&&&&&&&&&&&&&&&&&&&&&&&&&&&&&&&&&&&&&&&&&&&&&&&&&&&&&&&&&&&&&&&&&&&&&&&&&&",
"&&&&& +++ $@.##XX##.@$ +++ &&%&&&&&&&&& +oX &&&&&&&& Xo+ &&&&&&&&&&&&&&&&&&&&&&&&&&&&&&&&&&&&&&&&&&&&&&&&&&&&&&&&&&&&&&&&&&&&&&&&&&&&&&&&&&&&&&&&&&&&&&&&&&&&&&&",
"&&&&& ++% $@.##XX##.@$ +%+ &&&&&&&&&&&& +oXX &&&&&& XXo+ &&&&&&&&&&&&&&&&&&&&&&&&&&&&&&&&&&&&&&&&&&&&&&&&&&&&&&&&&&&&&&&&&&&&&&&&&&&&&&&&&&&&&&&&&&&&&&&&&&&&&&&",
"&&&&& ++++ $.##XX##.$ ++++ &&&&&&&&&&& +++oX &&&&&& Xo+++ &&&&&&&&&&&&&&& &&&&&&&&&&&& &&&&&&&&&&&&&&&&&&&&&&&&&&&&&&&&&&&&&&&&&&&&&&&&&&&&&&&&&&&&&&&&&&&&&&&&&",
"&&&&& ++++o ..XXXX.. o++++ &&&&&&&&&&& +++oX &&&&&& Xo+++ &&&&&&&&&&&&&& X &&&&&&&&&& X &&&&&&&&&&&&&&&&&&&&&&&&&&&&&&&&&&&&&&&&&&&&&&&&&&&&&&&&&&&&&&&&&&&&&&&&",
"&&%&&& ++++o .#OO#. o%+++ &&&&&&&&&&&& +++o X &&&& X o+++ &&&&&&&&&&&&&& X &&&&&&&&&& X &&&&&&&&&&&&&&&&&&&&&&&&&&&&&&&&&&&&&&&&&&&&&&&&&&&&&&&&&&&&&&&&&&&&&&&&",
"&&&&&&& +++%X OOOO Xo+++ &&&&&&&&&&&&& +++ X   &&   X +++ &&&&&&&&&&&&&& X &&&&&&&&&& X &&&&&&&&&&&&&&&&&&&&&&&&&&&&&&&&&&&&&&&&&&&&&&&&&&&&&&&&&&&&&&&&&&&&&&&&",
"&&&&&&&&  ++o OOOO o++  &&&&&&&&&&&&&&& ++ X  .  .  X ++ &&&&&&&&&&&&&& oXX &&&&&&&& XXo &&&&&&&&&&&&&&&&&&&&&&&&&&&&&&&&&&&&&&&&&&&&&&&&&&&&&&&&&&&&&&&&&&&&&&&",
"&&&&&&&&&&   .    .   &&&%&&&&&&&&&&&&& + @X X XX X X@ + &&&&&&&&&&&&&& +oX &&&&&&&& Xo+ &&&&&&&&&&&&&&&&&&&&&&&&&&&&&&&&&&&&&&&&&&&&&&&&&&&&&&&&&&&&&&&&&&&&&&&",
"&&&&&&&&&&&& XXXXXX &&&&&&&&&&&&&&&&&&& + @X X .. X X@ + &&&&&&&&&&&&&& +oX &&&&&&&& Xo+ &&&&&&&&&&&&&&&&&&&&&&&&&&&&&&&&&&&&&&&&&&&&&&&&&&&&&&&&&&&&&&&&&&&&&&&",
"&&&&&&&&&&& XX.  .XX &&&&&&&&&&&&&&&&&& + @X        X@ + &&&&&&&&&&&&&&& oXX  &&&&  XXo &&&&&&&&&&&&&&&&&&&&&&&&&&&&&&&&&&&&&&&&&&&&&&&&&&&&&&&&&&&&&&&&&&&&&&&&",
"&&&&&&%&&&& .  &&  . &&&&&&&&&&&&&&&&&&&  @@XXXXXXXX@@  &&&&&&&&&&&&&&&& +oX . && . Xo+ &&&&&&&&&&&&&&&&&&&&%&&&%%&&&&&&&&&&&&&&&&&&&&&&&&&&&&&&&&&&&&&&&&&&&&&&",
"&&&&&&&&&&&  &&&&&&  &&&&&&&&&&&&&&&&&&&& $@.XXXXXX.@$ &&&&&&&&&&&&&&&&& +oX X.  .X Xo+ &&&&&&&&&&&&&&&&&&&&&&&&&&&&&%&&&&&&&&&&&&&&&&&&&&&&&&&&&&&&&&&&&&&&&&&&",
"&&&&&&&&&&&&&&&&&&&&&&&&&&&&&&&&&&&&&&&&& $@.##XX##.@$ &&&&&&&&&&&&&&&&&& oXX XXXX XXo &&&&&&&&&&&&&&&&&    &&&&&&&&&   &&&&&&&&&&&&&&&&&&&&&&&&&&&&&&&&&&&&&&&&",
"&&&&&&&&&&&&&&&&&&&&&&&&&&&&&&&&&&&&&&&&&& $.##XX##.$ &&&&&&&&&&&&&&&&&&   oX .... Xo   &&&&&&&&&&&&&&& XXXX         XXX &&&&&&&&&&&&&&&&&&&&&&&&&&&&&&&&&&&&&&&",
"&&&&&&&&&&&&&&&&&&&&&&&&&&&&&&&&&&&&&&&&&&& ..XXXX.. &&&&&&&&&&&&&&&&&& XXX X .... X XXX &&&&&&&&&&&&& X@@@XXXXXXXXXX@@@X &&&&&&&&&&&&&&   &&&&&&&&&&   &&&&&&&&",
"&&&&&&&&&&&&&&&&&&&&&&&&&&&&&&&&&&&&&&&&&&&& .#XX#. &&&&&&&&&&&&&&&&&&%& @@X        X@@ &&&&&&&&&&&&&&&   @@.##XX##.@@   &&&&&&&&&&&&&& XXX &&&&&&&& XXX &&&&&&&",
"&&&&&&&&&&&&&&&&&&&&&&&&&&&&&&&&&&&&&&&&&&&&&      &&&&&&&&&&&&&&&&&&&&&& @X        X@ &&&&&%&&&&&&&&&&&& $@.##XX##.@$ &&%&&&&&&&&&&&&&& @@X &&&&&& X@@ &&&&&&&&",
"&&&&&&&&&&&&&&&&&&&&&&&&&&&&&&&&&&&&&&&&&&&&&&&&&&&&&&&&&&&&&&&&&&&&&&&&& @@XXXXXXXX@@ &%&&&&%&&&&&&%&&%&& $.XXXXXX.$ &&&&&&&&&&&&&&&&&&& @X        X@ &&&&&&&&&",
"&&&&&&&&&&&&&&&&&&&&&&&&&&&&&&&&&&&&&&&&&&&&&&&&&&&&&&&&&&&&&&&&&&%&&&&&& $@.XXXXXX.@$ &&&&&&&&&&&&&&&&&  X ..XXXX.. X  &%&&&&&&&&&&&&&&& @@XXXXXXXX@@ &&&&&&&&&",
"&&&&&&&&&&&&&&&&&&&&&&&&&&&&&&&&&&&&&&&&&&&&&&&&&&&&&&&&&&&&&&&&&&&&&%&&& $@.XXXXXX.@$ &&%%&&&&&&&&&&&  XXXX .#OO#. XXXX  &&&&&&&&&&&&&   $@.XXXXXX.@$   &&&&&&&",
"&&&&&&&&&&&&&&&&&&&&&&&&&&&&&&&&&&&&&&&&&&&&&&&&&&&&&&&&&&&&&&&&&&&&%&&&&% $.##XX##.$ &&&&&&%&&&&&&&& XXXoooX OOOO XoooXXX &&&&&&&&&&& XX $@.XXXXXX.@$ XX  &&&&&",
"&&&&&&&&&&&&&&&&&&&&&&&&&&&&&&&&&&&&&&&&&&&&&&&&&&&&&&&&&&&&&&&&&&&&%&&&%&& ..XXXX.. &&&&&&&&&&&&&&& XXoo+++oX    Xo+++ooXX &&&&&&&&& XXoo $.##XX##.$ ooXXX &&&&"
};
