/* XPM */
static char *xpm_[] = {
/* columns rows colors chars-per-pixel */
"96 32 10 1 ",
"  c #0E071B",
". c #1A1932",
"X c #2A2F4E",
"o c #424C6E",
"O c #FF0040",
"+ c #657392",
"@ c #E3A0BC",
"# c #F9E6CF",
"$ c #FDD2ED",
"% c None",
/* pixels */
"%%%%%%%%%%%%%%%%%%%%%%%%%%%%%%%%%%%%%%%%%%%%%%%%%%%%%%%%%%%%%%%%%%%%%%%%%%%%%%%%%%%%%%%%%%%%%%%%",
"%%%%%%%%%%%%%%%%%%%%%%%%%%%%%%%%%%%%%%%%%%%%%%%%%%%%%%%%%%%%%%%%%%%%%%%%%%%%%%%%%%%%%%%%%%%%%%%%",
"%%%%%%%%%%%%%%%%%%%%%%%%%%%%%%%%%%%%%%%%%%%%%%%%%%%%%%%%%%%%%%%%%%%%%%%%%%%%%%%%%%%%%%%%%%%%%%%%",
"%%%%%%%%%%%%%%%%%%%%%%%%%%%%%%%%%%%%%%%%%%%%%%%%%%%%%%%%%%%%%%%%%%%%%%%%%%%%%%%%%%%%%%%%%%%%%%%%",
"%%%%%%%%%%%%%%%%%%%%%%%%%%%%%%%%%%%%%%%%%%%%%%%%%%%%%%%%%%%%%%%%%%%%%%%%%%%%%%%%%%%%%%%%%%%%%%%%",
"%%%%%%%%%%%%%%%%%%%%%%%%%%%%%%%%%%%%%%%%%%%%%%%%%%%%%%%%%%%%%%%%%%%%%%%%%%%%%%%%%%%%%%%%%%%%%%%%",
"%%%%%%%%%%%%%%%%%% %%%%%%%%%%%%%%%%%%%%%%%%%%%%%%%%%%%%%%%%%%%%%%%%%%%%%%%%%%%%%%%%%%%%%%%%%%%%%",
"%%%%%%%%%%%%%%%%% X  %%%%%%%%%%%%%%%%%%%%%%%%%%%%%%%%%%%%%%%%%%%%%%%%%%%%%%%%%%%%%%%%%%%%%%%%%%%",
"%%%%%%%%%%%%%%%%%% X+ %%%%%%%%%%%%%%%%%%%%%%%%%%%%    %%%%%%%%%%%%%%%%%%%%%%%%%%%%    %%%%%%%%%%",
"%%%%%%%%%%%%%%%%%%     %%%%%%%%%%%%%%%%%%%%%%%%%% XXXX %%%%%%%%%%%%%%%%%%%%%%%%%  XXXX %%%%%%%%%",
"%%%%%%%%%%%%%%%%% XXXX  %%%%%%%%%%%%%%%%%%%%%%%% X@@. %%%%%%%%%%%%%%%%%%%%%     X@@@ %%%%%%%%%%%",
"%%%%%%%%%%%%%%%% X@@. o+ %%%%%%%%%%%%%%%%%%     X@$$ %%%%%%%%%%%%%%%%%%%%% XXXXX@@$$ %%%%%%%%%%%",
"%%%%%%%%%%%     X@$$ Xo+ %%%%%%%%%%%%%%%%% XXXXX@@$$ %%%%%%%%%%%%%%%%%%%% XXXXX.@$$$ %%%%%%%%%%%",
"%%%%%%%%%% XXXXX@@$$ Xo+ %%%%%%%%%%%%%%%% XXXXX.@$$$ %%%%%%%%%%%%%%%%%%%% X##XX.@$$ %%%%%%%%%%%%",
"%%%%%%%%% XXXXX.@$$$ Xo+ %%%%%%%%%%%%%%%% X##XX.@$$ %%%%%%%%%%%%%%%%%%%%% XO#X..$$   %%%%%%%%%%%",
"%%%%%%%%% X##XX.@$$  Xo+ %%%%%%%%%%%%%%%% XO#X..$$ %%%%%%%%%%%%%%%%%%%%%% XXXX....  X %%%%%%%%%%",
"%%%%%%%%% XO#X..$$  Xo++ %%%%%%%%%%%%%%%% XXXX....         %%%%%%%%%%%%%% #...... XX   %%%%%%%%%",
"%%%%%%%%% XXXX.... Xo++ %%%%%%%%%%%%%%%%% #...... XXXXXXXXX %%%%%%%%%%%%%%       +XXX . %%%%%%%%",
"%%%%%%%%% #...... Xo++ %%%%%%%%%%%%%%%%%%%       oooo++++  %%%%%%%%%%%%%%%%%%%%   +XX   %%%%%%%%",
"%%%%%%%%%%       oo+  %%%%%%%%%%%%%%%%%%%%%%%% .    +++  %%%%%%%%%%%%%%%%%%%%%%%% +XX %%%%%%%%%%",
"%%%%%%%%%%%%% ...   X %%%%%%%%%%%%%%%%%%%%%%%%%        %%%%%%%%%%%%%%%%%%%%%%%%%% +XX %%%%%%%%%%",
"%%%%%%%%%%%%%% XXXX.X %%%%%%%%%%%%%%%%%%%%%%%%%%%%%%   %%%%%%%%%%%%%%%%%%%%%%%%%% +XX %%%%%%%%%%",
"%%%%%%%%%%%%%%%     X %%%%%%%%%%%%%%%%%%%%%%%%%%%%%%%%%%%%%%%%%%%%%%%%%%%%%%%%%%% +X %%%%%%%%%%%",
"%%%%%%%%%%%%%%%%%%% . %%%%%%%%%%%%%%%%%%%%%%%%%%%%%%%%%%%%%%%%%%%%%%%%%%%%%%%%%% +XX %%%%%%%%%%%",
"%%%%%%%%%%%%%%%%%%%% %%%%%%%%%%%%%%%%%%%%%%%%%%%%%%%%%%%%%%%%%%%%%%%%%%%%%%%%%%% +X %%%%%%%%%%%%",
"%%%%%%%%%%%%%%%%%%%%%%%%%%%%%%%%%%%%%%%%%%%%%%%%%%%%%%%%%%%%%%%%%%%%%%%%%%%%%%% XX %%%%%%%%%%%%%",
"%%%%%%%%%%%%%%%%%%%%%%%%%%%%%%%%%%%%%%%%%%%%%%%%%%%%%%%%%%%%%%%%%%%%%%%%%%%%%%%%  %%%%%%%%%%%%%%",
"%%%%%%%%%%%%%%%%%%%%%%%%%%%%%%%%%%%%%%%%%%%%%%%%%%%%%%%%%%%%%%%%%%%%%%%%%%%%%%%%%%%%%%%%%%%%%%%%",
"%%%%%%%%%%%%%%%%%%%%%%%%%%%%%%%%%%%%%%%%%%%%%%%%%%%%%%%%%%%%%%%%%%%%%%%%%%%%%%%%%%%%%%%%%%%%%%%%",
"%%%%%%%%%%%%%%%%%%%%%%%%%%%%%%%%%%%%%%%%%%%%%%%%%%%%%%%%%%%%%%%%%%%%%%%%%%%%%%%%%%%%%%%%%%%%%%%%",
"%%%%%%%%%%%%%%%%%%%%%%%%%%%%%%%%%%%%%%%%%%%%%%%%%%%%%%%%%%%%%%%%%%%%%%%%%%%%%%%%%%%%%%%%%%%%%%%%",
"%%%%%%%%%%%%%%%%%%%%%%%%%%%%%%%%%%%%%%%%%%%%%%%%%%%%%%%%%%%%%%%%%%%%%%%%%%%%%%%%%%%%%%%%%%%%%%%%"
};
