/* XPM */
static char *xpm_[] = {
/* columns rows colors chars-per-pixel */
"96 32 4 1 ",
"  c #0E071B",
". c #1A1932",
"X c #2A2F4E",
"o c None",
/* pixels */
"oooooooooooooooooooooooooooooooooooooooooooooooooooooooooooooooooooooooooooooooooooooooooooooooo",
"oooooooooooooooooooooooooooooooooooooooooooooooooooooooooooooooooooooooooooooooooooooooooooooooo",
"oooooooooooooooooooooooooooooooooooooooooooooooooooooooooooooooooooooooooooooooooooooooooooooooo",
"oooooooooooooooooooooooooooooooooooooooooooooooooooooooooooooooooooooooooooooooooooooooooooooooo",
"oooooooooooooooooooooooooooooooooooooooooooooooooooooooooooooooooooooooooooooooooooooooooooooooo",
"oooooooooooooooooooooooooooooooooooooooooooooooooooooooooooooooooooooooooooooooooooooooooooooooo",
"ooooooooooo oooooooo ooooooooooooooooooooooooooooooooooooooooooooooooooooooooooooooooooooooooooo",
"ooooooooo  . oooooo .  ooooooooooooooooooooooooooooooooooooooooooooooooooooooooooooooooooooooooo",
"oooooooo X. oooooooo .X oooooooooooooooo   oooooooooo   oooooooooooooooo   oooooooooo   oooooooo",
"ooooooo X. oooooooooo .X oooooooooooooo XXX oooooooo XXX oooooooooooooo .XX  oooooo  XX. ooooooo",
"oooooo  X.  oooooooo  .X  oooooooooooooo .XX oooooo XX. ooooooooooooooooo .X        X. ooooooooo",
"ooooo XX. XX oooooo XX .XX oooooooooooooo .X        X. oooooooooooooooooo .XXXXXXXXXX. ooooooooo",
"ooooo XX. .X        X. .XX oooooooooooooo .XXXXXXXXXX. oooooooooooooooooo .X.XXXXXX.X. ooooooooo",
"ooooo XX. .XXXXXXXXXX. .XX oooooooooooooo .X.XXXXXX.X. oooooooooooooooooo ............ ooooooooo",
"ooooo XX. .X.XXXXXX.X. .XX oooooooooooooo ...XXXXXX... ooooooooooooooooooo            oooooooooo",
"ooooo XX. ...XXXXXX... .XX ooooooooooooooo .......... oooooooooooooooooo  X..........X  oooooooo",
"ooooo XX.. ..XXXXXX.. ..XX oooooo                              oooooooo XX....XXXX....XX ooooooo",
"oooooo XX..  .XXXX.  ..XX ooooooo ............................ ooooooo X...  XXXXXX  ...X oooooo",
"ooooooo XX...      ...XX ooooooooo XXXXXX.....XXXX.....XXXXXX oooooooo X.. o X.  .X o ..X oooooo",
"oooooooo  X..........X  ooooooooooo  XXXXX   XXXXXX   XXXXX  ooooooooo X.. o . oo . o ..X oooooo",
"oooooooooo   .XXXX.   ooooooooooooooo     oo X.  .X oo     ooooooooooo XX. oo oooo oo .XX oooooo",
"oooooooooooo XXXXXX oooooooooooooooooooooooo . oo . oooooooooooooooooo XX. oooooooooo .XX oooooo",
"oooooooooooo X.  .X ooooooooooooooooooooooooo oooo oooooooooooooooooooo X. oooooooooo .X ooooooo",
"oooooooooooo . oo . ooooooooooooooooooooooooooooooooooooooooooooooooooo XX. oooooooo .XX ooooooo",
"ooooooooooooo oooo ooooooooooooooooooooooooooooooooooooooooooooooooooooo X. oooooooo .X oooooooo",
"ooooooooooooooooooooooooooooooooooooooooooooooooooooooooooooooooooooooooo XX oooooo XX ooooooooo",
"oooooooooooooooooooooooooooooooooooooooooooooooooooooooooooooooooooooooooo  oooooooo  oooooooooo",
"oooooooooooooooooooooooooooooooooooooooooooooooooooooooooooooooooooooooooooooooooooooooooooooooo",
"oooooooooooooooooooooooooooooooooooooooooooooooooooooooooooooooooooooooooooooooooooooooooooooooo",
"oooooooooooooooooooooooooooooooooooooooooooooooooooooooooooooooooooooooooooooooooooooooooooooooo",
"oooooooooooooooooooooooooooooooooooooooooooooooooooooooooooooooooooooooooooooooooooooooooooooooo",
"oooooooooooooooooooooooooooooooooooooooooooooooooooooooooooooooooooooooooooooooooooooooooooooooo"
};
