/* XPM */
static char *xpm_[] = {
/* columns rows colors chars-per-pixel */
"96 32 10 1 ",
"  c #0E071B",
". c #1A1932",
"X c #2A2F4E",
"o c #424C6E",
"O c #FF0040",
"+ c #657392",
"@ c #E3A0BC",
"# c #F9E6CF",
"$ c #FDD2ED",
"% c None",
/* pixels */
"%%%%%%%%%%%%%%%%%%%%%%%%%%%%%%%%%%%%%%%%%%%%%%%%%%%%%%%%%%%%%%%%%%%%%%%%%%%%%%%%%%%%%%%%%%%%%%%%",
"%%%%%%%%%%%%%%%%%%%%%%%%%%%%%%%%%%%%%%%%%%%%%%%%%%%%%%%%%%%%%%%%%%%%%%%%%%%%%%%%%%%%%%%%%%%%%%%%",
"%%%%%%%%%%%%%%%%%%%%%%%%%%%%%%%%%%%%%%%%%%%%%%%%%%%%%%%%%%%%%%%%%%%%%%%%%%%%%%%%%%%%%%%%%%%%%%%%",
"%%%%%%%%%%%%%%%%%%%%%%%%%%%%%%%%%%%%%%%%%%%%%%%%%%%%%%%%%%%%%%%%%%%%%%%%%%%%%%%%%%%%%%%%%%%%%%%%",
"%%%%%%%%%%%%%%%%%%%%%%%%%%%%%%%%%%%%%%%%%%%%%%%%%%%%%%%%%%%%%%%%%%%%%%%%%%%%%%%%%%%%%%%%%%%%%%%%",
"%%%%%%%%%%%%%%%%%%%%%%%%%%%%%%%%%%%%%%%%%%%%%%%%%%%%%%%%%%%%%%%%%%%%%%%%%%%%%%%%%%%%%%%%%%%%%%%%",
"%%%%%%%%%%%%% %%%%%%%%%%%%%%%%%%%%%%%%%%%%%%%%%%%%%%%%%%%%%%%%%%%%%%%%%%%%%%%%%%%%%%%%%%%%%%%%%%",
"%%%%%%%%%%%  X %%%%%%%%%%%%%%%%%%%%%%%%%%%%%%%%%%%%%%%%%%%%%%%%%%%%%%%%%%%%%%%%%%%%%%%%%%%%%%%%%",
"%%%%%%%%%% +X %%%%%%%%%%%%%%%%%%%%%%%%%%%%    %%%%%%%%%%%%%%%%%%%%%%%%%%%%    %%%%%%%%%%%%%%%%%%",
"%%%%%%%%%     %%%%%%%%%%%%%%%%%%%%%%%%%%% XXXX %%%%%%%%%%%%%%%%%%%%%%%%%% XXXX  %%%%%%%%%%%%%%%%",
"%%%%%%%%  XXXX %%%%%%%%%%%%%%%%%%%%%%%%%%% .@@X %%%%%%%%%%%%%%%%%%%%%%%%%%% @@@X     %%%%%%%%%%%",
"%%%%%%% +o .@@X %%%%%%%%%%%%%%%%%%%%%%%%%%% $$@X     %%%%%%%%%%%%%%%%%%%%%% $$@@XXXXX %%%%%%%%%%",
"%%%%%%% +oX $$@X     %%%%%%%%%%%%%%%%%%%%%% $$@@XXXXX %%%%%%%%%%%%%%%%%%%%% $$$@.XXXXX %%%%%%%%%",
"%%%%%%% +oX $$@@XXXXX %%%%%%%%%%%%%%%%%%%%% $$$@.XXXXX %%%%%%%%%%%%%%%%%%%%% $$@.XX##X %%%%%%%%%",
"%%%%%%% +oX $$$@.XXXXX %%%%%%%%%%%%%%%%%%%%% $$@.XX##X %%%%%%%%%%%%%%%%%%%%   $$..X#OX %%%%%%%%%",
"%%%%%%% +oX  $$@.XX##X %%%%%%%%%%%%%%%%%%%%%% $$..X#OX %%%%%%%%%%%%%%%%%%% X  ....XXXX %%%%%%%%%",
"%%%%%%% ++oX  $$..X#OX %%%%%%%%%%%%%%         ....XXXX %%%%%%%%%%%%%%%%%%   XX ......# %%%%%%%%%",
"%%%%%%%% ++oX ....XXXX %%%%%%%%%%%%% XXXXXXXXX ......# %%%%%%%%%%%%%%%%% . XXX+       %%%%%%%%%%",
"%%%%%%%%% ++oX ......# %%%%%%%%%%%%%%  ++++oooo       %%%%%%%%%%%%%%%%%%   XX+   %%%%%%%%%%%%%%%",
"%%%%%%%%%%  +oo       %%%%%%%%%%%%%%%%%  +++    . %%%%%%%%%%%%%%%%%%%%%%%% XX+ %%%%%%%%%%%%%%%%%",
"%%%%%%%%%% X   ... %%%%%%%%%%%%%%%%%%%%%%        %%%%%%%%%%%%%%%%%%%%%%%%% XX+ %%%%%%%%%%%%%%%%%",
"%%%%%%%%%% X.XXXX %%%%%%%%%%%%%%%%%%%%%%%   %%%%%%%%%%%%%%%%%%%%%%%%%%%%%% XX+ %%%%%%%%%%%%%%%%%",
"%%%%%%%%%% X     %%%%%%%%%%%%%%%%%%%%%%%%%%%%%%%%%%%%%%%%%%%%%%%%%%%%%%%%%% X+ %%%%%%%%%%%%%%%%%",
"%%%%%%%%%% . %%%%%%%%%%%%%%%%%%%%%%%%%%%%%%%%%%%%%%%%%%%%%%%%%%%%%%%%%%%%%% XX+ %%%%%%%%%%%%%%%%",
"%%%%%%%%%%% %%%%%%%%%%%%%%%%%%%%%%%%%%%%%%%%%%%%%%%%%%%%%%%%%%%%%%%%%%%%%%%% X+ %%%%%%%%%%%%%%%%",
"%%%%%%%%%%%%%%%%%%%%%%%%%%%%%%%%%%%%%%%%%%%%%%%%%%%%%%%%%%%%%%%%%%%%%%%%%%%%% XX %%%%%%%%%%%%%%%",
"%%%%%%%%%%%%%%%%%%%%%%%%%%%%%%%%%%%%%%%%%%%%%%%%%%%%%%%%%%%%%%%%%%%%%%%%%%%%%%  %%%%%%%%%%%%%%%%",
"%%%%%%%%%%%%%%%%%%%%%%%%%%%%%%%%%%%%%%%%%%%%%%%%%%%%%%%%%%%%%%%%%%%%%%%%%%%%%%%%%%%%%%%%%%%%%%%%",
"%%%%%%%%%%%%%%%%%%%%%%%%%%%%%%%%%%%%%%%%%%%%%%%%%%%%%%%%%%%%%%%%%%%%%%%%%%%%%%%%%%%%%%%%%%%%%%%%",
"%%%%%%%%%%%%%%%%%%%%%%%%%%%%%%%%%%%%%%%%%%%%%%%%%%%%%%%%%%%%%%%%%%%%%%%%%%%%%%%%%%%%%%%%%%%%%%%%",
"%%%%%%%%%%%%%%%%%%%%%%%%%%%%%%%%%%%%%%%%%%%%%%%%%%%%%%%%%%%%%%%%%%%%%%%%%%%%%%%%%%%%%%%%%%%%%%%%",
"%%%%%%%%%%%%%%%%%%%%%%%%%%%%%%%%%%%%%%%%%%%%%%%%%%%%%%%%%%%%%%%%%%%%%%%%%%%%%%%%%%%%%%%%%%%%%%%%"
};
