/* XPM */
static char *xpm_[] = {
/* columns rows colors chars-per-pixel */
"128 32 6 1 ",
"  c #3D1307",
". c #38160A",
"X c #56220D",
"o c #6E3518",
"O c #875C3C",
"+ c None",
/* pixels */
"OOOOOOO Ooooooo OOOOOOO OooooXo OoXXooo OOOOOOO OoOoXoo OOOOOOO oooXooOoooXoooOoXooOooooooXXoOoo++++XXXXXXXXXXXXXXXXXXXXXXXX++++",
"O.oooo. Ooooooo O.oooo. OoXXoXo OooXooo O.oooo. OoooXoo O.XXoX. oooXooOooXooXoOoXooOooooXoXoXOoo++XXXXXXXXXXXXXXXXXXXXXXXXXXXX++",
"Ooooooo Ooooooo Ooooooo OooXooo Ooooooo Ooooooo OoooXoo OooXooo ooXoooOooXoXXXoOXoooOoooXXooXoOo+XXXXXXXXXXXXXXXXXXXXXXXXXXXXXX+",
"Ooooooo Ooooooo Ooooooo OooXooo Ooooooo OoooXoo OoooXoo OooXooo OoXooooOoXoXoXXOXXoooOoXooooXooO+XXXXXXXOOOOOOOOOOOOOOOOXXXXXXX+",
"OooooXo Ooooooo Ooooooo OooXooo OooooXo OoooXoo Ooooooo OooXooo OoXoXoooOXXooXXoXXoooOoXooooXoooXXXXXXOOOOOOOOOOOOOOOOOOOOXXXXXX",
"OoooXoo O.oooo. OooXXoo O.oooo. OoooXoo OoooXoo OooXXoo Ooooooo OoXoXXXoOXXooXXooXooXoOXooooXoooXXXXXOOOOooooooooooooooOOOOXXXXX",
"OoXooXo         OooXooo         OoXooXo OoooXoo OooXooo OooooXo oOXXoooooXXoXoXooXoooXOXoOoXooooXXXXOOOooOOOOOOOOOOOOOOooOOOXXXX",
"OoXoooo OOOOOOO Ooooooo OOOOOOO OoXoooo OoooXoo Ooooooo OooooXo oOXXoooooXXoXoXooXoooXoXoOoXooXoXXXXOOoOOOOOOOOOOOOOOOOOOoOOXXXX",
"OoXoooo O.oooo. Ooooooo O.oooo. OoXoooo OoooXoo Ooooooo OooooXo ooXXooXooXooXXoooXooooXXOooXooXoXXXOOOoOOOooooooooooooOOOoOOOXXX",
"OooXooo Ooooooo Ooooooo Ooooooo OooXooo Ooooooo Ooooooo Ooooooo ooXoooXooXoooXoooXoOooXXOooXoOXoXXXOOoOOOOoOOOOOOOOOOoOOOOoOOXXX",
"OoXooXo OoXoooo OoooXoo OooXooo OoXooXo OoXoooo OoooXoo OooXoXo ooXoXoXooXooooooXooOooXXOooXoOXoXXXOOoOOooOOOOOOOOOOOOooOOoOOXXX",
"OoXooXo OoXoooo OoooXoo OooXooo OoXooXo OoXoooo OoooXoo OooXoXo ooXoXoXoOXooXoOoXoOoooXXOooXoOXoXXXOOoOOoOOOooooooooOOOoOOoOOXXX",
"OoXoooo OoXoooo OoooXoo OoXoooo OoXoooo OoXoooo OoooXoo OoXoooo oXXoXoXoOXXoXoOoooOoooXoOooXOoXoXXXOOoOOoOOoOOOOOOOOoOOoOOoOOXXX",
"Ooooooo OooXooo Ooooooo OoXoooo Ooooooo OooXooo Ooooooo OoXoooo ooXoXoXoOXXoXoOoooOoooXXOoooOXooXXXOOoOOoOOoOOOOOOOOoOOoOOoOOXXX",
"O.oooo. OooooXo O.oooo. OooXooo O.oooo. OooooXo O.oooo. OooXooo oOooooXoOoooXoOoXoOoooXXoOooOXooXXXOOoOOoOOoOOOooOOOoOOoOOoOOXXX",
"        OooooXo         Ooooooo         OooooXo         Ooooooo oOooooXoOoooXoOoXooOoXoXoOooooooXXXOOoOOoOOoOOooooOOoOOoOOoOOXXX",
"OOOOOOO OoooXoo OOOOOOO Ooooooo OOOOOOO OoooXoo OOOOOOO Ooooooo ooOXooXoOoooXoooXooooXooXOooooXoXXXOOoOOoOOoOOooooOOoOOoOOoOOXXX",
"O.oooo. OoooXoo O.oooo. OoooXXo O.oooo. OoooXoo O.oooo. OoooXXo ooOXooXOoXXoXooooXoooXooXOooooXoXXXOOoOOoOOoOOOooOOOoOOoOOoOOXXX",
"Ooooooo OooXooo Ooooooo OoooXoo Ooooooo OooXooo Ooooooo OoooXoo oooOooXOoXooXooooXooXoOooXooooXoXXXOOoOOoOOoOOOOOOOOoOOoOOoOOXXX",
"OooooXo OooXooo OoooXXo Ooooooo OooooXo OooXooo OoooXXo Ooooooo oXooXoXOoXooXoooooXoXoOooXooXoXoXXXOOoOOoOOoOOOOOOOOoOOoOOoOOXXX",
"OooooXo Ooooooo OoooXoo Ooooooo OooooXo Ooooooo OoooXoo Ooooooo XoooXooXoXooXooXooXoXoOoooXoXoXoXXXOOoOOoOOOooooooooOOOoOOoOOXXX",
"Ooooooo O.oooo. OooXooo O.oooo. Ooooooo Ooooooo OooXooo OooXooo XoooXooXooXoXooXooXoXOXXooXooXXoXXXOOoOOooOOOOOOOOOOOOooOOoOOXXX",
"OooXooo         OooXooo         OooXooo Ooooooo OooXooo OoooXoo XoXoXooXooXoXooXooXooOXoXoXooXooXXXOOoOOOOoOOOOOOOOOOoOOOOoOOXXX",
"OooXooo OOOOOOO OooXooo OOOOOOO OooXooo Ooooooo OooXooo OoooXoo XoXoXooXoooXXooXooXooOXoXooXoXooXXXOOOoOOOooooooooooooOOOoOOOXXX",
"OooXooo O.oooo. OooooXo O.oooo. OooXooo Ooooooo OooooXo OooooXo XoXoXooXoooXoXooXoXOoOXoXOoXoXooXXXXOOoOOOOOOOOOOOOOOOOOOoOOXXXX",
"OooXoXo Ooooooo OooooXo Ooooooo OooXoXo OoXoooo OooooXo OooooXo XoXoXoooXooooXooXoXOoXoooOoXoXooXXXXOOOooOOOOOOOOOOOOOOooOOOXXXX",
"OooXoXo Ooooooo OooooXo Ooooooo OooXoXo OoXoooo OooooXo Ooooooo XoXOoXooXooooXooooXoOoXooOoXooOoXXXXXOOOOooooooooooooooOOOOXXXXX",
"OoXooXo Ooooooo OooooXo OooXooo OoXooXo OoXoooo OooooXo OooXoXo XoXOoXoOXoXooXooooXoooXooOXoooOoXXXXXXOOOOOOOOOOOOOOOOOOOOXXXXXX",
"OoXoooo OoooXoo OooooXo OooXooo OoXoooo OoXoXoo OooooXo OooXooo XooOoXoOXooXOoXooooXoOXoOoXooOoo+XXXXXXXOOOOOOOOOOOOOOOOXXXXXXX+",
"Ooooooo OoooXoo Ooooooo OooXooo Ooooooo OoooXoo Ooooooo OooXooo oXoOoXoOoooXOoXooXoXoOXoooXooOoo+XXXXXXXXXXXXXXXXXXXXXXXXXXXXXX+",
"O.oooo. OoooXoo O.oooo. Ooooooo Ooooooo O.ooXo. Ooooooo O.oooo. ooOooXOooooXoOoooXooOoooOoXooOoo++XXXXXXXXXXXXXXXXXXXXXXXXXXXX++",
"        OoooXoo         Ooooooo Ooooooo         Ooooooo         ooooXoOooooXooOoXooOoooooooXoOoo++++XXXXXXXXXXXXXXXXXXXXXXXX++++"
};
