/* XPM */
static char *xpm_[] = {
/* columns rows colors chars-per-pixel */
"32 32 3 1 ",
"  c #F3C466",
". c #EFCC86",
"X c #F9E6CF",
/* pixels */
"......................    ......",
"................            ....",
".............         XXX     ..",
"..........      XXXXXX...XXX   .",
" .....       XXX............XX  ",
"          XXX.................X ",
"      XXXX.....................X",
"XX XXX..........................",
"..X.............................",
"...   ....................      ",
"    XX ...............          ",
"XXXX..X   .........         XXXX",
".......XXX              XXXX....",
"..........XX          XX........",
"............XX      XX..........",
"..............XXXXXX............",
"......      ....................",
"...              ...............",
"       XXXXXX      .............",
"   XXXX......XXXX     ........  ",
"  X..............XX             ",
"XX.................XX         XX",
".....................XXXXXXXXX..",
"................................",
"..............       ...........",
"    ......             ........ ",
" X    ....     XXXXXXX     .    ",
"X.XX       XXXX.......XX        ",
"X...XXXXXXX..............XXXX  X",
".............................XX.",
"................................",
"................................"
};
