/* XPM */
static char *xpm_[] = {
/* columns rows colors chars-per-pixel */
"96 32 6 1 ",
"  c #1E6F50",
". c #DF3E23",
"X c #33984B",
"o c #5AC54F",
"O c #FFFC40",
"+ c #DAE0EA",
/* pixels */
"XXXXXXXXXXXXXXXXXXXXXXXXXXXXXXXXXXXXXXXXXXXXXXX..XXXXXXXXXXXXXXXXXXXXXXXXXXXXXXXXXXXXXXXXXXXXXXX",
"XXXXXXXXXXXXXXXXXXXXXXXXXXXXXXXXXXXXXXXXXXXXXXX..XXXXXXXXXXXXXXXXXXXXXXXXXXXXXXXXXXXXXXXXXXXXXXX",
"XXXXXXXXooXXXXXXXXoXXXXXXXXXXXXXXXXXXXXXXXXXXXXXooXXXXooXXXXXXXXXXXXXXXXXXXXXXXXXXXXXXXXXX++XXXX",
"XXooXXXooXXXXXXXXXooXXXXooXXXXXXX..XXXXXXXXXXXXXXooXXooXXXXXXXXXXXXXXXXooXXXXXXXXXXoXXXXX+OO+XXX",
"XXXoooXooXXXXXXXXXXooXXooXXXXXXXX..XXXXooXXXXXXXXooXXooXXXXXXXXXXooXXXooXXXXXXXXXXXooXXXX+OO+XXX",
"XXXXooXoo  XXXXXXXXooXXooXXXXXXXXooXXXooXXXXXXXXXXo  oo  XXXXXXXXXoooXooXXXXXXXXXXXXooXXoo++XXXX",
"XXXXXo o  XXXXXXXXXXo  oo  XXXXXXXoooXooXXXXXXXXXXo Xo  XXXXXXXXXXXooXoo  XXXXXXXXXXooXXooXXXXXX",
"XXXXXo XXXXXXXXXXXXXo Xo  XXXXXXXXXooXoo  XXXXXXXXXXXXXXXXXXXXXXXXXXo o  XXXXXXXXXXXXo  oo  XXXX",
"XXXXXXXXXXXXXXXXXXXXXXXXXXXXXXXXXXXXo o  XXXXXXXXXXXXXXXXXXXXXXXXXXXo XXXXXXXXXXXXXXXo Xo  XXXXX",
"XXXXXXXXXXXXXXXXXXXXXXXXXXXXXXXXXXXXo XXXXXXXXXXXXXXXXXXXXXXXXXXXXXXXXXXXXXXXXXXXXXXXXXXXXXXXXXX",
"XXXXXXXXXXXXXooXXXXXXXXXXXXXXXXXXXXXXXXXXXXXXXXXXXXXXXXXXXXXXXXXXXXXXXXXXXXXXXXXXXXXXXXXXXXXXXXX",
"XXXXXXXooXXXXoXXXXXXXXXXXXXXXXXXXXXXXXXXXXXXXXXXXXXXXXXXXXXX..XXXXXXXXXXXXXXXX++XXXXXXXXXXXXXXXX",
"XXXXXXXXooXXooXXXXXXXXXXXXXXXXXXXXXXXXXXXooXXXXXXXXXXXXoXXXo..XXXXXXXXXXXXXXX+OO+XXXXXXXXXXXXXXX",
"XXXXXXXXooXoooXXXXXXXoXXXooXXXXXXXXooXXXXoXXXXXXXXXXXXXooXooXXXXXXXXXXXXXXXXX+OO+XXXXXXXXXXXXXXX",
"XXXXXXXXooXoo  XXXXXXooXooXXXXXXXXXXooXXooXXXXXXXXXXXXXoo oo  XXXXXXXXXXooXXXX++XXXXXXXXXXXXXXXX",
"XXXXXXXXXo o  XXXXXXXoo oo  XXXXXXXXooXoooXXXXXXXXXXXXXXo o  XXXXXXXXXXXXooXXooXXXXXXXoXXXooXXXX",
"XXXXXXXXXo XXXXXXXXXXXo o  XXXXXXXXXooXoo  XXXXXXXXXXXXXXXo XXXXXXXXXXXXXooXoooXXXXXXXooXooXXXXX",
"XXXXXXXXXXXXXXXXXXXXXXXXo XXXXXXXXXXXo o  XXXXXXXXXXXXXXXXXXXXXXXXoXXXXXXooXoo  XXXXXXoo oo  XXX",
"XXXXXXXXXXXXXXXXXXXXXXXXXXXXXXXXXXXXXo XXXXXXXXXXXXXXXXXXXXXXXXXXXooXXXXXXo o  XXXXXXXXo o  XXXX",
"XXXoXXXXXXXXXXXXXXXXXXXXXXXXXXXXXXXXXXXXXXXXXXXX..XXXXXXXXXXXXXXXXoo  XXXXo XXXXXXXXXXXXXo XXXXX",
"XXXooXXXXXXXXXXXXXXXXXXXXXXXXXXXXXXXXXXXXXXXXXXo..XXXXXXXXXXXXXXXXXo XXXXXXXXXXXXXXXXXXXXXXXXXXX",
"XXXoo  XXXXXXXooXXXXXXXXXXXXXXXXXXXXXXXXXXXXXXXoXXXXXXXXXXXXXXXXXXXXXXXXXXXXXXXXXXXXXXXXXXXXXXXX",
"XXXXo XXXXXXXXoXXXXXXXXXXXXXXXXXXXXXXXXXXXooXXooXXXXXXXXXXXXXXXXXXXXXXXXXXXXXXXXXXXXXXXXXXXXXXXX",
"XXXXXXXXXooXXooXXXXXXXXXXXXXXoXXXXXXXXXXXXXooXoo  XXXXXXX..XXXXXXXXXXXXXXXXXXXXXXXXX++XXXXXXXXXX",
"XXXXXXXXXXooXoo  XXXXXXXXXXXooXXXX..XXXXXXXoo o  XXXXXXXX..oXXXXXXXXXX++XXXooXXXXXX+OO+XXXXXXXXX",
"XXXXXXXXXXoo o  XXXXXooXXXXXoo XXX..XXXXXXXXo XXXXXXXXXXXXooXXXXXXXXX+OO+XXoXXXXXXX+OO+XXXXXXXXX",
"XXXXXXXXXXXo XXXXXXXXXooX XXo  XXXXooXXXXXXXXXXXXXXooXXXXXoo XXXXXXXX+OO+XooXXXXXXXX++ooX XXXoXX",
"XXXXXXXXXXXXXXXXXXXXXXoo  XXXXXXXXXoo  XXXXXXXXXXXXXooX XXo  XXXXXXXXX++oXoo  XXXXXXXXoo  XXooXX",
"XXXXXXXXXXXXXXXXXXXXXXXo XXXXXXXXXXXo XXXXXXXXXXXXXXoo  XXXXXXXXXXXXXXXoo o  XXXXXXXXXXo XXXoo X",
"XXXXXXXXXXXXXXXXXXXXXXXXXXXXXXXXXXXXXXXXXXXXXXXXXXXXXo XXXXXXXXXXXXXXXXXo XXXXXXXXXXXXXXXXXXo  X",
"XXXXXXXXXXXXXXXXXXXXXXXXXXXXXXXXXXXXXXXXXXXXXXXXXXXXXXXXXXXXXXXXXXXXXXXXXXXXXXXXXXXXXXXXXXXXXXXX",
"XXXXXXXXXXXXXXXXXXXXXXXXXXXXXXXXXXXXXXXXXXXXXXXXXXXXXXXXXXXXXXXXXXXXXXXXXXXXXXXXXXXXXXXXXXXXXXXX"
};
