/* XPM */
static char *xpm_[] = {
/* columns rows colors chars-per-pixel */
"64 32 3 1 ",
"  c #0098DC",
". c #94FDFF",
"X c white",
/* pixels */
"    X            X            X       X        X       X       X",
"    X            X           X         X      X .      .       X",
"     XX           XX         X         .    XX   ..    .XXX   X ",
"   XX XXXXX    XXX  XX      . X       .    .       X  .    X  X ",
"  X        X  .       X.   .   X       .  .         X .     XX  ",
"X X         X.          .  .            ..           .       X  ",
" X           .           ..            .  X          X       X  ",
"  .          .           .           ..   X          X       X  ",
"   .         .           .         XX     .         .        X  ",
"    ..       .            .       X        .        .      XXXXX",
"      .     XX.           .     X X         .     .. .    X    X",
"       . XXX   ..X         .     X           .XX..    .  X      ",
"        X         X        X      X          X         X X      ",
"        X          XX     X       X          X          X       ",
"       X             XX XXXXX      X        X           X       ",
"       X               X     X      .      X            X       ",
"        X              X      X      ..  XX X           X       ",
"       XX             X       X        ..   X           X       ",
"     XX  X            .       X      ..      X         X        ",
"    X     X          .         X    .         X        X        ",
"XXX        XXX   . ..         X     X          .      X         ",
"   X          ... .           X     X           .    X X        ",
"   X              .           X    X             .XXX   X       ",
"    .            ..          X   XXX            .        X      ",
"     .          X  X        X   X   X          .          .    X",
"      .        X    X.    ..X       X         .            . X. ",
"       .      X       . ..   X      XX       . .            .   ",
"      . .    X         .      X    X  X    ..   .          X    ",
"     .   .XXXX        .       X   X    XXX.      .         .    ",
" XX X         X     ..        X  X     X          X       .     ",
"X  X           XX XX           XX      X         X XXXX  .      ",
"    X            X             XX     X         X      XX       "
};
