/* XPM */
static char *cd1c4b9919b24b61aa00a6db66ec2181Cf4ata89y65QJzCF[] = {
/* columns rows colors chars-per-pixel */
"112 64 3 1 ",
"  c None",
". c #ABBBC1",
"X c #D3E1E7",
/* pixels */
"................................................................................XXXXXXXXXXXXXXXXXXXXXXXXXXXXXXXX",
"................................................................................XXXXXXXXXXXXXXXXXXXXXXXXXXXXXXXX",
"....................XXXXXXXXXXXXXXXXXXXXXXXXXXXXXXXXXXXXXXXX........XXXXXXXX....XXXXXXXXXXXXXXXXXXXXXXXXXXXXXXXX",
"...................XXXXXXXXXXXXXXXXXXXXXXXXXXXXXXXXXXXXXXXXXX......XXXXXXXXXX...XXXXXXXXXXXXXXXXXXXXXXXXXXXXXXXX",
"..................XXXXXXXXXXXXXXXXXXXXXXXXXXXXXXXXXXXXXXXXXXXX....XXXXXXXXXXXX..XXXXXXXXXXXXXXXXXXXXXXXXXXXXXXXX",
"..................XXXXXXXXXXXXXXXXXXXXXXXXXXXXXXXXXXXXXXXXXXXX....XXXXXXXXXXXX..XXXXXXXXXXXXXXXXXXXXXXXXXXXXXXXX",
"..................XXXXXXXXXXXXXXXXXXXXXXXXXXXXXXXXXXXXXXXXXXXX....XXXXXXXXXXXX..XXXXXXXXXXXXXXXXXXXXXXXXXXXXXXXX",
"..................XXXXXXXXXXXXXXXXXXXXXXXXXXXXXXXXXXXXXXXXXXXX....XXXXXXXXXXXX..XXXXXXXXXXXXXXXXXXXXXXXXXXXXXXXX",
"..................XXXXXXXXXXXXXXXXXXXXXXXXXXXXXXXXXXXXXXXXXXXX....XXXXXXXXXXXX..XXXXXXXXXXXXXXXXXXXXXXXXXXXXXXXX",
"..................XXXXXXXXXXXXXXXXXXXXXXXXXXXXXXXXXXXXXXXXXXXX....XXXXXXXXXXXX..XXXXXXXXXXXXXXXXXXXXXXXXXXXXXXXX",
"..................XXXXXXXXXXXXXXXXXXXXXXXXXXXXXXXXXXXXXXXXXXXX....XXXXXXXXXXXX..XXXXXXXXXXXXXXXXXXXXXXXXXXXXXXXX",
"..................XXXXXXXXXXXXXXXXXXXXXXXXXXXXXXXXXXXXXXXXXXXX....XXXXXXXXXXXX..XXXXXXXXXXXXXXXXXXXXXXXXXXXXXXXX",
"...................XXXXXXXXXXXXXXXXXXXXXXXXXXXXXXXXXXXXXXXXXX......XXXXXXXXXX...XXXXXXXXXXXXXXXXXXXXXXXXXXXXXXXX",
"....................XXXXXXXXXXXXXXXXXXXXXXXXXXXXXXXXXXXXXXXX........XXXXXXXX....XXXXXXXXXXXXXXXXXXXXXXXXXXXXXXXX",
"................................................................................XXXXXXXXXXXXXXX..XXXXXXXXXXXXXXX",
"................................................................................XXXXXXXXXXXXXX....XXXXXXXXXXXXXX",
"                ................................................................XXXXXXXXXXXXXX....XXXXXXXXXXXXXX",
"                ................................................................XXXXXXXXXXXXXXX..XXXXXXXXXXXXXXX",
"                ....XXXXXXXXXXXXXXXXXXXXXXXXXXXXXXXXXXXXXXXX........XXXXXXXX....XXXXXXXXXXXXXXXXXXXXXXXXXXXXXXXX",
"                ...XXXXXXXXXXXXXXXXXXXXXXXXXXXXXXXXXXXXXXXXXX......XXXXXXXXXX...XXXXXXXXXXXXXXXXXXXXXXXXXXXXXXXX",
"                ..XXXXXXXXXXXXXXXXXXXXXXXXXXXXXXXXXXXXXXXXXXXX....XXXXXXXXXXXX..XXXXXXXXXXXXXXXXXXXXXXXXXXXXXXXX",
"                ..XXXXXXXXXXXXXXXXXXXXXXXXXXXXXXXXXXXXXXXXXXXX....XXXXXXXXXXXX..XXXXXXXXXXXXXXXXXXXXXXXXXXXXXXXX",
"                ..XXXXXXXXXXXXXXXXXXXXXXXXXXXXXXXXXXXXXXXXXXXX....XXXXXXXXXXXX..XXXXXXXXXXXXXXXXXXXXXXXXXXXXXXXX",
"                ..XXXXXXXXXXXXXXXXXXXXXXXXXXXXXXXXXXXXXXXXXXXX....XXXXXXXXXXXX..XXXXXXXXXXXXXXXXXXXXXXXXXXXXXXXX",
"                ..XXXXXXXXXXXXXXXXXXXXXXXXXXXXXXXXXXXXXXXXXXXX....XXXXXXXXXXXX..XXXXXXXXXXXXXXXXXXXXXXXXXXXXXXXX",
"                ..XXXXXXXXXXXXXXXXXXXXXXXXXXXXXXXXXXXXXXXXXXXX....XXXXXXXXXXXX..XXXXXXXXXXXXXXXXXXXXXXXXXXXXXXXX",
"                ..XXXXXXXXXXXXXXXXXXXXXXXXXXXXXXXXXXXXXXXXXXXX....XXXXXXXXXXXX..XXXXXXXXXXXXXXXXXXXXXXXXXXXXXXXX",
"                ..XXXXXXXXXXXXXXXXXXXXXXXXXXXXXXXXXXXXXXXXXXXX....XXXXXXXXXXXX..XXXXXXXXXXXXXXXXXXXXXXXXXXXXXXXX",
"                ..XXXXXXXXXXXXXXXXXXXXXXXXXXXXXXXXXXXXXXXXXXXX....XXXXXXXXXXXX..XXXXXXXXXXXXXXXXXXXXXXXXXXXXXXXX",
"                ..XXXXXXXXXXXXXXXXXXXXXXXXXXXXXXXXXXXXXXXXXXXX....XXXXXXXXXXXX..XXXXXXXXXXXXXXXXXXXXXXXXXXXXXXXX",
"                ..XXXXXXXXXXXXXXXXXXXXXXXXXXXXXXXXXXXXXXXXXXXX....XXXXXXXXXXXX..XXXXXXXXXXXXXXXXXXXXXXXXXXXXXXXX",
"                ..XXXXXXXXXXXXXXXXXXXXXXXXXXXXXXXXXXXXXXXXXXXX....XXXXXXXXXXXX..XXXXXXXXXXXXXXXXXXXXXXXXXXXXXXXX",
"                ..XXXXXXXXXXXXXXXXXXXXXXXXXXXXXXXXXXXXXXXXXXXX....XXXXXXXXXXXX....XXXXXXXXXXXXXX..XXXXXXXXXXXX..",
"                ..XXXXXXXXXXXXXXXXXXXXXXXXXXXXXXXXXXXXXXXXXXXX....XXXXXXXXXXXX...XXXXXXXXXXXXXXX.XXXXXXXXXXXXXX.",
"                ..XXXXXXXXXXXXXXXXXXXXXXXXXXXXXXXXXXXXXXXXXXXX....XXXXXXXXXXXX..XXXXXXXXXXXXXXXXXXXXXXXXXXXXXXXX",
"                ..XXXXXXXXXXXXXXXXXXXXXXXXXXXXXXXXXXXXXXXXXXXX....XXXXXXXXXXXX..XXXXXXXXXXXXXXXXXXXXXXXXXXXXXXXX",
"                ..XXXXXXXXXXXXXXXXXXXXXXXXXXXXXXXXXXXXXXXXXXXX....XXXXXXXXXXXX..XXXXXXXXXXXXXXXXXXXXXXXXXXXXXXXX",
"                ..XXXXXXXXXXXXXXXXXXXXXXXXXXXXXXXXXXXXXXXXXXXX....XXXXXXXXXXXX..XXXXXXXXXXXXXXXXXXXXXXXXXXXXXXXX",
"                ..XXXXXXXXXXXXXXXXXXXXXXXXXXXXXXXXXXXXXXXXXXXX....XXXXXXXXXXXX..XXXXXXXXXXXXXXXXXXXXXXXXXXXXXXXX",
"                ..XXXXXXXXXXXXXXXXXXXXXXXXXXXXXXXXXXXXXXXXXXXX....XXXXXXXXXXXX..XXXXXXXXXXXXXXXXXXXXXXXXXXXXXXXX",
"                ..XXXXXXXXXXXXXXXXXXXXXXXXXXXXXXXXXXXXXXXXXXXX....XXXXXXXXXXXX..XXXXXXXXXXXXXXXXXXXXXXXXXXXXXXXX",
"                ..XXXXXXXXXXXXXXXXXXXXXXXXXXXXXXXXXXXXXXXXXXXX....XXXXXXXXXXXX..XXXXXXXXXXXXXXXXXXXXXXXXXXXXXXXX",
"                ..XXXXXXXXXXXXXXXXXXXXXXXXXXXXXXXXXXXXXXXXXXXX....XXXXXXXXXXXX..XXXXXXXXXXXXXXXXXXXXXXXXXXXXXXXX",
"                ..XXXXXXXXXXXXXXXXXXXXXXXXXXXXXXXXXXXXXXXXXXXX....XXXXXXXXXXXX..XXXXXXXXXXXXXXXXXXXXXXXXXXXXXXXX",
"                ..XXXXXXXXXXXXXXXXXXXXXXXXXXXXXXXXXXXXXXXXXXXX....XXXXXXXXXXXX..XXXXXXXXXXXXXXXXXXXXXXXXXXXXXXXX",
"                ..XXXXXXXXXXXXXXXXXXXXXXXXXXXXXXXXXXXXXXXXXXXX....XXXXXXXXXXXX..XXXXXXXXXXXXXXXXXXXXXXXXXXXXXXXX",
"                ..XXXXXXXXXXXXXXXXXXXXXXXXXXXXXXXXXXXXXXXXXXXX....XXXXXXXXXXXX...XXXXXXXXXXXXXXXXXXXXXXXXXXXXXXX",
"                ..XXXXXXXXXXXXXXXXXXXXXXXXXXXXXXXXXXXXXXXXXXXX....XXXXXXXXXXXX....XXXXXXXXXXXXXXXXXXXXXXXXXXXXXX",
"                ..XXXXXXXXXXXXXXXXXXXXXXXXXXXXXXXXXXXXXXXXXXXX....XXXXXXXXXXXX..XXXXXXXXXXXXXX..XXXXXXXXXXXXXXXX",
"                ..XXXXXXXXXXXXXXXXXXXXXXXXXXXXXXXXXXXXXXXXXXXX....XXXXXXXXXXXX..XXXXXXXXXXXXXXX.XXXXXXXXXXXXXXXX",
"                ..XXXXXXXXXXXXXXXXXXXXXXXXXXXXXXXXXXXXXXXXXXXX....XXXXXXXXXXXX..XXXXXXXXXXXXXXXXXXXXXXXXXXXXXXXX",
"                ..XXXXXXXXXXXXXXXXXXXXXXXXXXXXXXXXXXXXXXXXXXXX....XXXXXXXXXXXX..XXXXXXXXXXXXXXXXXXXXXXXXXXXXXXXX",
"                ..XXXXXXXXXXXXXXXXXXXXXXXXXXXXXXXXXXXXXXXXXXXX....XXXXXXXXXXXX..XXXXXXXXXXXXXXXXXXXXXXXXXXXXXXXX",
"                ..XXXXXXXXXXXXXXXXXXXXXXXXXXXXXXXXXXXXXXXXXXXX....XXXXXXXXXXXX..XXXXXXXXXXXXXXXXXXXXXXXXXXXXXXXX",
"                ..XXXXXXXXXXXXXXXXXXXXXXXXXXXXXXXXXXXXXXXXXXXX....XXXXXXXXXXXX..XXXXXXXXXXXXXXXXXXXXXXXXXXXXXXXX",
"                ..XXXXXXXXXXXXXXXXXXXXXXXXXXXXXXXXXXXXXXXXXXXX....XXXXXXXXXXXX..XXXXXXXXXXXXXXXXXXXXXXXXXXXXXXXX",
"                ..XXXXXXXXXXXXXXXXXXXXXXXXXXXXXXXXXXXXXXXXXXXX....XXXXXXXXXXXX..XXXXXXXXXXXXXXXXXXXXXXXXXXXXXXXX",
"                ..XXXXXXXXXXXXXXXXXXXXXXXXXXXXXXXXXXXXXXXXXXXX....XXXXXXXXXXXX..XXXXXXXXXXXXXXXXXXXXXXXXXXXXXXXX",
"                ..XXXXXXXXXXXXXXXXXXXXXXXXXXXXXXXXXXXXXXXXXXXX....XXXXXXXXXXXX..XXXXXXXXXXXXXXXXXXXXXXXXXXXXXXXX",
"                ..XXXXXXXXXXXXXXXXXXXXXXXXXXXXXXXXXXXXXXXXXXXX....XXXXXXXXXXXX..XXXXXXXXXXXXXXXXXXXXXXXXXXXXXXXX",
"                ...XXXXXXXXXXXXXXXXXXXXXXXXXXXXXXXXXXXXXXXXXX......XXXXXXXXXX...XXXXXXXXXXXXXXXXXXXXXXXXXXXXXXXX",
"                ....XXXXXXXXXXXXXXXXXXXXXXXXXXXXXXXXXXXXXXXX........XXXXXXXX....XXXXXXXXXXXXXXXXXXXXXXXXXXXXXXXX",
"                ................................................................XXXXXXXXXXXXXXX..XXXXXXXXXXXXXX.",
"                ................................................................XXXXXXXXXXXXXX....XXXXXXXXXXXX.."
};
