/* XPM */
static char *_7f91dc0fb914fbae7546dd1fe468643shlL2IiZGVb32DLU[] = {
/* columns rows colors chars-per-pixel */
"96 64 7 1 ",
"  c None",
". c #1F2328",
"X c #3D434A",
"o c #535B63",
"O c #7B8288",
"+ c #9DA2A7",
"@ c #DDE5EE",
/* pixels */
"  @@@@@@@@@O@@@@@@@O@@@@@@@O@@@@@@@O@@@@@@@@@@    @@@@@@@@@@@@  XXXXXXXXXXXXXXXXXXXXXXXXXXXXXXXX",
" @+++++++++O+++++++O+++++++O+++++++O++++++++++@  @++++++++++++@ XXXXXXXXXXXXXXXXXXXXXXXXXXXXXXXX",
"@++++++++++O+++++++O+++++++O+++++++O+++++++++++@@++++++++++++++@XXXXXXXXXXXXXXXXXXXXXXXXXXXXXXXX",
"+++++++++++OOOOOOOOOOOOOOOOOOOOOOOOO+++++++++++@+++++++++++++++@XXXXXXXXXXXXXXXXXXXXXXXXXXXXXXXX",
"+++++++++++O+++++++O+++++++O+++++++O+++++++++++@+++++++++++++++@XXXXXXXXXXX++++++++++XXXXXXXXXXX",
"X++++++++++O+++++++O+++++++O+++++++O++++++++++@OX+++++++++++++@OXXXXXXXXXXX++++++++++XXXXXXXXXXX",
"XX+@@@@@@@@O@@@@@@@O@@@@@@@O@@@@@@@O@@@@@@@@@@OOXX+@@@@@@@@@@@OOXXXXXXXXXXX++++@@++++XXXXXXXXXXX",
".XXooooooooXoooooooXoooooooXoooooooXoooooooooOOo.XXooooooooooOOoXXXXXXXXXXXXOOOOXXOOXXXXXXXXXXXX",
"X.XooooooooXoooooooXoooooooXoooooooXoooooooooOoOX.XooooooooooOoOXXXXXXXXXXX++++@X++++XXXXXXXXXXX",
"XX.XXXXXXXXXXXXXXXXXXXXXXXXXXXXXXXXXXXXXXXXXXoOOXX.XXXXXXXXXXoOOXXXXXXXXXXX++++@X++++XXXXXXXXXXX",
".XXooooXoooooooXoooooooXoooooooXoooooooXoooooOOo.XXooooXoooooOOoXXXXXXXXXXX++++@X++++XXXXXXXXXXX",
"X.XooooXoooooooXoooooooXoooooooXoooooooXoooooOoOX.XooooXoooooOoOXXXXXXXXXXX++++@X++++XXXXXXXXXXX",
"XX.XXXXXXXXXXXXXXXXXXXXXXXXXXXXXXXXXXXXXXXXXXoOOXX.XXXXXXXXXXoOOXXXXXXXXXXX++++@X++++XXXXXXXXXXX",
".XXoXooooooXoooooooXoooooooXoooooooXoooooooXoOOo.XXooooooooXoOOoXXXXXXXXXXX++++@X++++XXXXXXXXXXX",
" .XoXooooooXoooooooXoooooooXoooooooXoooooooXoOo  .XooooooooXoOo XXXXXXXXXXX++++@X++++XXXXXXXXXXX",
"  .XXXXXXXXXXXXXXXXXXXXXXXXXXXXXXXXXXXXXXXXXXo    .XXXXXXXXXXo  XXXXXXXXXXXXOOOOXXOOXXXXXXXXXXXX",
"  @@@@@@@@@O@@@@@@@O@@@@@@@O@@@@@@@O@@@@@@@@@@    @@@@@@@@@@@@  XXXXXXXXXXX++++@@++++XXXXXXXXXXX",
" @+++++++++O+++++++O+++++++O+++++++O++++++++++@  @++++++++++++@ XXXXXXXXXXX++++++++++XXXXXXXXXXX",
"@++++++++++X+++++++X+++++++X+++++++X+++++++++++@@++++++++++++++@XXXXXXXXXXX++++++++++XXXXXXXXXXX",
"X++++XXXXXXXXXXXXXXXXXXXXXXXXXXXXXXXXXXXXXX++++@X++++OOOOOO++++@XXXXXXXXXXXXXXXXXXXXXXXXXXXXXXXX",
"X++++XXXXXXXXXXXXXXXXXXXXXXXXXXXXXXXXXXXXXX++++@X++++OOOOOO++++@XXXXXXXXXXXXXXXXXXXXXXXXXXXXXXXX",
"X++++XXXXXXXXXXXXXXXXXXXXXXXXXXXXXXXXXXXXXX++++@X++++OOOOOO++++@XXXXXXXXXXXXXXXXXXXXXXXXXXXXXXXX",
"X++++XXXXXXXXXXXXXXXXXXXXXXXXXXXXXXXXXXXXXX++++@X++++OOOOOO++++@XXXXXXXXXXXXXXXXXXXXXXXXXXXXXXXX",
"XXOOXXXXXXXXXXXXXXXXXXXXXXXXXXXXXXXXXXXXXXXXOOOOXXOOOOOOOOOOOOOOXXXXXXXXXXXXXXXXXXXXXXXXXXXXXXXX",
"X++++XXXXXXXXXXXXXXXXXXXXXXXXXXXXXXXXXXXXXX++++@X++++OOOOOO++++@XXXXXXXXXXXXXXXXXXXXXXXXXXXXXXXX",
"X++++XXXXXXXXXXXXXXXXXXXXXXXXXXXXXXXXXXXXXX++++@X++++OOOOOO++++@XXXXXXXXXXXXXXXXXXXXXXXXXXXXXXXX",
"X++++XXXXXXXXXXXXXXXXXXXXXXXXXXXXXXXXXXXXXX++++@X++++OOOOOO++++@XXXXXXXXXXXXXXXXXXXXXXXXXXXXXXXX",
"X++++XXXXXXXXXXXXXXXXXXXXXXXXXXXXXXXXXXXXXX++++@X++++OOOOOO++++@XXXXXXXXXXXXXXXXXXXXXXXXXXXXXXXX",
"X++++XXXXXXXXXXXXXXXXXXXXXXXXXXXXXXXXXXXXXX++++@X++++OOOOOO++++@XXXXXXXXXXXXXXXXXXXXXXXXXXXXXXXX",
"X++++XXXXXXXXXXXXXXXXXXXXXXXXXXXXXXXXXXXXXX++++@X++++OOOOOO++++@XXXXXXXXXXXXXXXXXXXXXXXXXXXXXXXX",
"X++++XXXXXXXXXXXXXXXXXXXXXXXXXXXXXXXXXXXXXX++++@X++++OOOOOO++++@XXXXXXXXXXXXXXXXXXXXXXXXXXXXXXXX",
"XXOOXXXXXXXXXXXXXXXXXXXXXXXXXXXXXXXXXXXXXXXXOOOOXXOOOOOOOOOOOOOOXXXXXXXXXXXXXXXXXXXXXXXXXXXXXXXX",
"X++++XXXXXXXXXXXXXXXXXXXXXXXXXXXXXXXXXXXXXX++++@X++++OOOOOO++++@@++++XXXXXXXXXXX@++++OOOOOO++++@",
"X++++XXXXXXXXXXXXXXXXXXXXXXXXXXXXXXXXXXXXXX++++@X++++OOOOOO++++@+++++XXXXXXXXXXX+++++OOOOOO+++++",
"X++++XXXXXXXXXXXXXXXXXXXXXXXXXXXXXXXXXXXXXX++++@X++++OOOOOO++++@+++++XXXXXXXXXXX+++++XXXXXX+++++",
"X++++XXXXXXXXXXXXXXXXXXXXXXXXXXXXXXXXXXXXXX++++@X++++OOOOOO++++@OOOOXXXXXXXXXXXXXXXXXXXXXXXXXXXX",
"X++++XXXXXXXXXXXXXXXXXXXXXXXXXXXXXXXXXXXXXX++++@X++++OOOOOO++++@+++++XXXXXXXXXXXXXXXXXXXXXXXXXXX",
"X++++XXXXXXXXXXXXXXXXXXXXXXXXXXXXXXXXXXXXXX++++@X++++OOOOOO++++@+++++XXXXXXXXXXXXXXXXXXXXXXXXXXX",
"X++++XXXXXXXXXXXXXXXXXXXXXXXXXXXXXXXXXXXXXX++++@X++++OOOOOO++++@@++++XXXXXXXXXXXXXXXXXXXXXXXXXXX",
"XXOOXXXXXXXXXXXXXXXXXXXXXXXXXXXXXXXXXXXXXXXXOOOOXXOOOOOOOOOOOOOOXXOOXXXXXXXXXXXXXXXXXXXXXXXXXXXX",
"X++++XXXXXXXXXXXXXXXXXXXXXXXXXXXXXXXXXXXXXX++++@X++++OOOOOO++++@X++++XXXXXXXXXXXXXXXXXXXXXXXXXXX",
"X++++XXXXXXXXXXXXXXXXXXXXXXXXXXXXXXXXXXXXXX++++@X++++OOOOOO++++@X++++XXXXXXXXXXXXXXXXXXXXXXXXXXX",
"X++++XXXXXXXXXXXXXXXXXXXXXXXXXXXXXXXXXXXXXX++++@X++++OOOOOO++++@X++++XXXXXXXXXXXXXXXXXXXXXXXXXXX",
"X++++XXXXXXXXXXXXXXXXXXXXXXXXXXXXXXXXXXXXXX++++@X++++OOOOOO++++@X++++XXXXXXXXXXXXXXXXXXXXXXXXXXX",
"X++++XXXXXXXXXXXXXXXXXXXXXXXXXXXXXXXXXXXXXX++++@X++++OOOOOO++++@X++++XXXXXXXXXXXXXXXXXXXXXXXXXXX",
"X++++XXXXXXXXXXXXXXXXXXXXXXXXXXXXXXXXXXXXXX++++@X++++OOOOOO++++@X++++XXXXXXXXXXXXXXXXXXXXXXXXXXX",
"X++++XXXXXXXXXXXXXXXXXXXXXXXXXXXXXXXXXXXXXX++++@X++++OOOOOO++++@X++++XXXXXXXXXXXXXXXXXXXXXXXXXXX",
"XXOOXXXXXXXXXXXXXXXXXXXXXXXXXXXXXXXXXXXXXXXXOOOOXXOOOOOOOOOOOOOOXXOOXXXXXXXXXXXXXXXXXXXXXXXXXXXX",
"X++++XXXXXXXXXXXXXXXXXXXXXXXXXXXXXXXXXXXXXX++++@X++++OOOOOO++++@XXXXXXXXXXX++++@XXXXXXXXXXXXXXXX",
"X++++XXXXXXXXXXXXXXXXXXXXXXXXXXXXXXXXXXXXXX++++@X++++OOOOOO++++@XXXXXXXXXXX+++++XXXXXXXXXXXXXXXX",
"X++++XXXXXXXXXXXXXXXXXXXXXXXXXXXXXXXXXXXXXX++++@X++++OOOOOO++++@XXXXXXXXXXX+++++XXXXXXXXXXXXXXXX",
"X++++XXXXXXXXXXXXXXXXXXXXXXXXXXXXXXXXXXXXXX++++@X++++OOOOOO++++@XXXXXXXXXXXXOOOOXXXXXXXXXXXXXXXX",
"X++++++++++X+++++++X+++++++X+++++++X+++++++++++@X++++++++++++++@XXXXXXXXXXX++++++++++XXXXXX+++++",
"XX+++++++++O+++++++O+++++++O+++++++O++++++++++@OXX++++++++++++@OXXXXXXXXXXX++++++++++OOOOOO+++++",
"XXX@@@@@@@@O@@@@@@@O@@@@@@@O@@@@@@@O@@@@@@@@@@OOXXX@@@@@@@@@@@OOXXXXXXXXXXX++++@@++++OOOOOO++++@",
".XXooooooooXoooooooXoooooooXoooooooXoooooooooOOo.XXooooooooooOOoXXXXXXXXXXXXOOOOX++++OOOOOO++++@",
"X.XooooooooXoooooooXoooooooXoooooooXoooooooooOoOX.XooooooooooOoOXXXXXXXXXXX++++@X++++OOOOOO++++@",
"XX.XXXXXXXXXXXXXXXXXXXXXXXXXXXXXXXXXXXXXXXXXXoOOXX.XXXXXXXXXXoOOXXXXXXXXXXX++++@X++++OOOOOO++++@",
".XXooooXoooooooXoooooooXoooooooXoooooooXoooooOOo.XXoooooXooooOOoXXXXXXXXXXX++++@X++++OOOOOO++++@",
"X.XooooXoooooooXoooooooXoooooooXoooooooXoooooOoOX.XoooooXooooOoOXXXXXXXXXXX++++@X++++OOOOOO++++@",
"XX.XXXXXXXXXXXXXXXXXXXXXXXXXXXXXXXXXXXXXXXXXXoOOXX.XXXXXXXXXXoOOXXXXXXXXXXX++++@X++++OOOOOO++++@",
".XXooooooooXoooooooXoooooooXoooooooXoooooooXoOOo.XXooXoooooXoOOoXXXXXXXXXXX++++@X++++OOOOOO++++@",
" .XooooooooXoooooooXoooooooXoooooooXoooooooXoOo  .XooXoooooXoOo XXXXXXXXXXX++++@X++++OOOOOO++++@",
"  .XXXXXXXXXXXXXXXXXXXXXXXXXXXXXXXXXXXXXXXXXXo    .XXXXXXXXXXo  XXXXXXXXXXXXOOOOXXOOOOOOOOOOOOOO"
};
