/* XPM */
static const char *_1zon_walk_left[] = {
/* columns rows colors chars-per-pixel */
"64 64 224 2 ",
"   c #060E1F",
".  c #0B111F",
"X  c #050E20",
"o  c #080F20",
"O  c #0D1423",
"+  c #091224",
"@  c #111523",
"#  c #151924",
"$  c #1A1B23",
"%  c #1B1D29",
"&  c #141C29",
"*  c #241E23",
"=  c #152426",
"-  c #1B2C27",
";  c #1B2632",
":  c #183628",
">  c #2C2425",
",  c #292628",
"<  c #352A25",
"1  c #3B2D25",
"2  c #3D2529",
"3  c #352825",
"4  c #233829",
"5  c #3E3026",
"6  c #3D332A",
"7  c #373029",
"8  c #212B35",
"9  c #222D39",
"0  c #372E34",
"q  c #2B333E",
"w  c #26313E",
"e  c #3E3B35",
"r  c #3A3335",
"t  c #201A1F",
"y  c #502F1F",
"u  c #63361D",
"i  c #68391F",
"p  c #442A24",
"a  c #41362B",
"s  c #45392C",
"d  c #4E3727",
"f  c #513021",
"g  c #5A3421",
"h  c #513A27",
"j  c #5C3C26",
"k  c #533F2A",
"l  c #583628",
"z  c #423E36",
"x  c #44363A",
"c  c #493C3C",
"v  c #483A38",
"b  c #543E35",
"n  c #512F2A",
"m  c #653922",
"M  c #6C3C22",
"N  c #633923",
"B  c #713E22",
"V  c #1E442A",
"C  c #21472B",
"Z  c #27552D",
"A  c #2A4D39",
"S  c #2C632F",
"D  c #37692D",
"F  c #3E7B31",
"G  c #3D7430",
"H  c #377230",
"J  c #5B442B",
"K  c #57432C",
"L  c #454037",
"P  c #484237",
"I  c #4B423D",
"U  c #5C4938",
"Y  c #455339",
"T  c #644C2E",
"R  c #7C4325",
"E  c #734C27",
"W  c #774628",
"Q  c #7D5329",
"!  c #7B5127",
"~  c #7C4E33",
"^  c #7C4D39",
"/  c #665235",
"(  c #704F38",
")  c #477934",
"_  c #2D3542",
"`  c #3A4C53",
"'  c #3B5350",
"]  c #51544A",
"[  c #625641",
"{  c #765C50",
"}  c #715148",
"|  c #547345",
" . c #6D6C4C",
".. c #495E66",
"X. c #505E67",
"o. c #54666C",
"O. c #64767B",
"+. c #667B7A",
"@. c #716F68",
"#. c #823D32",
"$. c #844829",
"%. c #8A4B2A",
"&. c #824627",
"*. c #815629",
"=. c #8F5B26",
"-. c #925D27",
";. c #925E29",
":. c #9D4735",
">. c #8C573B",
",. c #965B3A",
"<. c #A24836",
"1. c #A14635",
"2. c #966129",
"3. c #9A632A",
"4. c #9D682D",
"5. c #8E6935",
"6. c #876433",
"7. c #926B36",
"8. c #926D39",
"9. c #A36A2B",
"0. c #BD762B",
"q. c #B9742B",
"w. c #AB7C39",
"e. c #A87537",
"r. c #AA7037",
"t. c #D3563B",
"y. c #D7593C",
"u. c #C95D3F",
"i. c #C27A2C",
"p. c #C87E2D",
"a. c #916659",
"s. c #9B6C5B",
"d. c #947A55",
"f. c #9F7D48",
"g. c #A66944",
"h. c #A66542",
"j. c #A46F5A",
"k. c #AA7354",
"l. c #B76E4C",
"z. c #AC7F60",
"x. c #8F6A52",
"c. c #DD7251",
"v. c #DB6F4E",
"b. c #448232",
"n. c #42812F",
"m. c #55884B",
"M. c #708C4A",
"N. c #738677",
"B. c #B4823B",
"V. c #B9843B",
"C. c #B78137",
"Z. c #AF803B",
"A. c #C9812F",
"S. c #C58131",
"D. c #CD8532",
"F. c #CF8C3B",
"G. c #C88939",
"H. c #D28F3B",
"J. c #D18731",
"K. c #D5923D",
"L. c #DC9A3E",
"P. c #DA973C",
"I. c #CD903B",
"U. c #E29C3D",
"Y. c #9C8454",
"T. c #968053",
"R. c #AF8544",
"E. c #BC8C44",
"W. c #B08543",
"Q. c #B39356",
"!. c #B59A5F",
"~. c #B89556",
"^. c #AB8A51",
"/. c #BA8567",
"(. c #B49960",
"). c #BA9D60",
"_. c #AB8C67",
"`. c #DE9E41",
"'. c #D49740",
"]. c #D19F53",
"[. c #E09F41",
"{. c #DFA043",
"}. c #D7A758",
"|. c #E3A142",
" X c #E1A64C",
".X c #E5AA4D",
"XX c #E9AC4D",
"oX c #E8A644",
"OX c #E5AE56",
"+X c #E7B45D",
"@X c #C2846D",
"#X c #C78C6A",
"$X c #DA926C",
"%X c #C79775",
"&X c #D49876",
"*X c #C9906E",
"=X c #E2966E",
"-X c #D4A37D",
";X c #D9A07C",
":X c #CFAA73",
">X c #E6B662",
",X c #E6BA66",
"<X c #E9BB66",
"1X c #EABA65",
"2X c #E4A77A",
"3X c #E9A87C",
"4X c #F5A97C",
"5X c #739081",
"6X c #969B88",
"7X c #879C9B",
"8X c #D6A984",
"9X c #FBAA85",
"0X c #F5AA84",
"qX c #FFB38B",
"wX c #FEBD8E",
"eX c #F2B98B",
"rX c #FFBE91",
"tX c #FFC492",
"yX c #FFC99A",
"uX c #D2C3BA",
"iX c #F9CCA4",
"pX c #FFE7D1",
"aX c None",
"sX c black",
/* pixels */
"aXaXaXaXaXaXaXaXaXaXaXaXaXaXaXaXaXaXaXaXaXaXaXaXaXaXaXaXaXaXaXaXaXaXaXaXaXaXaXaXaXaXaXaXaXaXaXaXaXaXaXaXaXaXaXaXaXaXaXaXaXaXaXaX",
"aXaXaXaXaXaXaXaXaXaXaXaXaXaXaXaXaXaXaXaXaXaXaXaXaXaXaXaXaXaXaXaXaXaXaXaXaXaXaXaXaXaXaXaXaXaXaXaXaXaXaXaXaXaXaXaXaXaXaXaXaXaXaXaX",
"aXaXaXaXaXaXaXaXaXaXaXaXaXaXaXaXaXaXaXaXaXaXaXaXaXaXO O O O O O O O O O O O O O O O aXaXaXaXaXaXaXaXaXaXaXaXaXaXaXaXaXaXaXaXaXaX",
"aXaXaXaXaXaXaXaXaXaXaXaXaXaXaXaXaXaXaXaXaXaXaXaXaXaXz P P P L P P L s s s s s s s a aXaXaXaXaXaXaXaXaXaXaXaXaXaXaXaXaXaXaXaXaXaX",
"aXaXaXaXaXaXaXaXaXaXaXaXaXaXaXaXaXaXaXaXaXaXO o   e T.).!.!.!.!.).Q.W.w.w.w.w.B.B.7.6 O O O aXaXaXaXaXaXaXaXaXaXaXaXaXaXaXaXaXaX",
"aXaXaXaXaXaXaXaXaXaXaXaXaXaXaXaXaXaXaXaXaXaXz L L [ Y.).).!.!.!.(.Q.W.w.w.w.w.B.B.7.J 1 1 1 aXaXaXaXaXaXaXaXaXaXaXaXaXaXaXaXaXaX",
"aXaXaXaXaXaXaXaXaXaX@ @ O O aXaXaXaXaXaX  e d.).).Y.[ z z z z z L z s a a a a a 6 K *.3.3.! < + aXaXaXaXaXaXaXaXaXaXaXaXaXaXaXaX",
"aXaXaXaXaXaXaXaXaXaX@ % 7 a aXaXaXaXaXaXe [ Y.).).T.U 5 6 6 6 6 6 6 6 6 6 6 6 6 6 k *.3.3.*.h < aXaXaXaXaXaXaXaXaXaXaXaXaXaXaXaX",
"aXaXaXaXaXaXaXaXaXaXO 7 6.5.6 X aXaXX e T.Y.[ z z U 8.w.w.w.w.e.w.w.w.w.w.w.w.w.w.5.k < < h *.Q < + aXaXaXaXaXaXaXaXaXaXaXaXaXaX",
"aXaXaXaXaXaXaXaXaXaXO a w.C./ 7 aXaX7 / Y.Y.U 7 1 / E.XXXX.X.X.X.X.X.X.X|.|.|.|.oXV./ 7 < h *.*.h < aXaXaXaXaXaXaXaXaXaXaXaXaXaX",
"aXaXaXaXaXaXaXaXaXaXO 5 4.S.C.5.7 6 5.8./ U 8.w.e.E.}.<X<X<X<X<X<X<X<X+X X[.[.|.|.'.V.e.4.Q h h Q ! 1 O aXaXaXaXaXaXaXaXaXaXaXaX",
"aXaXaXaXaXaXaXaXaXaXO 1 ;.A.P.e.6 a B.B.6 7 w.oXXXOX>X,X,X,X,X,X,X,X,X+X X`.`.`.`.|.|.L.D.;.< < 3.3.1 O aXaXaXaXaXaXaXaXaXaXaXaX",
"aXaXaXaXaXaXaXaXaXaXO 1 ;.p.J.4.< a B.B.6 7 w.XX+X>XOX X X X X X X X X X{.`.`.`.`.`.|.L.D.;.< < 3.3.1 O aXaXaXaXaXaXaXaXaXaXaXaX",
"aXaXaXaXaXaXaXaXaXaXO 1 ;.q.9.Q k J 8.8.J / E.OX>X+X XL.L.`.`.`.`.`.`.`.`.`.`.`.`.`.P.H.A.4.j d Q *.h < aXaXaXaXaXaXaXaXaXaXaXaX",
"aXaXaXaXaXaXaXaXaXaXO 1 2.9.j K 7.8.J J 7.E.}.>XOX X{.`.`.`.`.`.`.`.`.`.`.`.`.`.`.P.D.p.i.q.9.Q d h *.Q 1 O aXaXaXaXaXaXaXaXaXaX",
"aXaXaXaXaXaXaXaXaXaXO 1 3.2.< a B.B.a 6 w.XX<X,X XL.`.`.`.`.`.`.`.`.`.`.`.`.`.`.`.K.p.0.0.i.i.;.< 1 3.3.1 O aXaXaXaXaXaXaXaXaXaX",
"aXaXaXaXaXaXaXaXaXaXO 5 3.3.1 a B.B.a 6 w.XX<X,X XL.`.`.`.`.`.`.`.`.`.`.`.`.`.`.`.K.S.0.0.i.i.;.< 1 2.3.5 O aXaXaXaXaXaXaXaXaXaX",
"aXaXaXaXaXaXaXaXaXaXO 1 ! E > < 6.6.< < 6.E.}.+X.X|.|.|.|.[.`.`.`.`.`.`.`.`.`.`.`.K.S.0.0.i.i.;.1 1 2.2.1 O aXaXaXaXaXaXaXaXaXaX",
"aXaXaXaXaXaXaXaXaXaXaXaX< > # $ < < $ # , / E.XXoX|.|.|.|.|.`.`.`.`.`.`.`.`.`.`.{.K.S.0.0.i.i.;.1 1 2.2.1 O aXaXaXaXaXaXaXaXaXaX",
"aXaXaXaXaXaXaXaXaXaXaXaXe L L L z z L z 6 J 5.w.w.w.w.w.w.V.K.|.|.|.|.|.`.`.`.`.P.H.p.0.0.i.i.;.1 1 2.2.1 O aXaXaXaXaXaXaXaXaXaX",
"aXaXaXaXaXaXaXaXaXaXO z d.(.(.!.!.(.(.Q.R.7.J 6 6 6 6 6 7 T V.oX|.|.|.|.`.`.{.P.D.i.0.0.0.i.i.;.< 1 2.2.1 O aXaXaXaXaXaXaXaXaXaX",
"aXaXaXaXaXaXaXaXaXaXO z ^.1X>X>X>X>X>XOX|.C./ e e z z e 6 J 7.w.w.w.w.B.F.P.P.H.p.0.0.0.0.i.i.;.< 1 2.2.1 O aXaXaXaXaXaXaXaXaXaX",
"aXaXaXaXaXaXaXaXaXaXO 6 e.K.H.F.F.F.F.F.D.G.~.(.(.(.(.Q.R.7.J 7 6 6 7 T 9.D.D.A.i.i.0.0.0.i.i.;.< 1 2.2.1 O aXaXaXaXaXaXaXaXaXaX",
"aXaXaXaXaXaXaXaXaXaXO < ! ;.;.;.;.;.-.=.=.e.].>X>X>X>XOX|.C./ e e z 6 k Q -.;.;.;.4.q.i.i.i.i.;.< 1 2.2.1 O aXaXaXaXaXaXaXaXaXaX",
"aXaXaXaXaXaXaXaXaXaXaXaX< 1 1 1 1 1 < 3 3 J e.K.H.F.F.F.D.G.~.(.(.Q.R.5.k 3 < < < j 9.i.i.i.i.;.1 1 2.2.1 O aXaXaXaXaXaXaXaXaXaX",
"aXaXaXaXaXaXaXaXaXaXaXaXO O O O O % 0 x x U *.;.;.-.-.=.=.e.].>X>XOX|.C./ e z z 6 k Q ;.;.4.q.2.1 1 2.2.1 O aXaXaXaXaXaXaXaXaXaX",
"aXaXaXaXaXaXaXaXaXaXaXaXaXaXaXaXO 0 a.@X@Xj.U < 1 1 < 3 3 J e.K.H.F.D.G.~.(.(.Q.R.5.k 3 < j 9.3.1 1 2.2.1 O aXaXaXaXaXaXaXaXaXaX",
"aXaXaXaXaXaXaXaXaXaXaXaXaXaXaXaXO c @X0X&Xa.0 X X % 0 x x b Q -.-.-.-.e.}.>X>XOX|.C./ e 6 K *.E > 1 3.3.5 O aXaXaXaXaXaXaXaXaXaX",
"aXaXaXaXaXaXaXaXaXaXaXaXaXaXO O X c %X;X{ 0 # X   0 a.@X@Xs.b 3 < < < J e.K.H.F.D.G.~.Q.R.7.k > @ 1 3.3.5 O aXaXaXaXaXaXaXaXaXaX",
"aXaXaXaXaXaXaXaXaXaXaXaXaXaX2 2 2 } &X-X{ x c I c { &XqXqX&X} 0 , * * 1 E -.-.-.-.e.}.OXoXC.T 6 6 J *.E > O aXaXaXaXaXaXaXaXaXaX",
"aXaXaXaXaXaXaXaXaXaXaXaXO 2 #.1.1.l.3XeX-X%X%X%X%X-XeXwXwX0X*Xj.^ N g f 1 < < < < J e.H.J.S.w.w.Z.7.K > # O aXaXaXaXaXaXaXaXaXaX",
"aXaXaXaXaXaXaXaXaXaXaXaXO p <.y.t.c.4XyXiXiX8X-XeXtXtXtXtXwXqX=Xh.&.M j v x x 0 % > E ;.;.9.G.U.U.B.T 6 a a aXaXaXaXaXaXaXaXaXaX",
"aXaXaXaXaXaXaXaXaXaXaXaXO 2 <.y.t.c.4XiXpXuX@.{ -XtXtXtXtXtXtX2Xg.R i ~ j.@X@Xa.0 # > 1 < J 9.J.J.S.w.w.B.5.6 O aXaXaXaXaXaXaXaX",
"aXaXaXaXaXaXaXaXaXaXaXaXO 2 :.t.t.c.4XiXuX7X_ x %XtXtXtXtXtXtX2Xg.R i >.$XqXqX*Xc @ $ * * 1 ! ;.;.9.F.U.U.e.a O aXaXaXaXaXaXaXaX",
"aXaXaXaXaXaXaXaXaXaXaXaXO 2 :.t.t.c.4X8X@._ & x %XtXtXtXtXtXtX2Xg.R i >.&XtXtX%Xc $ 3 f f f 1 < < J r.J.J.4.5 O aXaXaXaXaXaXaXaX",
"aXaXaXaXaXaXaXaXaXaXaXaXO 2 <.y.t.v.=X/.b > r { -XtXtXwX3X2X2X#X,.B i ~ z.%X%Xd.v 3 g B M g 3 $ O > E 2.2.! < O aXaXaXaXaXaXaXaX",
"aXaXaXaXaXaXaXaXaXaXaXaXO p <.y.y.u.h.,.W ^ /.8XeXtXtX0Xz.h.g.,.W M M j v c c v d g W R M N g p $ $ > 1 1 < aXaXaXaXaXaXaXaXaXaX",
"aXaXaXaXaXaXaXaXaXaXaXaXO 2 #.<.1.:.%.$.%.,.$X3X2X2X2X#X,.R R R M i u j v x x v N W $.&.B N g p * O O O O O aXaXaXaXaXaXaXaXaXaX",
"aXaXaXaXaXaXaXaXaXaXaXaXaXaX2 2 2 n W %.%.>.,.g.g.g.g.,.W M M M m u u ~ _.%X/.k.>.&.$.&.B g 3 * aXaXaXaXaXaXaXaXaXaXaXaXaXaXaXaX",
"aXaXaXaXaXaXaXaXaXaXaXaXaXaXO O O > l W R &.&.R R R R R M i i i u M ~ k.2XwXqX$Xh.%.%.R N p * O aXaXaXaXaXaXaXaXaXaXaXaXaXaXaXaX",
"aXaXaXaXaXaXaXaXaXaXaXaXaXaXaXaXaXaX> 1 N B B M M M M M i i i u u ~ /.2X0X9X9X$Xh.%.%.W 1 * aXaXaXaXaXaXaXaXaXaXaXaXaXaXaXaXaXaX",
"aXaXaXaXaXaXaXaXaXaXaXaXaXaXaXaXaXaXO * p f f f f f f f f y y j ~ k.2XwX9X9X9X$X>.m M l > O aXaXaXaXaXaXaXaXaXaXaXaXaXaXaXaXaXaX",
"aXaXaXaXaXaXaXaXaXaXaXaXaXaXaXaXaXaXaXaX* * * * * * * * > * * b /.3X9X9X9X9X9X#XU > > > aXaXaXaXaXaXaXaXaXaXaXaXaXaXaXaXaXaXaXaX",
"aXaXaXaXaXaXaXaXaXaXaXaXaXaXaXaXaXaXaXaXO O O O @ @ O O O & 9 ] _.:X:X%X*X#X@Xs.x O O O aXaXaXaXaXaXaXaXaXaXaXaXaXaXaXaXaXaXaXaX",
"aXaXaXaXaXaXaXaXaXaXaXaXaXaXaXaXaXaXaXaXaXaXaXaXaXaXaXaX. 8 X.N.M.M.M.M.| ] I x aXaXaXaXaXaXaXaXaXaXaXaXaXaXaXaXaXaXaXaXaXaXaXaX",
"aXaXaXaXaXaXaXaXaXaXaXaXaXaXaXaXaXaXaXaXaXaXaXaXaXaXaXaXw ` +.N.m.n.n.F D Z : = aXaXaXaXaXaXaXaXaXaXaXaXaXaXaXaXaXaXaXaXaXaXaXaX",
"aXaXaXaXaXaXaXaXaXaXaXaXaXaXaXaXaXaXaXaXaXaXaXaXaXaX  w o.+.m.m.b.b.b.b.F D Z : = @ aXaXaXaXaXaXaXaXaXaXaXaXaXaXaXaXaXaXaXaXaXaX",
"aXaXaXaXaXaXaXaXaXaXaXaXaXaXaXaXaXaXaXaXaXaXaXaXaXaX5 ] N.5X| D ) b.) G D D Z C = @ aXaXaXaXaXaXaXaXaXaXaXaXaXaXaXaXaXaXaXaXaXaX",
"aXaXaXaXaXaXaXaXaXaXaXaXaXaXaXaXaXaXaXaXaXaXaXaXO a 5.^.6XN.` C D ) D Z 4 4 Z C = @ aXaXaXaXaXaXaXaXaXaXaXaXaXaXaXaXaXaXaXaXaXaX",
"aXaXaXaXaXaXaXaXaXaXaXaXaXaXaXaXaXaXaXaXaXaXaXaXO 6 f.%X6XO.q - D F S V = = C C = @ aXaXaXaXaXaXaXaXaXaXaXaXaXaXaXaXaXaXaXaXaXaX",
"aXaXaXaXaXaXaXaXaXaXaXaXaXaXaXaXaXaXaXaXaXaXaXaXO r @.6X7XO.q - D F S V = = V C = @ aXaXaXaXaXaXaXaXaXaXaXaXaXaXaXaXaXaXaXaXaXaX",
"aXaXaXaXaXaXaXaXaXaXaXaXaXaXaXaXaXaXaXaXaXaXaXaXO q O.7X7XO.q - D F S V = - A A - @ aXaXaXaXaXaXaXaXaXaXaXaXaXaXaXaXaXaXaXaXaXaX",
"aXaXaXaXaXaXaXaXaXaXaXaXaXaXaXaXaXaXaXaXaXaXaXaXO q O.7X7XO.q - D F S V = 8 ' ' 8 @ aXaXaXaXaXaXaXaXaXaXaXaXaXaXaXaXaXaXaXaXaXaX",
"aXaXaXaXaXaXaXaXaXaXaXaXaXaXaXaXaXaXaXaXaXaXaXaXO q O.7X7XO.q 4 ) M.| Y , 9 ....9 @ aXaXaXaXaXaXaXaXaXaXaXaXaXaXaXaXaXaXaXaXaXaX",
"aXaXaXaXaXaXaXaXaXaXaXaXaXaXaXaXaXaXaXaXaXaXaXaXO _ O.7X7XO.q e _.:X%Xs.r 9 ....9 @ aXaXaXaXaXaXaXaXaXaXaXaXaXaXaXaXaXaXaXaXaXaX",
"aXaXaXaXaXaXaXaXaXaXaXaXaXaXaXaXaXaXaXaXaXaXaXaXO q o.+.+.X.8 c %XrXqX@Xv ; ` ` 8 @ aXaXaXaXaXaXaXaXaXaXaXaXaXaXaXaXaXaXaXaXaXaX",
"aXaXaXaXaXaXaXaXaXaXaXaXaXaXaXaXaXaXaXaXaXaXaXaXaXaXq q _ 8 & c *XqXqX@Xv & ; 8 aXaXaXaXaXaXaXaXaXaXaXaXaXaXaXaXaXaXaXaXaXaXaXaX",
"aXaXaXaXaXaXaXaXaXaXaXaXaXaXaXaXaXaXaXaXaXaXaXaXaXaXO O O O O r a.@X@Xa.r O O @ aXaXaXaXaXaXaXaXaXaXaXaXaXaXaXaXaXaXaXaXaXaXaXaX",
"aXaXaXaXaXaXaXaXaXaXaXaXaXaXaXaXaXaXaXaXaXaXaXaXaXaXaXaXaXaX@ % 0 v v 0 % @ aXaXaXaXaXaXaXaXaXaXaXaXaXaXaXaXaXaXaXaXaXaXaXaXaXaX",
"aXaXaXaXaXaXaXaXaXaXaXaXaXaXaXaXaXaXaXaXaXaXaXaXaXaXaXaXaXaX@ & 9 w 9 ; & @ aXaXaXaXaXaXaXaXaXaXaXaXaXaXaXaXaXaXaXaXaXaXaXaXaXaX",
"aXaXaXaXaXaXaXaXaXaXaXaXaXaXaXaXaXaXaXaXaXaXaXaXaXaXaXaXaXaX@ 9 X.O.o.` ; @ aXaXaXaXaXaXaXaXaXaXaXaXaXaXaXaXaXaXaXaXaXaXaXaXaXaX",
"aXaXaXaXaXaXaXaXaXaXaXaXaXaXaXaXaXaXaXaXaXaXaXaXaXaXaXaXaXaXO q @.N.@.] 8 @ aXaXaXaXaXaXaXaXaXaXaXaXaXaXaXaXaXaXaXaXaXaXaXaXaXaX",
"aXaXaXaXaXaXaXaXaXaXaXaXaXaXaXaXaXaXaXaXaXaXaXaXaXaXaXaXaXaXO , ( >.( b , O aXaXaXaXaXaXaXaXaXaXaXaXaXaXaXaXaXaXaXaXaXaXaXaXaXaX",
"aXaXaXaXaXaXaXaXaXaXaXaXaXaXaXaXaXaXaXaXaXaXaXaXaXaXaXaXaXaXO > M &.B y * O aXaXaXaXaXaXaXaXaXaXaXaXaXaXaXaXaXaXaXaXaXaXaXaXaXaX"
};
