/* XPM */
static char *xpm_[] = {
/* columns rows colors chars-per-pixel */
"128 32 15 1 ",
"  c #121724",
". c #663920",
"X c #25562E",
"o c #577277",
"O c #884B2B",
"+ c #BE772B",
"@ c #CF573C",
"# c #468232",
"$ c #DE9E41",
"% c #E8C170",
"& c #819796",
"* c #F4A481",
"= c #FFC190",
"- c #F6F0F0",
"; c None",
/* pixels */
";;;;;;;;;;;;;;;;;;;;;;;;;;;;;;;;;;;;;;;;;;;;;;;;;;;;;;;;;;;;;;;;;;;;;;;;;;;        ;;;;;;;;;;;;;;;;;;;;;;;;        ;;;;;;;;;;;;;",
";;;;;;;;;;;        ;;;;;;;;;;;;;;;;;;;;;;;;        ;;;;;;;;;;;;;;;;;;;;;;  %%%%$$$$  ;;;;;;;;;;;;;;;;;;;;  %%%%$$$$  ;;;;;;;;;;;",
";;;;;;;;;  %%%%$$$$  ;;;;;;;;;;;;;;;;;;;;  %%%%$$$$  ;;;;;;;;;;;;;;;;;;; %%        $$ ;;;  ;;;;;;;;;;;;; %%        $$ ;;;  ;;;;;",
";;;;;;;; %%        $$ ;;;  ;;;;;;;;;;;;; %%        $$ ;;;  ;;;;;;;;;;;; %  $$$$$$++  $ ; $ ;;;;;;;;;;;; %  $$$$$$++  $ ; $ ;;;;;",
";;;;;;; %  $$$$$$++  $ ; $ ;;;;;;;;;;;; %  $$$$$$++  $ ; $ ;;;;;;;;;;; % $$%%%%%$$+++ $ $+ ;;;;;;;;;;; % $$%%%%%$$+++ $ $+ ;;;;;",
";;;;;; % $$%%%%%$$+++ $ $+ ;;;;;;;;;;; % $$%%%%%$$+++ $ $+ ;;;;;;;;;;; % $%$$$$$$$$++ + ++ ;;;;;;;;;;; % $%$$$$$$$$++ + ++ ;;;;;",
";;;;;; % $%$$$$$$$$++ + ++ ;;;;;;;;;;; % $%$$$$$$$$++ + ++ ;;;;;;;;;; % $%$$$$$$$$$+++ $ + ;;;;;;;;;; % $%$$$$$$$$$+++ $ + ;;;;;",
";;;;; % $%$$$$$$$$$+++ $ + ;;;;;;;;;; % $%$$$$$$$$$+++ $ + ;;;;;;;;;; % $%$$$$$$$$++++ + + ;;;;;;;;;; % $%$$$$$$$$++++ + + ;;;;;",
";;;;; % $%$$$$$$$$++++ + + ;;;;;;;;;; % $%$$$$$$$$++++ + + ;;;;;;;;;; % $%$$$$$$+++++     ;;;;;;;;;;; % $%$$$$$$+++++     ;;;;;;",
";;;;; % $%$$$$$$+++++     ;;;;;;;;;;; % $%$$$$$$+++++     ;;;;;;;;;;; % $%$$$$+++    %%%%$ ;;;;;;;;;; % $%$$$$+++    %%%%$ ;;;;;",
";;;;; % $%$$$$+++    %%%%$ ;;;;;;;;;; % $%$$$$+++    %%%%$ ;;;;;;;;;; $ $$$$++   %%%$+++++ ;;;;;;;;;; $ $$$$++   %%%$+++++ ;;;;;",
";;;;; $ $$$$++   %%%$+++++ ;;;;;;;;;; $ $$$$++   %%%$+++++ ;;;;;;;;;; % $$$   %%$++++     ;;;;;;;;;;; % $$$   %%$++++     ;;;;;;",
";;;;; % $$$   %%$++++     ;;;;;;;;;;; % $$$   %%$++++     ;;;;;;;;;;; $ $  %%$+++    ** ;;;;;;;;;;;;; $ $  %%$+++    ** ;;;;;;;;",
";;;;; $ $  %%$+++    ** ;;;;;;;;;;;;; $ $  %%$+++    ** ;;;;;;;;;;;;; $  %$+++   **   =  ;;;;;;;;;;;; $  %$+++   **   =  ;;;;;;;",
";;;;; $  %$+++   **   =  ;;;;;;;;;;;; $  %$+++   **   =  ;;;;;;;;;;;;  $$++   ..*======@@ ;;;;;;;;;;;  $$++   ..*======@@ ;;;;;;",
";;;;;  $$++   ..*======@@ ;;;;;;;;;;;  $$++   ..*======@@ ;;;;;;;;;; $$++   **OO==== -=@@ ;;;;;;;;;; $$++   **OO==== -=@@ ;;;;;;",
";;;; $$++   **OO==== -=@@ ;;;;;;;;;; $$++   **OO==== -=@@ ;;;;;;;;;; ++  .. ==OO====  =@@ ;;;;;;;;;; ++  .. ==OO====  =@@ ;;;;;;",
";;;; ++  .. ==OO====  =@@ ;;;;;;;;;; ++  .. ==OO====  =@@ ;;;;;;;;;;;   ..O.  .OOO===OO@@ ;;;;;;;;;;;   ..O.  .OOO===OO@@ ;;;;;;",
";;;;;   ..O.  .OOO===OO@@ ;;;;;;;;;;;   ..O.  .OOO===OO@@ ;;;;;;;;;;;;;; OO.**...OOOOO.  ;;;;;;;;;;;;;;; OO.**...OOOOO.  ;;;;;;;",
";;;;;;;; OO.**...OOOOO.  ;;;;;;;;;;;;;;; OO.**...OOOOO.  ;;;;;;;;;;;;;;;; O.==*....... ;;;;;;;;;;;;;;;;;; O.==*....... ;;;;;;;;;",
";;;;;;;;; O.==*....... ;;;;;;;;;;;;;;;;;; O.==*....... ;;;;;;;;;;;;;;;;;;;  ===*      ;;;;;;;;;;;;;;;;;;;;  ===*      ;;;;;;;;;;",
";;;;;;;;;;  ===*      ;;;;;;;;;;;;;;;;;;;;  ===*      ;;;;;;;;;;;;;;;;;;;;;; ##Xo ;;;;;;;;;;;;;;;;;;;;;;;;;; ##Xo ;;;;;;;;;;;;;;",
";;;;;;;;;;;; ##Xo ;;;;;;;;;;;;;;;;;;;;;;;;;; ##Xo ;;;;;;;;;;;;;;;;;;;;;;;;; ####Xo ;;;;;;;;;;;;;;;;;;;;;;;; ####Xo ;;;;;;;;;;;;;",
";;;;;;;;;;; ####Xo ;;;;;;;;;;;;;;;;;;;;;;;; # #X o ;;;;;;;;;;;;;;;;;;;;;;;; # #X &$ ;;;;;;;;;;;;;;;;;;;;;;; #####&$ ;;;;;;;;;;;;",
";;;;;;;;;;; # #X &$ ;;;;;;;;;;;;;;;;;;;;;;; # #X &$ ;;;;;;;;;;;;;;;;;;;;;;; # #X &o ;;;;;;;;;;;;;;;;;;;;;;; # #X &o ;;;;;;;;;;;;",
";;;;;;;;;;; # #X &o ;;;;;;;;;;;;;;;;;;;;;;; # #X &o ;;;;;;;;;;;;;;;;;;;;;;; & #X &o ;;;;;;;;;;;;;;;;;;;;;;; & #X &o ;;;;;;;;;;;;",
";;;;;;;;;;; & #X oo ;;;;;;;;;;;;;;;;;;;;;;; & =* oo ;;;;;;;;;;;;;;;;;;;;;;; & =* oo ;;;;;;;;;;;;;;;;;;;;;;; & #X oo ;;;;;;;;;;;;",
";;;;;;;;;;; & =* oo ;;;;;;;;;;;;;;;;;;;;;;; & ** oo ;;;;;;;;;;;;;;;;;;;;;;; & ** oo ;;;;;;;;;;;;;;;;;;;;;;; & =* oo ;;;;;;;;;;;;",
";;;;;;;;;;;;  **   ;;;;;;;;;;;;;;;;;;;;;;;;; &  o  ;;;;;;;;;;;;;;;;;;;;;;;;; &  o  ;;;;;;;;;;;;;;;;;;;;;;;;;  **   ;;;;;;;;;;;;;",
";;;;;;;;;;;;;    ;;;;;;;;;;;;;;;;;;;;;;;;;;;; &o ;;;;;;;;;;;;;;;;;;;;;;;;;;;; &o ;;;;;;;;;;;;;;;;;;;;;;;;;;;;    ;;;;;;;;;;;;;;;",
";;;;;;;;;;;;; &o ;;;;;;;;;;;;;;;;;;;;;;;;;;;; &o ;;;;;;;;;;;;;;;;;;;;;;;;;;;; &o ;;;;;;;;;;;;;;;;;;;;;;;;;;;; &o ;;;;;;;;;;;;;;;",
";;;;;;;;;;;;; O. ;;;;;;;;;;;;;;;;;;;;;;;;;;;; O. ;;;;;;;;;;;;;;;;;;;;;;;;;;;; O. ;;;;;;;;;;;;;;;;;;;;;;;;;;;; O. ;;;;;;;;;;;;;;;"
};
