/* XPM */
static char *xpm_[] = {
/* columns rows colors chars-per-pixel */
"128 32 15 1 ",
"  c #121724",
". c #663920",
"X c #25562E",
"o c #577277",
"O c #884B2B",
"+ c #BE772B",
"@ c #CF573C",
"# c #468232",
"$ c #DE9E41",
"% c #E8C170",
"& c #819796",
"* c #F4A481",
"= c #FFC190",
"- c #F6F0F0",
"; c None",
/* pixels */
";;;;;;;;;;;;;;;;;;;;;;;;;;;;;;;;;;;;;;;;;;;;;;;;;;;;;;;;;;;;;;;;;;;;;;;;;;;;;;;;;;;;;;;;;;;;;;;;;;;;;;;;;;;;;;;;;;;;;;;;;;;;;;;;",
";;;;;;;;;;;;;        ;;;;;;;;;;;;;;;;;;;;;;;;;;;;;;;;;;;;;;;;;;;;;;;;;;;;;;;;        ;;;;;;;;;;;;;;;;;;;;;;;;;;;;;;;;;;;;;;;;;;;",
";;;;;;;;;;;  %%%%$$$$  ;;;;;;;;;;;;;;;;;;;;;;        ;;;;;;;;;;;;;;;;;;;;;;  %%%%$$$$  ;;;;;;;;;;;;;;;;;;;;;;        ;;;;;;;;;;;",
";;;;;  ;;; %%        ++ ;;;;;;;;;;;;;;;;;;;  %%%%$$$$  ;;;;;;;;;;;;;;  ;;; %%        ++ ;;;;;;;;;;;;;;;;;;;  %%%%$$$$  ;;;;;;;;;",
";;;;; $ ; %  $$$$$$$$  + ;;;;;;;;;;;;  ;;; %%        ++ ;;;;;;;;;;;;; $ ; %  $$$$$$$$  + ;;;;;;;;;;;;  ;;; %%        ++ ;;;;;;;;",
";;;;; +$ $ $$%%%%%$$$$+ + ;;;;;;;;;;; $ ; %  $$$$$$$$  + ;;;;;;;;;;;; +$ $ $$%%%%%$$$$+ + ;;;;;;;;;;; $ ; %  $$$$$$$$  + ;;;;;;;",
";;;;; ++ $ $%$$$$$$$$$+ + ;;;;;;;;;;; +$ $ $$%%%%%$$$$+ + ;;;;;;;;;;; ++ $ $%$$$$$$$$$+ + ;;;;;;;;;;; +$ $ $$%%%%%$$$$+ + ;;;;;;",
";;;;; + $ $%$$$$$$$$$+++ + ;;;;;;;;;; ++ $ $%$$$$$$$$$+ + ;;;;;;;;;;; + $ $%$$$$$$$$$+++ + ;;;;;;;;;; ++ $ $%$$$$$$$$$+ + ;;;;;;",
";;;;; + $ $%$$$$$$$$$+++ + ;;;;;;;;;; + $ $%$$$$$$$$$+++ + ;;;;;;;;;; + $ $%$$$$$$$$$+++ + ;;;;;;;;;; + $ $%$$$$$$$$$+++ + ;;;;;",
";;;;;;     $$$$$$$$$$+++ + ;;;;;;;;;; + $ $%$$$$$$$$$+++ + ;;;;;;;;;;;     $$$$$$$$$$+++ + ;;;;;;;;;; + $ $%$$$$$$$$$+++ + ;;;;;",
";;;;; %%%%$    $$$$$++++ + ;;;;;;;;;;;     $$$$$$$$$$+++ + ;;;;;;;;;; %%%%$    $$$$$++++ + ;;;;;;;;;;;     $$$$$$$$$$+++ + ;;;;;",
";;;;; +++++%%%$   ++++++ + ;;;;;;;;;; %%%%$    $$$$$++++ + ;;;;;;;;;; +++++%%%$   ++++++ + ;;;;;;;;;; %%%%$    $$$$$++++ + ;;;;;",
";;;;;;     ++++%%$   +++ + ;;;;;;;;;; +++++%%%$   ++++++ + ;;;;;;;;;;;     ++++%%$   +++ + ;;;;;;;;;; +++++%%%$   ++++++ + ;;;;;",
";;;;;;;; **    +++%%$  + + ;;;;;;;;;;;     ++++%%$   +++ + ;;;;;;;;;;;;; **    +++%%$  + + ;;;;;;;;;;;     ++++%%$   +++ + ;;;;;",
";;;;;;;  =   **   +++%$  + ;;;;;;;;;;;;; **    +++%%$  + + ;;;;;;;;;;;;  =   **   +++%$  + ;;;;;;;;;;;;; **    +++%%$  + + ;;;;;",
";;;;;; @@======*O.   ++$$  ;;;;;;;;;;;;  =   **   +++%$  + ;;;;;;;;;;; @@======*O.   ++$$  ;;;;;;;;;;;;  =   **   +++%$  + ;;;;;",
";;;;;; @@=- ====O.**   ++$$ ;;;;;;;;;; @@======*O.   ++$$  ;;;;;;;;;;; @@=- ====O.**   ++$$ ;;;;;;;;;; @@======*O.   ++$$  ;;;;;",
";;;;;; @@=  ====O.== ..  ++ ;;;;;;;;;; @@=- ====O.**   ++$$ ;;;;;;;;;; @@=  ====O.== ..  ++ ;;;;;;;;;; @@=- ====O.**   ++$$ ;;;;",
";;;;;; @@OO===OO..  .O..   ;;;;;;;;;;; @@=  ====O.== ..  ++ ;;;;;;;;;; @@OO===OO..  .O..   ;;;;;;;;;;; @@=  ====O.== ..  ++ ;;;;",
";;;;;;;  OOOOO....=*OO. ;;;;;;;;;;;;;; @@OO===OO..  .O..   ;;;;;;;;;;;;  OOOOO....=*OO. ;;;;;;;;;;;;;; @@OO===OO..  .O..   ;;;;;",
";;;;;;;;; .......=**OO ;;;;;;;;;;;;;;;;  OOOOO....=*OO. ;;;;;;;;;;;;;;;;; .......=**OO ;;;;;;;;;;;;;;;;  OOOOO....=*OO. ;;;;;;;;",
";;;;;;;;;;      =***  ;;;;;;;;;;;;;;;;;;; .......=**OO ;;;;;;;;;;;;;;;;;;;      =***  ;;;;;;;;;;;;;;;;;;; .......=**OO ;;;;;;;;;",
";;;;;;;;;;;;;; &##X ;;;;;;;;;;;;;;;;;;;;;;      =***  ;;;;;;;;;;;;;;;;;;;;;;;; &##X ;;;;;;;;;;;;;;;;;;;;;;      =***  ;;;;;;;;;;",
";;;;;;;;;;;;; &####X ;;;;;;;;;;;;;;;;;;;;;;;;; &##X ;;;;;;;;;;;;;;;;;;;;;;;;; &####X ;;;;;;;;;;;;;;;;;;;;;;;;; &##X ;;;;;;;;;;;;",
";;;;;;;;;;;; $& #X X ;;;;;;;;;;;;;;;;;;;;;;;; & #XXX ;;;;;;;;;;;;;;;;;;;;;;; $& #X X ;;;;;;;;;;;;;;;;;;;;;;;; &### X ;;;;;;;;;;;",
";;;;;;;;;;;; && #X X ;;;;;;;;;;;;;;;;;;;;;;; $ ##X X ;;;;;;;;;;;;;;;;;;;;;;; && #X X ;;;;;;;;;;;;;;;;;;;;;;; $& ##X  ;;;;;;;;;;;",
";;;;;;;;;;;; && #X o ;;;;;;;;;;;;;;;;;;;;;;;  ##X #X ;;;;;;;;;;;;;;;;;;;;;;; && #X o ;;;;;;;;;;;;;;;;;;;;;;; &&& ##X ;;;;;;;;;;;",
";;;;;;;;;;;; && =* o ;;;;;;;;;;;;;;;;;;;;;;; ==X &oo ;;;;;;;;;;;;;;;;;;;;;;; && =* o ;;;;;;;;;;;;;;;;;;;;;;; &&&& #=* ;;;;;;;;;;",
";;;;;;;;;;;;;   **  ;;;;;;;;;;;;;;;;;;;;;;;; =* oooo ;;;;;;;;;;;;;;;;;;;;;;;;   **  ;;;;;;;;;;;;;;;;;;;;;;;;; &&&o ** ;;;;;;;;;;",
";;;;;;;;;;;;;;;    ;;;;;;;;;;;;;;;;;;;;;;;;;;   &o  ;;;;;;;;;;;;;;;;;;;;;;;;;;;    ;;;;;;;;;;;;;;;;;;;;;;;;;;; &&    ;;;;;;;;;;;",
";;;;;;;;;;;;;;; &o ;;;;;;;;;;;;;;;;;;;;;;;;;; oo &o ;;;;;;;;;;;;;;;;;;;;;;;;;;; &o ;;;;;;;;;;;;;;;;;;;;;;;;;; && oo ;;;;;;;;;;;;",
";;;;;;;;;;;;;;; O. ;;;;;;;;;;;;;;;;;;;;;;;;; .. ; O. ;;;;;;;;;;;;;;;;;;;;;;;;;; O. ;;;;;;;;;;;;;;;;;;;;;;;;; OO ; .. ;;;;;;;;;;;"
};
