/* XPM */
static char *xpm_[] = {
/* columns rows colors chars-per-pixel */
"64 32 18 1 ",
"  c #121724",
". c #663920",
"X c #25562E",
"o c #394A50",
"O c #577277",
"+ c #884B2B",
"@ c #BE772B",
"# c #CF573C",
"$ c #468232",
"% c yellow",
"& c #C1C12B",
"* c #DE9E41",
"= c #E8C170",
"- c #819796",
"; c #F4A481",
": c #FFC190",
"> c #F6F0F0",
", c None",
/* pixels */
",,,,,,,,,,,,,,,,,,,,,,,,,,,,,,,,,,,,,,,,,,,,,,,,,,,,,,,,,,,,,,,,",
",,,,,,,,,,,,,,,,,,,,,,,,,,,,,,,,,,,,,,,,,,,,,,,,,,,,,,,,,,,,,,,,",
",,,,,,,,,,,,,,,,,,,,,,,,,,,,,,,,,,,,,,,,,,,,,      ,,,,,,,,,,,,,",
",,,,,,,,,,,      ,,,,,,,,,,,,,,,,,,,,,,,,,,   ===*   ,,,,,,,,,,,",
",,,,,,,,,  ====    ,,,,,,,,,,,,,,,,,,,,,,  *@      @*  ,,,,,,,,,",
",,,,,,,  * =*** @**  ,,,,,,,,,,,,,,,,,,, **=@ &%%& @**@ ,,,,,,,,",
",,,,,, ** =*** @***@@ ,,,,,,,,,,,,,,,,, *==* %&%%&% @**@ ,,,,,,,",
",,,,, *==      @****@@ ,,,,,,,,,,,,,,, *=**@ %&%%&% @**@@ ,,,,,,",
",,,, *=*@ &%%& @*****@@ ,,,,,,,,,,,,,, *=*@@ %&%%&% @@*@@ ,,,,,,",
",,,, *=* %&%%&% @****@@ ,,,,,,,,,,,,, *=*@@   &%%&   @@@@@ ,,,,,",
",,, *=*@ %&%%&% @****@@@ ,,,,,,,,,,,, *=@  ==*    @**  @@@ ,,,,,",
",,, *=*@ %&%%&% @***@@@@ ,,,,,,,,,,,, *  =*@@@@@@@@@@**  @ ,,,,,",
",,, *@@@  &%%&   @@@@@@@ ,,,,,,,,,,,,  =*@@          @@**  ,,,,,",
",,,     **    ***        ,,,,,,,,,,,, *@@  ::::::::::  @@* ,,,,,",
",,, ****@@@@@@@@@******* ,,,,,,,,,,, *@  ::::::::::::::  @* ,,,,",
",, *@@@@         @@@@@@@* ,,,,,,,,, *@ +:  ::::::::::  ;. @@ ,,,",
", *@    :::::::::       @@ ,,,,,,,,  : +::: :::##::: ::;. ;  ,,,",
",  : +  :::##::::  ::;. ;  ,,,,,,,,, : +::> :::##:::> :;. ; ,,,,",
",, : +:: ::##::: ::::;. ; ,,,,,,,,,, : +::  :++##++:  :;. ; ,,,,",
",, : +:> ::##:::> :::;. ; ,,,,,,,,,,,  ++::::+>##>+::::..  ,,,,,",
",,,  ++  :+##++:  :::..  ,,,,,,,,,,,,,, ++++++    ++++.. ,,,,,,,",
",,,,, ++++++++++++++.. ,,,,,,,,,,,,,,,,, +++++    ++... ,,,,,,,,",
",,,,,, ++++   ++++... ,,,,,,,,,,,,,,,,,,,    +>>>>+    ,,,,,,,,,",
",,,,,,,    +++ ++    ,,,,,,,,,,,,,,,,,,, $$$-++++++-XXX ,,,,,,,,",
",,,,,,,,, X $-* XXX ,,,,,,,,,,,,,,,,,,, $::: ------ :::X ,,,,,,,",
",,,,,,,, $     $X X ,,,,,,,,,,,,,,,,,,, $:;;: oooo :;;:X ,,,,,,,",
",,,,,,,, $ ::$$X XX ,,,,,,,,,,,,,,,,,,, $:::: ---- ::::X ,,,,,,,",
",,,,,,,,,  ::$X --O ,,,,,,,,,,,,,,,,,,,, :;; -----O ;;: ,,,,,,,,",
",,,,,,,,,,      -O ,,,,,,,,,,,,,,,,,,,,,, :: -O  OO :: ,,,,,,,,,",
",,,,,,,,, --O , -O ,,,,,,,,,,,,,,,,,,,,,,,  -O ,, -O  ,,,,,,,,,,",
",,,,,,,,, -O ,,, -O ,,,,,,,,,,,,,,,,,,,,,,, -O ,, -O ,,,,,,,,,,,",
",,,,,,,,, +. ,,, +. ,,,,,,,,,,,,,,,,,,,,,,, +. ,, +. ,,,,,,,,,,,"
};
