/* XPM */
static char *xpm_[] = {
/* columns rows colors chars-per-pixel */
"128 32 15 1 ",
"  c #121724",
". c #663920",
"X c #25562E",
"o c #577277",
"O c #884B2B",
"+ c #BE772B",
"@ c #CF573C",
"# c #468232",
"$ c #DE9E41",
"% c #E8C170",
"& c #819796",
"* c #F4A481",
"= c #FFC190",
"- c #F6F0F0",
"; c None",
/* pixels */
";;;;;;;;;;;;;;;;;;;;;;;;;;;;;;;;;;;;;;;;;;;;;;;;;;;;;;;;;;;;;;;;;;;;;;;;;;;;;;;;;;;;;;;;;;;;;;;;;;;;;;;;;;;;;;;;;;;;;;;;;;;;;;;;",
";;;;;;;;;;;        ;;;;;;;;;;;;;;;;;;;;;;;;;;;;;;;;;;;;;;;;;;;;;;;;;;;;;;;;        ;;;;;;;;;;;;;;;;;;;;;;;;;;;;;;;;;;;;;;;;;;;;;",
";;;;;;;;;  %%%%$$$$  ;;;;;;;;;;;;;;;;;;;;;;        ;;;;;;;;;;;;;;;;;;;;;;  %%%%$$$$  ;;;;;;;;;;;;;;;;;;;;;;        ;;;;;;;;;;;;;",
";;;;;;;; %%        $$ ;;;  ;;;;;;;;;;;;;;  %%%%$$$$  ;;;;;;;;;;;;;;;;;;; %%        $$ ;;;  ;;;;;;;;;;;;;;  %%%%$$$$  ;;;;;;;;;;;",
";;;;;;; %  $$$$$$++  $ ; $ ;;;;;;;;;;;;; %%        $$ ;;;  ;;;;;;;;;;;; %  $$$$$$++  $ ; $ ;;;;;;;;;;;;; %%        $$ ;;;  ;;;;;",
";;;;;; % $$%%%%%$$+++ $ $+ ;;;;;;;;;;;; %  $$$$$$++  $ ; $ ;;;;;;;;;;; % $$%%%%%$$+++ $ $+ ;;;;;;;;;;;; %  $$$$$$++  $ ; $ ;;;;;",
";;;;;; % $%$$$$$$$$++ + ++ ;;;;;;;;;;; % $$%%%%%$$+++ $ $+ ;;;;;;;;;;; % $%$$$$$$$$++ + ++ ;;;;;;;;;;; % $$%%%%%$$+++ $ $+ ;;;;;",
";;;;; % $%$$$$$$$$$+++ $ + ;;;;;;;;;;; % $%$$$$$$$$++ + ++ ;;;;;;;;;; % $%$$$$$$$$$+++ $ + ;;;;;;;;;;; % $%$$$$$$$$++ + ++ ;;;;;",
";;;;; % $%$$$$$$$$++++ + + ;;;;;;;;;; % $%$$$$$$$$$+++ $ + ;;;;;;;;;; % $%$$$$$$$$++++ + + ;;;;;;;;;; % $%$$$$$$$$$+++ $ + ;;;;;",
";;;;; % $%$$$$$$+++++     ;;;;;;;;;;; % $%$$$$$$$$++++ + + ;;;;;;;;;; % $%$$$$$$+++++     ;;;;;;;;;;; % $%$$$$$$$$++++ + + ;;;;;",
";;;;; % $%$$$$+++    %%%%$ ;;;;;;;;;; % $%$$$$$$+++++     ;;;;;;;;;;; % $%$$$$+++    %%%%$ ;;;;;;;;;; % $%$$$$$$+++++     ;;;;;;",
";;;;; $ $$$$++   %%%$+++++ ;;;;;;;;;; % $%$$$$+++    %%%%$ ;;;;;;;;;; $ $$$$++   %%%$+++++ ;;;;;;;;;; % $%$$$$+++    %%%%$ ;;;;;",
";;;;; % $$$   %%$++++     ;;;;;;;;;;; $ $$$$++   %%%$+++++ ;;;;;;;;;; % $$$   %%$++++     ;;;;;;;;;;; $ $$$$++   %%%$+++++ ;;;;;",
";;;;; $ $  %%$+++    ** ;;;;;;;;;;;;; % $$$   %%$++++     ;;;;;;;;;;; $ $  %%$+++    ** ;;;;;;;;;;;;; % $$$   %%$++++     ;;;;;;",
";;;;; $  %$+++   **   =  ;;;;;;;;;;;; $ $  %%$+++    ** ;;;;;;;;;;;;; $  %$+++   **   =  ;;;;;;;;;;;; $ $  %%$+++    ** ;;;;;;;;",
";;;;;  $$++   ..*======@@ ;;;;;;;;;;; $  %$+++   **   =  ;;;;;;;;;;;;  $$++   ..*======@@ ;;;;;;;;;;; $  %$+++   **   =  ;;;;;;;",
";;;; $$++   **OO==== -=@@ ;;;;;;;;;;;  $$++   ..*======@@ ;;;;;;;;;; $$++   **OO==== -=@@ ;;;;;;;;;;;  $$++   ..*======@@ ;;;;;;",
";;;; ++  .. ==OO====  =@@ ;;;;;;;;;; $$++   **OO==== -=@@ ;;;;;;;;;; ++  .. ==OO====  =@@ ;;;;;;;;;; $$++   **OO==== -=@@ ;;;;;;",
";;;;;   ..O.  .OOO===OO@@ ;;;;;;;;;; ++  .. ==OO====  =@@ ;;;;;;;;;;;   ..O.  .OOO===OO@@ ;;;;;;;;;; ++  .. ==OO====  =@@ ;;;;;;",
";;;;;;;; OO.**...OOOOO.  ;;;;;;;;;;;;   ..O.  .OOO===OO@@ ;;;;;;;;;;;;;; OO.**...OOOOO.  ;;;;;;;;;;;;   ..O.  .OOO===OO@@ ;;;;;;",
";;;;;;;;; O.==*....... ;;;;;;;;;;;;;;;;; OO.**...OOOOO.  ;;;;;;;;;;;;;;;; O.==*....... ;;;;;;;;;;;;;;;;; OO.**...OOOOO.  ;;;;;;;",
";;;;;;;;;;  ===*      ;;;;;;;;;;;;;;;;;;; O.==*....... ;;;;;;;;;;;;;;;;;;;  ===*      ;;;;;;;;;;;;;;;;;;; O.==*....... ;;;;;;;;;",
";;;;;;;;;;;; ##Xo ;;;;;;;;;;;;;;;;;;;;;;;;  ===*      ;;;;;;;;;;;;;;;;;;;;;; ##Xo ;;;;;;;;;;;;;;;;;;;;;;;;  ===*      ;;;;;;;;;;",
";;;;;;;;;;; ####Xo ;;;;;;;;;;;;;;;;;;;;;;;;; ##Xo ;;;;;;;;;;;;;;;;;;;;;;;;; ####Xo ;;;;;;;;;;;;;;;;;;;;;;;;; ##Xo ;;;;;;;;;;;;;;",
";;;;;;;;;;; # #X &$ ;;;;;;;;;;;;;;;;;;;;;;; ###X o ;;;;;;;;;;;;;;;;;;;;;;;; # #X &$ ;;;;;;;;;;;;;;;;;;;;;;; # ##Xo ;;;;;;;;;;;;;",
";;;;;;;;;;; # #X &o ;;;;;;;;;;;;;;;;;;;;;;; # ##X $ ;;;;;;;;;;;;;;;;;;;;;;; # #X &o ;;;;;;;;;;;;;;;;;;;;;;;  ##X &$ ;;;;;;;;;;;;",
";;;;;;;;;;; & #X oo ;;;;;;;;;;;;;;;;;;;;;;; ## ##X  ;;;;;;;;;;;;;;;;;;;;;;; & #X oo ;;;;;;;;;;;;;;;;;;;;;;; ##X &&o ;;;;;;;;;;;;",
";;;;;;;;;;; & =* oo ;;;;;;;;;;;;;;;;;;;;;;; &&& X=* ;;;;;;;;;;;;;;;;;;;;;;; & =* oo ;;;;;;;;;;;;;;;;;;;;;; =*X &&oo ;;;;;;;;;;;;",
";;;;;;;;;;;;  **   ;;;;;;;;;;;;;;;;;;;;;;;; &&&o ** ;;;;;;;;;;;;;;;;;;;;;;;;  **   ;;;;;;;;;;;;;;;;;;;;;;; ** &&oo ;;;;;;;;;;;;;",
";;;;;;;;;;;;;    ;;;;;;;;;;;;;;;;;;;;;;;;;;;  &o   ;;;;;;;;;;;;;;;;;;;;;;;;;;    ;;;;;;;;;;;;;;;;;;;;;;;;;;    &o ;;;;;;;;;;;;;;",
";;;;;;;;;;;;; &o ;;;;;;;;;;;;;;;;;;;;;;;;;;; &o oo ;;;;;;;;;;;;;;;;;;;;;;;;;; &o ;;;;;;;;;;;;;;;;;;;;;;;;;;; oo &o ;;;;;;;;;;;;;",
";;;;;;;;;;;;; O. ;;;;;;;;;;;;;;;;;;;;;;;;;; O. ; .. ;;;;;;;;;;;;;;;;;;;;;;;;; O. ;;;;;;;;;;;;;;;;;;;;;;;;;; .. ; OO ;;;;;;;;;;;;"
};
