/* XPM */
static const char *_1zon_walk_right[] = {
/* columns rows colors chars-per-pixel */
"64 64 221 2 ",
"   c #050D1F",
".  c #050E21",
"X  c #080F20",
"o  c #0C1323",
"O  c #091223",
"+  c #111523",
"@  c #151924",
"#  c #1C1B23",
"$  c #191D29",
"%  c #241E23",
"&  c #1D2E26",
"*  c #142324",
"=  c #1E3227",
"-  c #1C2633",
";  c #2C2424",
":  c #292629",
">  c #352A24",
",  c #3A2D25",
"<  c #3D2529",
"1  c #362724",
"2  c #24322C",
"3  c #3D3127",
"4  c #3D332A",
"5  c #373029",
"6  c #232D38",
"7  c #232B36",
"8  c #372E34",
"9  c #2A343C",
"0  c #3E3A34",
"q  c #3B3234",
"w  c #4E2E1F",
"e  c #502F1F",
"r  c #63371E",
"t  c #442B24",
"y  c #41362A",
"u  c #44392D",
"i  c #4E3726",
"p  c #523021",
"a  c #5C3623",
"s  c #5A3D26",
"d  c #563929",
"f  c #433E36",
"g  c #44363A",
"h  c #433C3A",
"j  c #493C3C",
"k  c #4B3934",
"l  c #563F35",
"z  c #6D3C22",
"x  c #633A25",
"c  c #713E22",
"v  c #1C4329",
"b  c #28522B",
"n  c #264329",
"m  c #2C642E",
"M  c #3A6B2E",
"N  c #37682E",
"B  c #336738",
"V  c #3D7631",
"C  c #3B792F",
"Z  c #56412B",
"A  c #5E4A2F",
"S  c #5C4228",
"D  c #454037",
"F  c #484237",
"G  c #47403A",
"H  c #554534",
"J  c #5C4D37",
"K  c #5B4839",
"L  c #455339",
"P  c #694C2C",
"I  c #7E4426",
"U  c #744D27",
"Y  c #774628",
"T  c #7E542A",
"R  c #794931",
"E  c #685235",
"W  c #78513B",
"Q  c #694738",
"!  c #427D31",
"~  c #5A733E",
"^  c #2D3742",
"/  c #384B54",
"(  c #335945",
")  c #445A59",
"_  c #4E4B42",
"`  c #625641",
"'  c #765C50",
"]  c #715148",
"[  c #4D6B4D",
"{  c #696E4E",
"}  c #455C63",
"|  c #4F5F65",
" . c #4E6269",
".. c #5C767A",
"X. c #59706B",
"o. c #687A7E",
"O. c #6F6C68",
"+. c #823D32",
"@. c #824627",
"#. c #834728",
"$. c #844929",
"%. c #894B2B",
"&. c #8F5B26",
"*. c #81562B",
"=. c #925D27",
"-. c #925E28",
";. c #8D5537",
":. c #945938",
">. c #9D4735",
",. c #A24736",
"<. c #96612A",
"1. c #9B642A",
"2. c #9D692E",
"3. c #8E6935",
"4. c #856334",
"5. c #946D36",
"6. c #96683A",
"7. c #987037",
"8. c #A16629",
"9. c #A36B2D",
"0. c #A96F2E",
"q. c #BE762B",
"w. c #B7732A",
"e. c #AB7A37",
"r. c #AB7C39",
"t. c #A37335",
"y. c #A86D39",
"u. c #D3563B",
"i. c #D7593C",
"p. c #C95D3F",
"a. c #C47B2C",
"s. c #C87E2D",
"d. c #916659",
"f. c #9D6B58",
"g. c #957C53",
"h. c #9B6D41",
"j. c #A66844",
"k. c #A66846",
"l. c #A36E58",
"z. c #B37052",
"x. c #9D7A62",
"c. c #936C55",
"v. c #DD7251",
"b. c #DB6F4E",
"n. c #448231",
"m. c #718F48",
"M. c #7F837A",
"N. c #B3813A",
"B. c #B9843A",
"V. c #AF803B",
"C. c #CA812F",
"Z. c #CA8331",
"A. c #CC8936",
"S. c #CF8D3C",
"D. c #C68638",
"F. c #D18934",
"G. c #D18E3B",
"H. c #D08631",
"J. c #DA963C",
"K. c #DB9A3E",
"L. c #D7963C",
"P. c #E29C3D",
"I. c #9C8455",
"U. c #968053",
"Y. c #AB8446",
"T. c #B18543",
"R. c #BB8C44",
"E. c #B49356",
"W. c #B69A5F",
"Q. c #BC9857",
"!. c #858C7B",
"~. c #BA8368",
"^. c #B59A60",
"/. c #BA9D60",
"(. c #A98764",
"). c #DE9E41",
"_. c #DE9E41",
"`. c #D49840",
"'. c #DFA043",
"]. c #DAAC5B",
"[. c #E3A243",
"{. c #E1A64C",
"}. c #E5AA4D",
"|. c #E8AB4D",
" X c #E8A644",
".X c #E4AE56",
"XX c #E6B35C",
"oX c #C2846D",
"OX c #C98D68",
"+X c #D7926C",
"@X c #C89976",
"#X c #D69775",
"$X c #C58B70",
"%X c #E29974",
"&X c #E3956B",
"*X c #D4A47B",
"=X c #D4B27A",
"-X c #E6B661",
";X c #E6BA66",
":X c #E9BB66",
">X c #E8B762",
",X c #E4A679",
"<X c #E8A87B",
"1X c #F5A97C",
"2X c #E09F41",
"3X c #657C80",
"4X c #5F7C81",
"5X c #728B8D",
"6X c #8D9791",
"7X c #D6A984",
"8X c #FEB38B",
"9X c #F7B98B",
"0X c #FFBF90",
"qX c #F3AC85",
"wX c #FFC492",
"eX c #FFC897",
"rX c #D2C3BA",
"tX c #F9CCA4",
"yX c #FFE7D1",
"uX c None",
"iX c black",
/* pixels */
"uXuXuXuXuXuXuXuXuXuXuXuXuXuXuXuXuXuXuXuXuXuXuXuXuXuXuXuXuXuXuXuXuXuXuXuXuXuXuXuXuXuXuXuXuXuXuXuXuXuXuXuXuXuXuXuXuXuXuXuXuXuXuXuX",
"uXuXuXuXuXuXuXuXuXuXuXuXuXuXuXuXuXuXuXuXuXuXuXuXuXuXuXuXuXuXuXuXuXuXuXuXuXuXuXuXuXuXuXuXuXuXuXuXuXuXuXuXuXuXuXuXuXuXuXuXuXuXuXuX",
"uXuXuXuXuXuXuXuXuXuXuXuXuXuXuXuXuXuXuXuXuXuXo o o o o o o o o o o o o o o o uXuXuXuXuXuXuXuXuXuXuXuXuXuXuXuXuXuXuXuXuXuXuXuXuXuX",
"uXuXuXuXuXuXuXuXuXuXuXuXuXuXuXuXuXuXuXuXuXuXf F F F F F F f u u u u u u u y uXuXuXuXuXuXuXuXuXuXuXuXuXuXuXuXuXuXuXuXuXuXuXuXuXuX",
"uXuXuXuXuXuXuXuXuXuXuXuXuXuXuXuXuXuXo X . 0 g./.W.W.W.W.W.E.T.r.r.r.r.N.N.3.4 . o o uXuXuXuXuXuXuXuXuXuXuXuXuXuXuXuXuXuXuXuXuXuX",
"uXuXuXuXuXuXuXuXuXuXuXuXuXuXuXuXuXuXf D D ` I./.W.W.W.^.^.E.T.r.r.r.r.N.N.5.A y u y uXuXuXuXuXuXuXuXuXuXuXuXuXuXuXuXuXuXuXuXuXuX",
"uXuXuXuXuXuXuXuXuXuXuXuXuXuXuXuX  0 g././.I.` f f f D D D f u y y y y y 4 A 5.N.N.3.5 . uXuXuXuXuXuXo o @ @ uXuXuXuXuXuXuXuXuXuX",
"uXuXuXuXuXuXuXuXuXuXuXuXuXuXuXuX0 ` I././.U.J 3 3 4 4 4 4 4 4 4 4 4 , > > Z 5.N.N.5.A 4 uXuXuXuXuXuX4 5 # @ uXuXuXuXuXuXuXuXuXuX",
"uXuXuXuXuXuXuXuXuXuXuXuXuXuX  0 U.I.` f f J 5.r.r.r.r.r.r.r.r.r.r.t.<.=.=.T Z 4 4 A 7.5.4 . uXuX. 4 3.4.5 o uXuXuXuXuXuXuXuXuXuX",
"uXuXuXuXuXuXuXuXuXuXuXuXuXuX0 ` I.I.J , , E R.|.|.}.}.}.}.}.}.}.[.K.F.C.s.8.s > > Z 5.7.A 5 uXuX5 E B.e.y o uXuXuXuXuXuXuXuXuXuX",
"uXuXuXuXuXuXuXuXuXuXuXuXo f g.I.` J 5.r.e.R.].:X:X:X:X:X:X:X:XXX{.K.J.G.C.w.1.=.=.T Z A 5.3.4 5 3.B.Z.2.3 o uXuXuXuXuXuXuXuXuXuX",
"uXuXuXuXuXuXuXuXuXuXuXuXX D /./.f , r. X|..X>X;X;X;X;X;X;X;X;XXX{.).).J.A.s.a.a.s.=.> 4 e.e.4 4 e.J.Z.=., o uXuXuXuXuXuXuXuXuXuX",
"uXuXuXuXuXuXuXuXuXuXuXuX. D /./.f , e.|.XX>X.X{.{.{.{.{.{.{.{.{.'.).).).J.G.s.a.a.=.> , 9.9., , 2.H.s.=., o uXuXuXuXuXuXuXuXuXuX",
"uXuXuXuXuXuXuXuXuXuXuXuX0 ` I.U.J E R..X>XXX{.K.K.).).).).).).).).).).).'.L.D.q.a.1.s i T *.Z Z T 8.w.-., o uXuXuXuXuXuXuXuXuXuX",
"uXuXuXuXuXuXuXuXuXuXo f U.I.` J 5.R.].>X.X{.).).).).).).).).).).).).).).'.L.D.q.q.w.8.T i Z 5.5.Z s 8.<., o uXuXuXuXuXuXuXuXuXuX",
"uXuXuXuXuXuXuXuXuXuXo F /./.f 3 r.|.:X;X{.K.).).).).).).).).).).).).).).J.G.a.q.q.a.s.<.> 4 e.e.4 > <.1.3 o uXuXuXuXuXuXuXuXuXuX",
"uXuXuXuXuXuXuXuXuXuXo F W.W.f 4 r.|.:X;X{.K.).).).).).).).).).).).).).J.A.a.q.q.q.a.s.<.> , 9.9.3 , 1.1.3 o uXuXuXuXuXuXuXuXuXuX",
"uXuXuXuXuXuXuXuXuXuXo F W.W.f 4 r.}.:X;X{.).).).).).).).).).).).J.L.J.G.s.q.a.a.a.w.1.U ; ; U U ; ; U T , o uXuXuXuXuXuXuXuXuXuX",
"uXuXuXuXuXuXuXuXuXuXo F W.W.f 4 r.}.:X;X{.).).).).).).).).'.'.J.A.D.Z.C.a.a.a.a.a.8.s ; @ @ ; ; @ @ ; > uXuXuXuXuXuXuXuXuXuXuXuX",
"uXuXuXuXuXuXuXuXuXuXo F W.W.D 4 r.}.:X;X{.).).).).).).).J.J.J.G.C.w.1.=.=.=.=.=.=.T H f D D f f D f u 4 uXuXuXuXuXuXuXuXuXuXuXuX",
"uXuXuXuXuXuXuXuXuXuXo F ^.^.f 4 r.}.:X;X{.).).).).).'.J.A.Z.Z.C.s.1.s > > > > > > H g.^.^.^.W.^.^.E.T.3.4 o uXuXuXuXuXuXuXuXuXuX",
"uXuXuXuXuXuXuXuXuXuXo f E.E.f 4 r.}.XXXX{.).2X).J.J.J.D.9.&.=.=.=.T H f f f f 0 4 E Q.>X>X>X>X>X>X.X[.e.y o uXuXuXuXuXuXuXuXuXuX",
"uXuXuXuXuXuXuXuXuXuXo u T.T.u 4 r.[.{.'.'.).[.K.F.Z.Z.0.s > > > > H g.^.^.^.^.E.Y.N.D.G.G.S.S.S.S.G.F.2.3 o uXuXuXuXuXuXuXuXuXuX",
"uXuXuXuXuXuXuXuXuXuXo u T.T.u 4 r.[.[.[.[.`.B.t.<.=.=.T H f f 0 4 E Q.>X>X>X>X.X[.A.9.&.&.=.=.=.=.=.-.U , o uXuXuXuXuXuXuXuXuXuX",
"uXuXuXuXuXuXuXuXuXuXo D E.E.f 4 r.[.[.[. XB.P , > > > H g.^.^.E.Y.N.D.G.G.S.S.G.F.0.s > > > , , , , , > uXuXuXuXuXuXuXuXuXuXuXuX",
"uXuXuXuXuXuXuXuXuXuXo D E.E.f y r.`.B.r.r.5.J 0 f 0 4 E Q.>X>X.X[.A.9.&.&.=.=.-.-.*.K g g 8 $ o o o o o uXuXuXuXuXuXuXuXuXuXuXuX",
"uXuXuXuXuXuXuXuXuXuXo u T.T.u y N.D.E 5 5 J U.^.^.E.Y.N.D.G.G.G.F.0.S > > > , , > K l.oXoXd.8 o uXuXuXuXuXuXuXuXuXuXuXuXuXuXuXuX",
"uXuXuXuXuXuXuXuXuXuXo u N.r.y > 4.5.J 0 4 E Q.>X>X.X[.A.0.=.=.=.=.T l g g 8 $ . . 8 d.#XqX$Xj o uXuXuXuXuXuXuXuXuXuXuXuXuXuXuXuX",
"uXuXuXuXuXuXuXuXuXuXo u N.N.y @ : J U.E.Y.N.D.G.G.G.F.0.S > > > > l f.oXoXd.8   . @ 8 ' *X@Xj o o o uXuXuXuXuXuXuXuXuXuXuXuXuXuX",
"uXuXuXuXuXuXuXuXuXuXo 5 4.5.A 4 5 E Q.XX[.A.0.=.=.=.=.U , # # : 8 ] #X8X8X#X' j G j h ' *X#X] < < < uXuXuXuXuXuXuXuXuXuXuXuXuXuX",
"uXuXuXuXuXuXuXuXuXuXo @ > A 5.r.r.N.D.G.F.0.S > > > > , t p w Q f.@XqX0X0XqX*X@X@X@X@X*X9X<Xz.,.,.+.< o uXuXuXuXuXuXuXuXuXuXuXuX",
"uXuXuXuXuXuXuXuXuXuXy y 4 P B.P.P.A.0.=.-.U ; $ 8 g g k x z z :.+X8X0XwXwXwXwX9X*X7XtXtXeX1Xv.u.i.,.t o uXuXuXuXuXuXuXuXuXuXuXuX",
"uXuXuXuXuXuXuXuXo 4 3.V.r.r.D.H.H.0.S > , ; @ 8 d.~.~.z.;.I I j.%XwXwXwXwXwXwX*X' O.rXyXtX1Xv.u.i.,.< o uXuXuXuXuXuXuXuXuXuXuXuX",
"uXuXuXuXuXuXuXuXo y e.P.P.A.0.-.-.U , % % # o j $X8X8X%Xj.#.@.j.,XeXwXwXwXwXwX@Xg ^ 6XrXtX1Xv.u.u.,.< o uXuXuXuXuXuXuXuXuXuXuXuX",
"uXuXuXuXuXuXuXuXo 3 2.F.F.0.S > > , t p p 1 # j @XeXeX,Xj.@.@.j.,XeXeXwXwXwXwX@Xh @ ^ O.7X1Xv.u.u.,.< o uXuXuXuXuXuXuXuXuXuXuXuX",
"uXuXuXuXuXuXuXuXo > U <.<.U ; o # 1 p z c a 1 k x.@X@X~.:.I #.6.OX,X,X<X9XwXeX*X' q ; l ~.&Xb.u.i.,.< o uXuXuXuXuXuXuXuXuXuXuXuX",
"uXuXuXuXuXuXuXuXuXuX, , , ; @ # t p x z I Y a i k h h k x Y #.;.6.j.j.z.<XeXeX9X7X(.W Y :.j.p.i.i.,.t o uXuXuXuXuXuXuXuXuXuXuXuX",
"uXuXuXuXuXuXuXuXuXuXo o o o o % t a z Y $.#.c a k g g k a z I #.I I @.:.OX,X,X<X<X+Xy.$.I #.>.,.,.+.< o uXuXuXuXuXuXuXuXuXuXuXuX",
"uXuXuXuXuXuXuXuXuXuXuXuXuXuXuXuX% , z $.%.I z R l.~.~.l.R r z z z c @.;.6.j.j.j.j.y.:.$.Y x t < < < uXuXuXuXuXuXuXuXuXuXuXuXuXuX",
"uXuXuXuXuXuXuXuXuXuXuXuXuXuXuXuXo ; d Y $.@.z ;.+X8X8X%Xk.R z r r z I #.@.I I I I @.#.Y a t # o o o uXuXuXuXuXuXuXuXuXuXuXuXuXuX",
"uXuXuXuXuXuXuXuXuXuXuXuXuXuXuXuXuXuX; t Y @.z ;.#XwX0XqX#Xz.R r r z z c z z z z z c c a 1 % uXuXuXuXuXuXuXuXuXuXuXuXuXuXuXuXuXuX",
"uXuXuXuXuXuXuXuXuXuXuXuXuXuXuXuXuXuXo ; d x p W *XeXeX0X8X%Xk.R a e p p p p p p p p p t % o uXuXuXuXuXuXuXuXuXuXuXuXuXuXuXuXuXuX",
"uXuXuXuXuXuXuXuXuXuXuXuXuXuXuXuXuXuXuXuX; ; % K @XeXeXwXwX8X%Xl.k % % % % % % % % % % % uXuXuXuXuXuXuXuXuXuXuXuXuXuXuXuXuXuXuXuX",
"uXuXuXuXuXuXuXuXuXuXuXuXuXuXuXuXuXuXuXuXo o o h x.@X=X=X=X=X@Xx._ - @ o o @ o o o o @ o uXuXuXuXuXuXuXuXuXuXuXuXuXuXuXuXuXuXuXuX",
"uXuXuXuXuXuXuXuXuXuXuXuXuXuXuXuXuXuXuXuXuXuXuXuXg _ { m.m.m.{ [ | / - o uXuXuXuXuXuXuXuXuXuXuXuXuXuXuXuXuXuXuXuXuXuXuXuXuXuXuXuX",
"uXuXuXuXuXuXuXuXuXuXuXuXuXuXuXuXuXuXuXuXuXuXuXuX* n M n.n.C m B [ ) ^ - uXuXuXuXuXuXuXuXuXuXuXuXuXuXuXuXuXuXuXuXuXuXuXuXuXuXuXuX",
"uXuXuXuXuXuXuXuXuXuXuXuXuXuXuXuXuXuXuXuXuXuX+ & b M ! n.n.! C V B ( ) / - o uXuXuXuXuXuXuXuXuXuXuXuXuXuXuXuXuXuXuXuXuXuXuXuXuXuX",
"uXuXuXuXuXuXuXuXuXuXuXuXuXuXuXuXuXuXuXuXuXuX+ = M n.V M ! n.! M b ( X.X._ 3 uXuXuXuXuXuXuXuXuXuXuXuXuXuXuXuXuXuXuXuXuXuXuXuXuXuX",
"uXuXuXuXuXuXuXuXuXuXuXuXuXuXuXuXuXuXuXuXuXuX@ = M V n n M ! N b = ^ ..!.Y.3.y o uXuXuXuXuXuXuXuXuXuXuXuXuXuXuXuXuXuXuXuXuXuXuXuX",
"uXuXuXuXuXuXuXuXuXuXuXuXuXuXuXuXuXuXuXuXuXuX@ = M M & & N C m v * ^ o.6X/.h.4 o uXuXuXuXuXuXuXuXuXuXuXuXuXuXuXuXuXuXuXuXuXuXuXuX",
"uXuXuXuXuXuXuXuXuXuXuXuXuXuXuXuXuXuXuXuXuXuX@ = M M & & N C m v * ^ o.6X!.{ 7 o uXuXuXuXuXuXuXuXuXuXuXuXuXuXuXuXuXuXuXuXuXuXuXuX",
"uXuXuXuXuXuXuXuXuXuXuXuXuXuXuXuXuXuXuXuXuXuX+ 2 [ [ 2 & N C m v * 9 ..5X4X} 7 + uXuXuXuXuXuXuXuXuXuXuXuXuXuXuXuXuXuXuXuXuXuXuXuX",
"uXuXuXuXuXuXuXuXuXuXuXuXuXuXuXuXuXuXuXuXuXuXo 9 X.X.9 & N C m v * 6  .4X..} 6 + uXuXuXuXuXuXuXuXuXuXuXuXuXuXuXuXuXuXuXuXuXuXuXuX",
"uXuXuXuXuXuXuXuXuXuXuXuXuXuXuXuXuXuXuXuXuXuXo ^ o.3X^ 2 ~ m.{ L : 7 } ....} 6 + uXuXuXuXuXuXuXuXuXuXuXuXuXuXuXuXuXuXuXuXuXuXuXuX",
"uXuXuXuXuXuXuXuXuXuXuXuXuXuXuXuXuXuXuXuXuXuXo ^ o.o.^ 0 (.=X@Xf.q - } ....} 6 o uXuXuXuXuXuXuXuXuXuXuXuXuXuXuXuXuXuXuXuXuXuXuXuX",
"uXuXuXuXuXuXuXuXuXuXuXuXuXuXuXuXuXuXuXuXuXuXo 9  .| 7 j @X0X8XoXj - / } } / 7 o uXuXuXuXuXuXuXuXuXuXuXuXuXuXuXuXuXuXuXuXuXuXuXuX",
"uXuXuXuXuXuXuXuXuXuXuXuXuXuXuXuXuXuXuXuXuXuXuXuX9 7 @ j $X8X8XoXj @ - 6 6 7 uXuXuXuXuXuXuXuXuXuXuXuXuXuXuXuXuXuXuXuXuXuXuXuXuXuX",
"uXuXuXuXuXuXuXuXuXuXuXuXuXuXuXuXuXuXuXuXuXuXuXuXo o o q d.oXoXd.q o o + + + uXuXuXuXuXuXuXuXuXuXuXuXuXuXuXuXuXuXuXuXuXuXuXuXuXuX",
"uXuXuXuXuXuXuXuXuXuXuXuXuXuXuXuXuXuXuXuXuXuXuXuXuXuX+ $ 8 g g 8 $ + uXuXuXuXuXuXuXuXuXuXuXuXuXuXuXuXuXuXuXuXuXuXuXuXuXuXuXuXuXuX",
"uXuXuXuXuXuXuXuXuXuXuXuXuXuXuXuXuXuXuXuXuXuXuXuXuXuX+ $ 6 9 6 - @ + uXuXuXuXuXuXuXuXuXuXuXuXuXuXuXuXuXuXuXuXuXuXuXuXuXuXuXuXuXuX",
"uXuXuXuXuXuXuXuXuXuXuXuXuXuXuXuXuXuXuXuXuXuXuXuXuXuX+ 6  ... ./ - + uXuXuXuXuXuXuXuXuXuXuXuXuXuXuXuXuXuXuXuXuXuXuXuXuXuXuXuXuXuX",
"uXuXuXuXuXuXuXuXuXuXuXuXuXuXuXuXuXuXuXuXuXuXuXuXuXuXo 9 O.!.O.) 7 o uXuXuXuXuXuXuXuXuXuXuXuXuXuXuXuXuXuXuXuXuXuXuXuXuXuXuXuXuXuX",
"uXuXuXuXuXuXuXuXuXuXuXuXuXuXuXuXuXuXuXuXuXuXuXuXuXuXo : Q 4.W k : + uXuXuXuXuXuXuXuXuXuXuXuXuXuXuXuXuXuXuXuXuXuXuXuXuXuXuXuXuXuX",
"uXuXuXuXuXuXuXuXuXuXuXuXuXuXuXuXuXuXuXuXuXuXuXuXuXuXo ; z @.c e % o uXuXuXuXuXuXuXuXuXuXuXuXuXuXuXuXuXuXuXuXuXuXuXuXuXuXuXuXuXuX"
};
