/* XPM */
static char *xpm_[] = {
/* columns rows colors chars-per-pixel */
"64 32 19 1 ",
"  c #121724",
". c #663920",
"X c #25562E",
"o c #394A50",
"O c #577277",
"+ c #A53030",
"@ c #884B2B",
"# c #BE772B",
"$ c #CF573C",
"% c #468232",
"& c yellow",
"* c #C1C12B",
"= c #DE9E41",
"- c #E8C170",
"; c #819796",
": c #F4A481",
"> c #FFC190",
", c #F6F0F0",
"< c None",
/* pixels */
"<<<<<<<<<<<<<<<<<<<<<<<<<<<<<<<<<<<<<<<<<<<<<<<<<<<<<<<<<<<<<<<<",
"<<<<<<<<<<<<<      <<<<<<<<<<<<<<<<<<<<<<<<<<      <<<<<<<<<<<<<",
"<<<<<<<<<<<   ---=   <<<<<<<<<<<<<<<<<<<<<<   ---=   <<<<<<<<<<<",
"<<<<<<<<<  =#      #=  <<<<<<<<<<<<<<<<<<  =#      #=  <<<<<<<<<",
"<<<<<<<< ==-# *&&* #==# <<<<<<<<<<<<<<<< ==-# *&&* #==# <<<<<<<<",
"<<<<<<< =--= &*&&*& #==# <<<<<<<<<<<<<< =--= &*&&*& #==# <<<<<<<",
"<<<<<< =-==# &*&&*& #==## <<<<<<<<<<<< =-==# &*&&*& #==## <<<<<<",
"<<<<<< =-=## &*&&*& ##=## <<<<<<<<<<<< =-=## &*&&*& ##=## <<<<<<",
"<<<<< =-=##   *&&*   ##### <<<<<<<<<< =-=##   *&&*   ##### <<<<<",
"<<<<< =-#  --=    #==  ### <<<<<<<<<< =-#  --=    #==  ### <<<<<",
"<<<<< =  -=##########==  # <<<<<<<<<< =  -=##########==  # <<<<<",
"<<<<<  -=##          ##==  <<<<<<<<<<  -=##          ##==  <<<<<",
"<<<<< =##  >>>>>>>>>>  ##= <<<<<<<<<< =##  >>>>>>>>>>  ##= <<<<<",
"<<<< =#     >>>>>>>>     #= <<<<<<<< =#     >>>>>>>>     #= <<<<",
"<<< =# @>>>>>>>>>>>>>>>:. ## <<<<<< =# @>>>>>>>>>>>>>>>:. ## <<<",
"<<<  > @>>  >>>$$>>>  >:. :  <<<<<<  > @>>  >>>$$>>>  >:. :  <<<",
"<<<< > @> >> >>$$>> >> :. : <<<<<<<< > @> >> >>$$>> >> :. : <<<<",
"<<<< > @>>>>>>>$$>>>>>>:. : <<<<<<<< > @>>>>>>>$$>>>>>>:. : <<<<",
"<<<<<  @@>>>>@@$$@@>>>>..  <<<<<<<<<<    >>>@@@$$@@@>>>    <<<<<",
"<<<<<<<  @@@@@,,,,@@@@.  <<<<<<<<<<<<< >> @@@,,,,,,@@@ >> <<<<<<",
"<<<<<< >> @@@@ ++ @@.. >> <<<<<<<<<<<< >:% @@@ ++ @@. %>: <<<<<<",
"<<<<<< >:%   @@@@@@   %>: <<<<<<<<<<<<< X%%  @@,,@@  %%X <<<<<<<",
"<<<<<<< X%%%%;%%%%OX%%%X <<<<<<<<<<<<<<< X%%%@@@@@@XX%X <<<<<<<<",
"<<<<<<<< XXX;=;%%;=;XXX <<<<<<<<<<<<<<<<< X%;=;%%;=;XX <<<<<<<<<",
"<<<<<<<<<   ;;;;;;;;   <<<<<<<<<<<<<<<<<<< X;;;;;;;;X <<<<<<<<<<",
"<<<<<<<<<<< ;;oooo;O <<<<<<<<<<<<<<<<<<<<<< ;;oooo;O <<<<<<<<<<<",
"<<<<<<<<<<< ;;;;;;;O <<<<<<<<<<<<<<<<<<<<<< ;;;;;;;O <<<<<<<<<<<",
"<<<<<<<<<<< ;;;;;;OO <<<<<<<<<<<<<<<<<<<<<< ;;;;;;OO <<<<<<<<<<<",
"<<<<<<<<<<< ;;O  OOO <<<<<<<<<<<<<<<<<<<<<< ;;O  OOO <<<<<<<<<<<",
"<<<<<<<<<<< ;O << ;O <<<<<<<<<<<<<<<<<<<<<< ;O << ;O <<<<<<<<<<<",
"<<<<<<<<<<< ;O << ;O <<<<<<<<<<<<<<<<<<<<<< ;O << ;O <<<<<<<<<<<",
"<<<<<<<<<<< @. << @. <<<<<<<<<<<<<<<<<<<<<< @. << @. <<<<<<<<<<<"
};
