/* XPM */
static char *xpm_[] = {
/* columns rows colors chars-per-pixel */
"128 32 18 1 ",
"  c #121724",
". c #663920",
"X c #25562E",
"o c #394A50",
"O c #577277",
"+ c #884B2B",
"@ c #BE772B",
"# c #CF573C",
"$ c #468232",
"% c yellow",
"& c #C1C12B",
"* c #DE9E41",
"= c #E8C170",
"- c #819796",
"; c #F4A481",
": c #FFC190",
"> c #F6F0F0",
", c None",
/* pixels */
",,,,,,,,,,,,,,,,,,,,,,,,,,,,,,,,,,,,,,,,,,,,,,,,,,,,,,,,,,,,,,,,,,,,,,,,,,,,,,,,,,,,,,,,,,,,,,,,,,,,,,,,,,,,,,,,,,,,,,,,,,,,,,,,",
",,,,,,,,,,,,,      ,,,,,,,,,,,,,,,,,,,,,,,,,,,,,,,,,,,,,,,,,,,,,,,,,,,,,,,,,,      ,,,,,,,,,,,,,,,,,,,,,,,,,,,,,,,,,,,,,,,,,,,,,",
",,,,,,,,,,,   ===*   ,,,,,,,,,,,,,,,,,,,,,,,,      ,,,,,,,,,,,,,,,,,,,,,,,,   ===*   ,,,,,,,,,,,,,,,,,,,,,,,,      ,,,,,,,,,,,,,",
",,,,,,,,,  *@      @*  ,,,,,,,,,,,,,,,,,,,,   ===*   ,,,,,,,,,,,,,,,,,,,,  *@      @*  ,,,,,,,,,,,,,,,,,,,,   ===*   ,,,,,,,,,,,",
",,,,,,,, **=@ &%%& @**@ ,,,,,,,,,,,,,,,,,  *@      @*  ,,,,,,,,,,,,,,,,, **=@ &%%& @**@ ,,,,,,,,,,,,,,,,,  *@      @*  ,,,,,,,,,",
",,,,,,, *==* %&%%&% @**@ ,,,,,,,,,,,,,,, **=@ &%%& @**@ ,,,,,,,,,,,,,,, *==* %&%%&% @**@ ,,,,,,,,,,,,,,, **=@ &%%& @**@ ,,,,,,,,",
",,,,,, *=**@ %&%%&% @**@@ ,,,,,,,,,,,,, *==* %&%%&% @**@ ,,,,,,,,,,,,, *=**@ %&%%&% @**@@ ,,,,,,,,,,,,, *==* %&%%&% @**@ ,,,,,,,",
",,,,,, *=*@@ %&%%&% @@*@@ ,,,,,,,,,,,, *=**@ %&%%&% @**@@ ,,,,,,,,,,,, *=*@@ %&%%&% @@*@@ ,,,,,,,,,,,, *=**@ %&%%&% @**@@ ,,,,,,",
",,,,, *=*@@   &%%&   @@@@@ ,,,,,,,,,,, *=*@@ %&%%&% @@*@@ ,,,,,,,,,,, *=*@@   &%%&   @@@@@ ,,,,,,,,,,, *=*@@ %&%%&% @@*@@ ,,,,,,",
",,,,, *=@  ==*    @**  @@@ ,,,,,,,,,, *=*@@   &%%&   @@@@@ ,,,,,,,,,, *=@  ==*    @**  @@@ ,,,,,,,,,, *=*@@   &%%&   @@@@@ ,,,,,",
",,,,, *  =*@@@@@@@@@@**  @ ,,,,,,,,,, *=@  ==*    @**  @@@ ,,,,,,,,,, *  =*@@@@@@@@@@**  @ ,,,,,,,,,, *=@  ==*    @**  @@@ ,,,,,",
",,,,,  =*@@          @@**  ,,,,,,,,,, *  =*@@@@@@@@@@**  @ ,,,,,,,,,,  =*@@          @@**  ,,,,,,,,,, *  =*@@@@@@@@@@**  @ ,,,,,",
",,,,, *@@  ::::::::::  @@* ,,,,,,,,,,  =*@@          @@**  ,,,,,,,,,, *@@  ::::::::::  @@* ,,,,,,,,,,  =*@@          @@**  ,,,,,",
",,,, *@  ::::::::::::::  @* ,,,,,,,,, *@@  ::::::::::  @@* ,,,,,,,,, *@  ::::::::::::::  @* ,,,,,,,,, *@@  ::::::::::  @@* ,,,,,",
",,, *@ +:   ::::::::   ;. @@ ,,,,,,, *@  ::::::::::::::  @* ,,,,,,, *@ +:   ::::::::   ;. @@ ,,,,,,, *@  ::::::::::::::  @* ,,,,",
",,,  : +:::::::##::::::;. ;  ,,,,,, *@ +:   ::::::::   ;. @@ ,,,,,,  : +:::::::##::::::;. ;  ,,,,,, *@ +:   ::::::::   ;. @@ ,,,",
",,,, : +::> :::##:::> :;. ; ,,,,,,,  : +:::::::##::::::;. ;  ,,,,,,, : +::> :::##:::> :;. ; ,,,,,,,  : +:::::::##::::::;. ;  ,,,",
",,,, : +::  :::##:::  :;. ; ,,,,,,,, : +::> :::##:::> :;. ; ,,,,,,,, : +::  :::##:::  :;. ; ,,,,,,,, : +::> :::##:::> :;. ; ,,,,",
",,,,,  ++::::++##++::::..  ,,,,,,,,, : +::  :::##:::  :;. ; ,,,,,,,,,  ++::::++##++::::..  ,,,,,,,,, : +::  :::##:::  :;. ; ,,,,",
",,,,,,, ++++++++++++++.. ,,,,,,,,,,,,  ++::::++##++::::..  ,,,,,,,,,,,, ++++++++++++++.. ,,,,,,,,,,,,  ++::::++##++::::..  ,,,,,",
",,,,,,,, +++++    ++... ,,,,,,,,,,,,,,, ++++++++++++++.. ,,,,,,,,,,,,,,, +++++    ++... ,,,,,,,,,,,,,,, ++++++++++++++.. ,,,,,,,",
",,,,,,,,,    ++++++    ,,,,,,,,,,,,,,,,, +++++    ++... ,,,,,,,,,,,,,,,,,    ++++++    ,,,,,,,,,,,,,,,,, +++++    ++... ,,,,,,,,",
",,,,,,,,,,, $-$$$$OX ,,,,,,,,,,,,,,,,,,,,    ++++++    ,,,,,,,,,,,,,,,,,,,, $-$$$$OX ,,,,,,,,,,,,,,,,,,,,    ++++++    ,,,,,,,,,",
",,,,,,,,,, $-*-$$-*-X ,,,,,,,,,,,,,,,,,,,, $$-$$$$OXX ,,,,,,,,,,,,,,,,,,,, $-*-$$-*-X ,,,,,,,,,,,,,,,,,,,, $$-$$$$OXX ,,,,,,,,,,",
",,,,,,,,, $$--------$X ,,,,,,,,,,,,,,,,,, $$-*-$$-*-$X ,,,,,,,,,,,,,,,,,, $$--------$X ,,,,,,,,,,,,,,,,,, $$-*-$$-*-$X ,,,,,,,,,",
",,,,,,,,, $ --oooo-O X ,,,,,,,,,,,,,,,,, $$ -------  X ,,,,,,,,,,,,,,,,,, $ --oooo-O X ,,,,,,,,,,,,,,,,,, $  ------- XX ,,,,,,,,",
",,,,,,,,, $ -------O X ,,,,,,,,,,,,,,,, ::$ --oooo ::X ,,,,,,,,,,,,,,,,,, $ -------O X ,,,,,,,,,,,,,,,,,, $:: oooo-O X;; ,,,,,,,",
",,,,,,,, :: ------OO ;; ,,,,,,,,,,,,,,, ::  ------ ;; ,,,,,,,,,,,,,,,,,, :: ------OO ;; ,,,,,,,,,,,,,,,,,, ;; -----O  ;; ,,,,,,,",
",,,,,,,, ;; --O  OOO ;; ,,,,,,,,,,,,,,,,  , ------O  ,,,,,,,,,,,,,,,,,,, ;; --O  OOO ;; ,,,,,,,,,,,,,,,,,,,  -----OO ,  ,,,,,,,,",
",,,,,,,,,   -O ,, -O   ,,,,,,,,,,,,,,,,,,,, --O  OOO ,,,,,,,,,,,,,,,,,,,,   -O ,, -O   ,,,,,,,,,,,,,,,,,,,, --O  OOO ,,,,,,,,,,,",
",,,,,,,,,,, -O ,, -O ,,,,,,,,,,,,,,,,,,,,,, -O ,, .. ,,,,,,,,,,,,,,,,,,,,,, -O ,, -O ,,,,,,,,,,,,,,,,,,,,,, .. ,, -O ,,,,,,,,,,,",
",,,,,,,,,,, +. ,, +. ,,,,,,,,,,,,,,,,,,,,,, +. ,,,,,,,,,,,,,,,,,,,,,,,,,,,, +. ,, +. ,,,,,,,,,,,,,,,,,,,,,,,,,,,, +. ,,,,,,,,,,,"
};
