/* XPM */
static const char *_1zon_walk_back[] = {
/* columns rows colors chars-per-pixel */
"64 64 206 2 ",
"   c #0E111F",
".  c #0C0F1D",
"X  c #110F22",
"o  c #071023",
"O  c #0C1322",
"+  c #121424",
"@  c #161A24",
"#  c #1C1C25",
"$  c #050F22",
"%  c #241C23",
"&  c #2B1D24",
"*  c #211B2A",
"=  c #201722",
"-  c #301F25",
";  c #152425",
":  c #1C2D26",
">  c #1B2426",
",  c #1C3528",
"<  c #1E2935",
"1  c #2C2425",
"2  c #28262A",
"3  c #332424",
"4  c #362A25",
"5  c #3B2C25",
"6  c #372A26",
"7  c #3E3127",
"8  c #3E352B",
"9  c #3F382E",
"0  c #212A35",
"q  c #222B38",
"w  c #3C2E35",
"e  c #2B333D",
"r  c #27333D",
"t  c #3C3834",
"y  c #233629",
"u  c #502F1F",
"i  c #64371E",
"p  c #66381F",
"a  c #442A24",
"s  c #4E2F21",
"d  c #472B28",
"f  c #512F20",
"g  c #41362B",
"h  c #42382D",
"j  c #443026",
"k  c #543121",
"l  c #593321",
"z  c #533F2A",
"x  c #5B3928",
"c  c #423E36",
"v  c #433538",
"b  c #493A3B",
"n  c #4A3838",
"m  c #51393D",
"M  c #533634",
"N  c #402F37",
"B  c #613722",
"V  c #663920",
"C  c #693B21",
"Z  c #6B3D29",
"A  c #713E21",
"S  c #1D462A",
"D  c #24472A",
"F  c #29542C",
"G  c #2F4D32",
"H  c #376A2D",
"J  c #3D702F",
"K  c #3C6E32",
"L  c #3D7030",
"P  c #5C4229",
"I  c #574029",
"U  c #454037",
"Y  c #48423B",
"T  c #46553A",
"R  c #734C27",
"E  c #74422A",
"W  c #784A27",
"Q  c #7C5229",
"!  c #6C4D3B",
"~  c #695335",
"^  c #704D30",
"/  c #447D35",
"(  c #4A7A34",
")  c #2C3540",
"_  c #35424B",
"`  c #3B5052",
"'  c #3A6944",
"]  c #46565A",
"[  c #535541",
"{  c #4D764A",
"}  c #445B62",
"|  c #485C62",
" . c #4E656A",
".. c #566A6E",
"X. c #58796C",
"o. c #566D71",
"O. c #5B7579",
"+. c #686C68",
"@. c #65777A",
"#. c #66797C",
"$. c #687169",
"%. c #84492A",
"&. c #8B4C2B",
"*. c #844625",
"=. c #925D27",
"-. c #925E28",
";. c #8B5439",
":. c #8F5C28",
">. c #956029",
",. c #9D682D",
"<. c #9D652A",
"1. c #8E6835",
"2. c #886434",
"3. c #9F7037",
"4. c #A56C2E",
"5. c #A56B2C",
"6. c #BE762B",
"7. c #B8742B",
"8. c #A67536",
"9. c #AB7D3A",
"0. c #AA7737",
"q. c #B27F39",
"w. c #C37A2C",
"e. c #C77D2C",
"r. c #825A41",
"t. c #97695B",
"y. c #917854",
"u. c #AC7059",
"i. c #A37D68",
"p. c #43812E",
"a. c #458231",
"s. c #488336",
"d. c #518644",
"f. c #53874A",
"g. c #568A4B",
"h. c #51824E",
"j. c #728C46",
"k. c #608B5E",
"l. c #758952",
"z. c #718A75",
"x. c #5F8074",
"c. c #B8833A",
"v. c #C58131",
"b. c #CB8431",
"n. c #CC8936",
"m. c #CD8B3A",
"M. c #C7893B",
"N. c #D08731",
"B. c #D28E3A",
"V. c #D18A34",
"C. c #D6933C",
"Z. c #D9963C",
"A. c #DD9A3D",
"S. c #C7802F",
"D. c #E19B3D",
"F. c #AD8343",
"G. c #BC8D45",
"H. c #B08644",
"J. c #B19256",
"K. c #B4995F",
"L. c #B79658",
"P. c #B08D52",
"I. c #B49960",
"U. c #A98A6B",
"Y. c #88917C",
"T. c #DE9E41",
"R. c #D59940",
"E. c #E09F40",
"W. c #DFA043",
"Q. c #D8A858",
"!. c #E2A142",
"~. c #E1A64B",
"^. c #E4A84C",
"/. c #E9AC4E",
"(. c #E4AE56",
"). c #E8B45C",
"_. c #C1846C",
"`. c #C6886E",
"'. c #D78C6C",
"]. c #C98870",
"[. c #CD9E70",
"{. c #C49475",
"}. c #CF9A76",
"|. c #D3A77A",
" X c #E7B662",
".X c #E6BA67",
"XX c #EABC66",
"oX c #EABB65",
"OX c #EFC36D",
"+X c #647E81",
"@X c #6E8384",
"#X c #668285",
"$X c #758B8B",
"%X c #759382",
"&X c #789486",
"*X c #77908C",
"=X c #7D9494",
"-X c #849A9A",
";X c #809793",
":X c #969982",
">X c #FFAE88",
",X c #FFB68C",
"<X c #DDA585",
"1X c #FFC594",
"2X c None",
"3X c black",
/* pixels */
"2X2X2X2X2X2X2X2X2X2X2X2X2X2X2X2X2X2X2X2X2X2X2X2X2X2X2X2X2X2X2X2X2X2X2X2X2X2X2X2X2X2X2X2X2X2X2X2X2X2X2X2X2X2X2X2X2X2X2X2X2X2X2X2X",
"2X2X2X2X2X2X2X2X2X2X2X2X2X2X2X2X2X2X2X2X2X2X2X2X2X2X2X2X2X2X2X2X2X2X2X2X2X2X2X2X2X2X2X2X2X2X2X2X2X2X2X2X2X2X2X2X2X2X2X2X2X2X2X2X",
"2X2X2X2X2X2X2X2X2X2X2X2X2X2X2X2X2X2X2X2X2X2X2X2X2X2X+ + O o o o O O O O + + 2X2X2X2X2X2X2X2X2X2X2X2X2X2X2X2X2X2X2X2X2X2X2X2X2X2X",
"2X2X2X2X2X2X2X2X2X2X2X2X2X2X2X2X2X2X2X2X2X2X2X2X2X2X+ > t U U U U c h 6 # + 2X2X2X2X2X2X2X2X2X2X2X2X2X2X2X2X2X2X2X2X2X2X2X2X2X2X",
"2X2X2X2X2X2X2X2X2X2X2X2X2X2X2X2X2X2X2X2X2X2XO O O o O t y.K.K.K.K.J.H.2.6 O O O O O 2X2X2X2X2X2X2X2X2X2X2X2X2X2X2X2X2X2X2X2X2X2X",
"2X2X2X2X2X2X2X2X2X2X2X2X2X2X2X2X2X2X2X2X2X2X8 g 7 1 @ U K.OXOXXXXX)./.q.g @ 1 7 g 8 2X2X2X2X2X2X2X2X2X2X2X2X2X2X2X2X2X2X2X2X2X2X",
"2X2X2X2X2X2X2X2X2X2X2X2X2X2X2X2X2X2XO o o 7 1.0.,.R 1 c K.OX).^.^.^.!.9.g 1 R ,.0.1.7 o o O 2X2X2X2X2X2X2X2X2X2X2X2X2X2X2X2X2X2X",
"2X2X2X2X2X2X2X2X2X2X2X2X2X2X2X2X2X2X8 g 8 ~ G.!.V.-.4 c K.XX^.A.A.!.!.9.8 4 -.N.D.c.~ 8 5 4 2X2X2X2X2X2X2X2X2X2X2X2X2X2X2X2X2X2X",
"2X2X2X2X2X2X2X2X2X2X2X2X2X2X2X2X$ 7 2.9.9.G.Q.(.m.=.4 c I.XX^.A.A.E.!.9.8 4 =.b.A.R.c.8.<.W 4 o 2X2X2X2X2X2X2X2X2X2X2X2X2X2X2X2X",
"2X2X2X2X2X2X2X2X2X2X2X2X2X2X2X2X7 ~ G././.(. XQ.m.=.4 c J.).~.T.T.!.!.9.8 4 =.b.Z.!.!.A.V.4.P 4 2X2X2X2X2X2X2X2X2X2X2X2X2X2X2X2X",
"2X2X2X2X2X2X2X2X2X2X2X2X2X2X$ 7 2.G.Q.XXXX X(.T.b.=.4 h F.^.!.T.T.!.!.9.8 4 =.b.Z.W.!.E.A.n.4.R 4 o 2X2X2X2X2X2X2X2X2X2X2X2X2X2X",
"2X2X2X2X2X2X2X2X2X2X2X2X2X2X7 ~ G.). X.X.X).~.Z.b.=.4 h F.^.!.T.T.!.!.9.8 4 =.b.Z.T.T.T.W.Z.b.<.x 4 2X2X2X2X2X2X2X2X2X2X2X2X2X2X",
"2X2X2X2X2X2X2X2X2X2X2X2XO 8 2.G.Q. X(.~.~.~.W.Z.b.=.4 c J.).~.T.T.!.!.9.8 4 =.b.Z.T.T.T.T.Z.b.7.<.Q 4 O 2X2X2X2X2X2X2X2X2X2X2X2X",
"2X2X2X2X2X2X2X2X2X2X2X2Xo g 9./.XX.X~.A.A.T.T.Z.b.=.4 c J.).~.T.T.!.!.9.8 4 =.b.Z.T.T.T.T.Z.v.w.w.>.5 O 2X2X2X2X2X2X2X2X2X2X2X2X",
"2X2X2X2X2X2X2X2X2X2X2X2Xo 8 9./.XX.X~.A.T.T.T.Z.b.=.4 h F.^.!.T.T.!.!.9.8 4 =.b.Z.T.T.T.T.Z.v.w.w.=.5 O 2X2X2X2X2X2X2X2X2X2X2X2X",
"2X2X2X2X2X2X2X2X2X2X2X2X7 ~ G.(. X).~.T.T.T.T.Z.b.=.4 8 9.!.!.T.T.!.!.9.8 4 =.b.Z.T.T.T.T.Z.v.6.w.<.P 4 2X2X2X2X2X2X2X2X2X2X2X2X",
"2X2X2X2X2X2X2X2X2X2XO 8 1.G.Q. X(.~.W.T.T.T.T.Z.b.=.4 8 9.!.!.T.T.!.!.9.8 4 =.b.Z.T.T.T.T.Z.v.6.6.7.5.Q 6 O 2X2X2X2X2X2X2X2X2X2X",
"2X2X2X2X2X2X2X2X2X2XO g 9./.XX.X~.A.T.T.T.T.T.Z.b.=.4 8 9.!.!.T.T.!.!.9.8 4 =.b.Z.T.T.T.T.Z.v.6.6.w.e.>.5 O 2X2X2X2X2X2X2X2X2X2X",
"2X2X2X2X2X2X2X2X2X2XO g 9./.XX.X~.A.T.T.T.T.T.Z.b.=.4 8 9.!.!.T.T.!.!.9.8 4 =.b.Z.T.T.T.T.Z.v.6.6.w.w.>.5 O 2X2X2X2X2X2X2X2X2X2X",
"2X2X2X2X2X2X2X2X2X2XO g 9.^.).).~.T.T.T.T.T.T.Z.b.=.4 8 9.!.!.T.T.!.!.9.8 4 =.b.Z.T.T.T.T.Z.v.6.6.w.w.=.5 O 2X2X2X2X2X2X2X2X2X2X",
"2X2X2X2X2X2X2X2X2X2XO g 9.!.^.~.W.T.T.T.T.T.T.Z.b.=.4 8 9.!.!.T.T.!.!.9.8 4 =.b.Z.T.T.T.W.Z.v.6.6.w.w.=.5 O 2X2X2X2X2X2X2X2X2X2X",
"2X2X2X2X2X2X2X2X2X2XO g 8.A.Z.Z.T.T.T.T.T.T.T.Z.b.=.4 8 9.!.!.T.T.!.!.9.8 4 =.b.Z.T.T.T.Z.B.e.6.6.w.w.-.5 O 2X2X2X2X2X2X2X2X2X2X",
"2X2X2X2X2X2X2X2X2X2XO 7 ,.b.b.n.Z.T.T.T.T.T.T.Z.b.=.4 8 9.!.!.T.T.!.!.9.8 4 =.b.Z.W.!.Z.n.e.6.6.w.w.w.>.5 O 2X2X2X2X2X2X2X2X2X2X",
"2X2X2X2X2X2X2X2X2X2Xo 1 R =.=.4.M.Z.Z.Z.Z.Z.T.Z.b.=.4 8 9.!.!.T.T.!.!.9.8 4 =.b.Z.T.Z.B.e.w.w.7.<.=.-.R 1 o 2X2X2X2X2X2X2X2X2X2X",
"2X2X2X2X2X2X2X2XO o O @ 1 4 4 P 4.b.b.b.b.n.Z.Z.b.=.4 8 9.!.!.T.T.!.!.9.8 4 =.b.Z.Z.V.e.w.w.w.5.x 4 4 1 @ O O O 2X2X2X2X2X2X2X2X",
"2X2X2X2X2X2X2X2Xc U U c h 8 8 z Q =.=.=.:.4.M.C.b.=.4 8 9.!.!.T.T.!.!.9.8 4 =.b.C.M.4.:.=.=.-.Q I 8 8 g h h h 8 2X2X2X2X2X2X2X2X",
"2X2X2X2X2X2Xo c y.I.I.J.H.9.9.1.z 3 4 4 4 P 4.b.e.-.4 8 9.!.!.T.T.!.!.9.8 4 -.e.b.4.P 4 4 4 4 z 1.9.9.9.9.9.9.1.8 O 2X2X2X2X2X2X",
"2X2X2X2X2X2Xo c P. X X(.!.D.D.c.~ t c c 9 z Q -.>.R 1 8 8.A.A.Z.Z.A.A.8.8 1 R >.-.Q z 8 8 8 8 ~ c.D.D.A.A.D.D.0.g O 2X2X2X2X2X2X",
"2X2X2X2X2X2XO 8 3.C.B.m.n.b.b.M.L.I.I.J.H.1.z 4 4 1 @ 7 ,.b.b.b.b.b.b.,.7 @ 1 4 4 z 1.9.9.9.9.q.v.b.b.b.b.N.N.,.7 O 2X2X2X2X2X2X",
"2X2X2X2X2X2XO 4 R -.=.=.-.=.=.8.Q. X X(.!.c.~ t 9 6 @ 1 R -.=.=.=.=.-.R 1 @ 6 8 8 ~ c.D.D.A.D.m.4.=.-.-.=.-.>.R 4 O 2X2X2X2X2X2X",
"2X2X2X2X2X2X+ # 3 5 5 4 5 5 4 P 0.C.B.m.b.M.L.J.H.2.6 + 1 4 4 4 4 4 4 1 + 6 2.9.9.q.v.b.b.b.N.4.P 4 5 5 4 4 5 3 # + 2X2X2X2X2X2X",
"2X2X2X2X2X2X+ + + * w w * + % j Q -.=.=.=.8.Q.).!.c.~ c c c c c h 8 g 8 8 ~ c.D.D.m.4.=.=.>.>.W 5 # + * w w * + + + 2X2X2X2X2X2X",
"2X2X2X2X2X2X2X2X+ w t.t.w % k x j 4 4 4 4 P 0.B.N.M.L.I.I.I.I.J.F.9.9.9.9.c.v.N.N.4.P 4 6 5 5 5 s 5 = w t.t.w + 2X2X2X2X2X2X2X2X",
"2X2X2X2X2X2X2X2XX m ].].m - Z E a 1 1 1 1 j Q =.=.8.Q. X X X X(.!.A.A.A.D.m.4.=.-.Q 5 % % % % 3 l u % m ].].m X 2X2X2X2X2X2X2X2X",
"2X2X2X2X2X2X2X2XX m ].].m & Z %.E Z Z Z Z x j 4 4 P 0.C.B.m.m.m.n.b.b.b.N.4.P 4 6 5 s k s s s k V f % m ].].m X 2X2X2X2X2X2X2X2X",
"2X2X2X2X2X2X2X2X+ n t.t.N - Z &.&.&.&.&.&.E a % % 5 W -.-.=.=.=.=.=.=.-.>.W 5 # # 3 k V V V V V V f & N t.t.n X 2X2X2X2X2X2X2X2X",
"2X2X2X2X2X2X2X2X2X2Xn w * 3 Z &.&.&.&.&.&.%.E B k s 5 5 5 5 5 5 5 5 5 5 5 5 s s s k B V V V V V V k & * w n 2X2X2X2X2X2X2X2X2X2X",
"2X2X2X2X2X2X2X2X2X2XX + + 3 x E %.&.&.&.&.&.%.W A k 3 % % % % % % % % % % 3 k V V V V V V V V B l a & + + X 2X2X2X2X2X2X2X2X2X2X",
"2X2X2X2X2X2X2X2X2X2X2X2X2X2X& d E &.&.&.&.%.E C V B k s s s s s s k k s s k B V V V V V V V V l 3 % 2X2X2X2X2X2X2X2X2X2X2X2X2X2X",
"2X2X2X2X2X2X2X2X2X2X2X2X2X2X+ & x E W %.%.W C V V V p p p p p p p p p p p p V V V V V V V B l a % + 2X2X2X2X2X2X2X2X2X2X2X2X2X2X",
"2X2X2X2X2X2X2X2X2X2X2X2X2X2X2X2X& a B A A C V V V V p i i i i i i i i i i p p V V V V V V l 3 % 2X2X2X2X2X2X2X2X2X2X2X2X2X2X2X2X",
"2X2X2X2X2X2X2X2X2X2X2X2X2X2X2X2X+ % a k f f k f f B W ;.;.;.;.;.;.;.;.;.;.W B f f k k k k a & + 2X2X2X2X2X2X2X2X2X2X2X2X2X2X2X2X",
"2X2X2X2X2X2X2X2X2X2X2X2X2X2X2X2X2X2X& & & & & & % M u.'.'.'.'.'.'.'.'.'.'.u.M % & & & & & & 2X2X2X2X2X2X2X2X2X2X2X2X2X2X2X2X2X2X",
"2X2X2X2X2X2X2X2X2X2X2X2X2X2X2X2X2X2X+ + + + + @ > [ U.<X|.[.[.[.[.[.[.}.}.i.Y @ + + + + + + 2X2X2X2X2X2X2X2X2X2X2X2X2X2X2X2X2X2X",
"2X2X2X2X2X2X2X2X2X2X2X2X2X2X2X2X2X2X2X2X2X2X+ > F { Y.:Xl.j.j.j.j.j.j.l.z.$.` , @ + 2X2X2X2X2X2X2X2X2X2X2X2X2X2X2X2X2X2X2X2X2X2X",
"2X2X2X2X2X2X2X2X2X2X2X2X2X2X2X2X2X2X2X2X2X2X: D J g.%X%Xf.p.p.a.a.p.p.d.X.X.' F , ; 2X2X2X2X2X2X2X2X2X2X2X2X2X2X2X2X2X2X2X2X2X2X",
"2X2X2X2X2X2X2X2X2X2X2X2X2X2X2X2X2X2X2X2XO : F J / g.%X%Xf.p.p.a.a.a.p.f.z.z.{ H F , ; + 2X2X2X2X2X2X2X2X2X2X2X2X2X2X2X2X2X2X2X2X",
"2X2X2X2X2X2X2X2X2X2X2X2X2X2X2X2X2X2X2X2X: D L a.p.f.%X%Xf.p.a.a.a.a.p.f.%X%Xg./ H F , ; 2X2X2X2X2X2X2X2X2X2X2X2X2X2X2X2X2X2X2X2X",
"2X2X2X2X2X2X2X2X2X2X2X2X2X2X2X2X2X2X+ : F L a.a.p.f.z.z.f.p.a.a.a.a.p.f.%X%Xg.p./ K F , ; + 2X2X2X2X2X2X2X2X2X2X2X2X2X2X2X2X2X2X",
"2X2X2X2X2X2X2X2X2X2X2X2X2X2X2X2X2X2X+ : H a.J K { k.&X&Xk.d.s.a.a.s.d.k.&X%Xk./ K H F D ; + 2X2X2X2X2X2X2X2X2X2X2X2X2X2X2X2X2X2X",
"2X2X2X2X2X2X2X2X2X2X2X2X2X2X2X2X2X2X+ , H J D G X.&X;X=X&Xk.d.p.p.d.k.&X=X*Xx.| G , D D ; + 2X2X2X2X2X2X2X2X2X2X2X2X2X2X2X2X2X2X",
"2X2X2X2X2X2X2X2X2X2X2X2X2X2X2X2X2X2XO : H H : ) @.-X-X-X-X&Xk.f.f.k.&X-X-X=X+X} q ; S S ; O 2X2X2X2X2X2X2X2X2X2X2X2X2X2X2X2X2X2X",
"2X2X2X2X2X2X2X2X2X2X2X2X2X2X2X2X2X2XO : H H : ) @.-X-X-X-X;X&Xz.z.&X;X-X-X=X+X} 0 ; S S ; O 2X2X2X2X2X2X2X2X2X2X2X2X2X2X2X2X2X2X",
"2X2X2X2X2X2X2X2X2X2X2X2X2X2X2X2X2X2Xb [ j.( y e @.=X$X@X@X$X=X-X-X=X$X@X@X@XO.} 0 2 T [ Y v 2X2X2X2X2X2X2X2X2X2X2X2X2X2X2X2X2X2X",
"2X2X2X2X2X2X2X2X2X2X2X2X2X2X2X2Xo b i.|.|.U.t e @.$X..] ] ..$X-X-X$X..] ]  .o.} < w y.{.`.t.v o 2X2X2X2X2X2X2X2X2X2X2X2X2X2X2X2X",
"2X2X2X2X2X2X2X2X2X2X2X2X2X2X2X2Xo b {.1X1X{.b e #.$X..] ] | o.#.#.o.| ` ` } o.} < b _.>X>X_.b o 2X2X2X2X2X2X2X2X2X2X2X2X2X2X2X2X",
"2X2X2X2X2X2X2X2X2X2X2X2X2X2X2X2Xo b `.,X,X`.b e @.;X$X#.o.| _ e e _ |  . . .o.} < b _.>X>X_.b o 2X2X2X2X2X2X2X2X2X2X2X2X2X2X2X2X",
"2X2X2X2X2X2X2X2X2X2X2X2X2X2X2X2Xo v t._._.t.w e @.-X=X@X..` < .   < `  .O.#.O.} < w t._._.t.v o 2X2X2X2X2X2X2X2X2X2X2X2X2X2X2X2X",
"2X2X2X2X2X2X2X2X2X2X2X2X2X2X2X2X2X2Xv b b w # e #.=X@X ._ < 2X2X2X2X< _ @.$X+X} q # w b b v 2X2X2X2X2X2X2X2X2X2X2X2X2X2X2X2X2X2X",
"2X2X2X2X2X2X2X2X2X2X2X2X2X2X2X2X2X2Xo o o O O ) #.=X+X} 0   2X2X2X2X  e #.=X#X} q O O o o o 2X2X2X2X2X2X2X2X2X2X2X2X2X2X2X2X2X2X",
"2X2X2X2X2X2X2X2X2X2X2X2X2X2X2X2X2X2X2X2X2X2XO ) #.=X#X} 0 O 2X2X2X2X  e #.=X#X} q O 2X2X2X2X2X2X2X2X2X2X2X2X2X2X2X2X2X2X2X2X2X2X",
"2X2X2X2X2X2X2X2X2X2X2X2X2X2X2X2X2X2X2X2X2X2XO e +.z.$.] 0 + 2X2X2X2XO e +.z.$.] 0 O 2X2X2X2X2X2X2X2X2X2X2X2X2X2X2X2X2X2X2X2X2X2X",
"2X2X2X2X2X2X2X2X2X2X2X2X2X2X2X2X2X2X2X2X2X2XO 2 ! r.! M 2 + 2X2X2X2XO 2 ! r.! M 2 O 2X2X2X2X2X2X2X2X2X2X2X2X2X2X2X2X2X2X2X2X2X2X",
"2X2X2X2X2X2X2X2X2X2X2X2X2X2X2X2X2X2X2X2X2X2XO 1 Z *.A u % O 2X2X2X2XO 1 Z *.A u % O 2X2X2X2X2X2X2X2X2X2X2X2X2X2X2X2X2X2X2X2X2X2X"
};
