/* XPM */
static char *xpm_[] = {
/* columns rows colors chars-per-pixel */
"128 32 15 1 ",
"  c #121724",
". c #181425",
"X c #663920",
"o c #25562E",
"O c #394A50",
"+ c #577277",
"@ c #884B2B",
"# c #BE772B",
"$ c #468232",
"% c #DE9E41",
"& c #E8C170",
"* c #819796",
"= c #F4A481",
"- c #FFC190",
"; c None",
/* pixels */
";;;;;;;;;;;;;;;;;;;;;;;;;;;;;;;;;;;;;;;;;;;;;;;;;;;;;;;;;;;;;;;;;;;;;;;;;;;;;      ;;;;;;;;;;;;;;;;;;;;;;;;;;      ;;;;;;;;;;;;;",
";;;;;;;;;;;;;      ;;;;;;;;;;;;;;;;;;;;;;;;;;      ;;;;;;;;;;;;;;;;;;;;;;;;   &&&%   ;;;;;;;;;;;;;;;;;;;;;;   &&&%   ;;;;;;;;;;;",
";;;;;;;;;;;   &&&%   ;;;;;;;;;;;;;;;;;;;;;;   &&&%   ;;;;;;;;;;;;;;;;;;;;  %# &%%% #%  ;;;;;;;;;;;;;;;;;;  %# &%%% #%  ;;;;;;;;;",
";;;;;;;;;  %# &%%% #%  ;;;;;;;;;;;;;;;;;;  %# &%%% #%  ;;;;;;;;;;;;;;;;; %%&# &%%% #%%# ;;;;;;;;;;;;;;;; %%&# &%%% #%%# ;;;;;;;;",
";;;;;;;; %%&# &%%% #%%# ;;;;;;;;;;;;;;;; %%&# &%%% #%%# ;;;;;;;;;;;;;;; %&&%# %%%% #%%%# ;;;;;;;;;;;;;; %&&%# %%%% #%%%# ;;;;;;;",
";;;;;;; %&&%# %%%% #%%%# ;;;;;;;;;;;;;; %&&%# %%%% #%%%# ;;;;;;;;;;;;; %&%%%# &%%% #%%%## ;;;;;;;;;;;; %&%%%# &%%% #%%%## ;;;;;;",
";;;;;; %&%%%# &%%% #%%%## ;;;;;;;;;;;; %&%%%# &%%% #%%%## ;;;;;;;;;;;; %&%%%# %%%% #%%%## ;;;;;;;;;;;; %&%%%# %%%% #%%%## ;;;;;;",
";;;;;; %&%%%# %%%% #%%%## ;;;;;;;;;;;; %&%%%# %%%% #%%%## ;;;;;;;;;;; %&%%%%# %%%% #%%%### ;;;;;;;;;; %&%%%%# %%%% #%%%### ;;;;;",
";;;;; %&%%%%# %%%% #%%%### ;;;;;;;;;; %&%%%%# %%%% #%%%### ;;;;;;;;;; %&%%%%# %%%% #%%%### ;;;;;;;;;; %&%%%%# %%%% #%%%### ;;;;;",
";;;;; %&%%%%# %%%% #%%%### ;;;;;;;;;; %&%%%%# %%%% #%%%### ;;;;;;;;;; %%%%%%# %%%% #%%%### ;;;;;;;;;; %%%%%%# %%%% #%%%### ;;;;;",
";;;;; %%%%%%# %%%% #%%%### ;;;;;;;;;; %%%%%%# %%%% #%%%### ;;;;;;;;;; ##%%%%# %%%% #%%#### ;;;;;;;;;; ##%%%%# %%%% #%%#### ;;;;;",
";;;;; ##%%%%# %%%% #%%#### ;;;;;;;;;; ##%%%%# %%%% #%%#### ;;;;;;;;;    ###%# %%%% #%###    ;;;;;;;;    ###%# %%%% #%###    ;;;;",
";;;;    ###%# %%%% #%###    ;;;;;;;;    ###%# %%%% #%###    ;;;;;;; &&%%   ## %%%% ##   %%%% ;;;;;; &&%%   ## %%%% ##   %%%% ;;;",
";;; &&%%   ## %%%% ##   %%%% ;;;;;; &&%%   ## %%%% ##   %%%% ;;;;;; ####&&%   ####   %%%#### ;;;;;; ####&&%   ####   %%%#### ;;;",
";;; ####&&%   ####   %%%#### ;;;;;; ####&&%   ####   %%%#### ;;;;;; . . ###&%      %%### . . ;;;;;; . . ###&%      %%### . . ;;;",
";;; . . ###&%      %%### . . ;;;;;; . . ###&%      %%### . . ;;;;;;;.=.@   ##&&&%%%##   X.=.;;;;;;;;.=.@   ##&&&%%%##   X.=.;;;;",
";;;;.=.@   ##&&&%%%##   X.=.;;;;;;;;.=.@   ##&&&%%%##   X.=.;;;;;;;;.=.@@@@  ######  XXXX.=.;;;;;;;;.=.@@@@  ######  XXXX.=.;;;;",
";;;;.=.@@@@  ######  XXXX.=.;;;;;;;;.=.@@@@  ######  XXXX.=.;;;;;;;;;..@@@@@X      XXXXXX..;;;;;;;;;;..@@@@@X      XXXXXX..;;;;;",
";;;;;..@@@@@X      XXXXXX..;;;;;;;;;;..@@@@@X      XXXXXX..;;;;;;;;;;;;.@@@XXXXXXXXXXXXX.;;;;;;;;;;;;;;.@@@XXXXXXXXXXXXX.;;;;;;;",
";;;;;;;.@@@XXXXXXXXXXXXX.;;;;;;;;;;;;;;.@@@XXXXXXXXXXXXX.;;;;;;;;;;;;;;;.XXXXXXXXXXXXXX.;;;;;;;;;;;;;;;;.XXXXXXXXXXXXXX.;;;;;;;;",
";;;;;;;;.XXXXXXXXXXXXXX.;;;;;;;;;;;;;;;;.XXXXXXXXXXXXXX.;;;;;;;;;;;;;;;;;....======....;;;;;;;;;;;;;;;;;;....======....;;;;;;;;;",
";;;;;;;;;....======....;;;;;;;;;;;;;;;;;;....======....;;;;;;;;;;;;;;;;;;;; $*$$$$+o ;;;;;;;;;;;;;;;;;;;;;; $*$$$$+o ;;;;;;;;;;;",
";;;;;;;;;;; $*$$$$+o ;;;;;;;;;;;;;;;;;;;;;  $*$$$$+o  ;;;;;;;;;;;;;;;;;;;; $$*$$$$*$o ;;;;;;;;;;;;;;;;;;;;  $*$$$$+o  ;;;;;;;;;;",
";;;;;;;;;; $$*$$$$*$o ;;;;;;;;;;;;;;;;;;; $$$*$$$$*$oo ;;;;;;;;;;;;;;;;;; $$$*$$$$*$oo ;;;;;;;;;;;;;;;;;;; $$*$$$$*$o ;;;;;;;;;;",
";;;;;;;;; $$$*$$$$*$$o ;;;;;;;;;;;;;;;;;; $$***$$***$o ;;;;;;;;;;;;;;;;;; $$***$$***$o ;;;;;;;;;;;;;;;;;; $$$*$$$$*$$o ;;;;;;;;;",
";;;;;;;;; $ ***$$**+ o ;;;;;;;;;;;;;;;;;; $ *******+ o ;;;;;;;;;;;;;;;;;; $ *******+ o ;;;;;;;;;;;;;;;;;; $ ***$$**+ o ;;;;;;;;;",
";;;;;;;;; $ *******+ o ;;;;;;;;;;;;;;;;; -- *******+ == ;;;;;;;;;;;;;;;; -- *******+ == ;;;;;;;;;;;;;;;;; $ *******+ o ;;;;;;;;;",
";;;;;;;; -- *OO**OO+ == ;;;;;;;;;;;;;;;; == *OO**OO+ == ;;;;;;;;;;;;;;;; == *OO**OO+ == ;;;;;;;;;;;;;;;; -- *OO**OO+ == ;;;;;;;;",
";;;;;;;; == **+  +++ == ;;;;;;;;;;;;;;;;;   **+  +++   ;;;;;;;;;;;;;;;;;;   **+  +++   ;;;;;;;;;;;;;;;;; == **+  +++ == ;;;;;;;;",
";;;;;;;;;   *+ ;; *+   ;;;;;;;;;;;;;;;;;;;; *+ ;; *+ ;;;;;;;;;;;;;;;;;;;;;; *+ ;; *+ ;;;;;;;;;;;;;;;;;;;;   *+ ;; *+   ;;;;;;;;;",
";;;;;;;;;;; *+ ;; *+ ;;;;;;;;;;;;;;;;;;;;;; *+ ;; *+ ;;;;;;;;;;;;;;;;;;;;;; *+ ;; *+ ;;;;;;;;;;;;;;;;;;;;;; *+ ;; *+ ;;;;;;;;;;;",
";;;;;;;;;;; @X ;; @X ;;;;;;;;;;;;;;;;;;;;;; @X ;; @X ;;;;;;;;;;;;;;;;;;;;;; @X ;; @X ;;;;;;;;;;;;;;;;;;;;;; @X ;; @X ;;;;;;;;;;;"
};
