/* XPM */
static char *xpm_[] = {
/* columns rows colors chars-per-pixel */
"160 32 18 1 ",
"  c #121724",
". c #663920",
"X c #25562E",
"o c #394A50",
"O c #577277",
"+ c #884B2B",
"@ c #BE772B",
"# c #CF573C",
"$ c #468232",
"% c yellow",
"& c #C1C12B",
"* c #DE9E41",
"= c #E8C170",
"- c #819796",
"; c #F4A481",
": c #FFC190",
"> c #F6F0F0",
", c None",
/* pixels */
",,,,,,,,,,,,,,,,,,,,,,,,,,,,,,,,,,,,,,,,,,,,,,,,,,,,,,,,,,,,,,,,,,,,,,,,,,,,,,,,,,,,,,,,,,,,,,,,,,,,,,,,,,,,,,,,,,,,,,,,,,,,,,,,,,,,,,,,,,,,,,,,,,,,,,,,,,,,,,,,",
",,,,,,,,,,,,,      ,,,,,,,,,,,,,,,,,,,,,,,,,,,,,,,,,,,,,,,,,,,,,,,,,,,,,,,,,,,,,,,,,,,,,,,,,,,,,,,,,,,,,,,,,,,,,,,,,,,,,,,,,,,,,,,,,,,,,,,,,,,,,,,,,,,,,,,,,,,,,",
",,,,,,,,,,,   ===*   ,,,,,,,,,,,,,,,,,,,,,,,,,,,,,,,,,,,,,,,,,,,,,,,,,,,,,,,,,,,,,,,,,,,,,,,,,,,,,,,,,,,,,,,,,,,,,,,,,,,,,,,,,,,,,,,,,,,,,,,,,,,,,,,,,,,,,,,,,,,",
",,,,,>,,,  *@      @*  ,,,,,,,>,,,,,,,,,,,,,,      ,,,,,,,,,,,,,,,,,,,,,,,,,,,,,,,,,,,,,,,,,,,,,,,,,,,,,,,,,,,,,,,,,,,,,,,,,,,,,,,,,,,,,,,,,,,,,,,,,,,,,,,,,,,,,",
",,,,,,,, **=@ &%%& @**@ ,,,,>,,,,,,,,,,,,,,   ===*   ,,,,,,,,,,,,,,,,,,,,,,,,,,,,,,,,,,,,,,,,,,,,,,,,,,,,,,,,,,,,,,,,,,,,,,,,,,,,,,,,,,,,,,,,,,,,,,,,,,,,,,,,,,,",
",,,,,,, *==* %&%%&% @**@ ,,,,,,,,,,,,,,,,  *@      @*  ,,,,,,,,,,,,,,,,,,,,,,,,,,,,,,,,,,,,,,,,,,,,,,,,,,,,,,,,,,,,,,,,,,,,,,,,,,,,,,,,,,,,,,,,,,,,,,,,,,,,,,,,,",
",,,,,, *=**@ %&%%&% @**@@ ,>,,,,,,,,,,,, **=@ &%%& @**@ ,,,,,,,,,,,,,,,,,,,,,,,,,,,,,,,,,,,,,,,,,,,,,,,,,,,,,,,,,,,,,,,,,,,,,,,,,,,,,,,,,,,,,,,,,,,,,,,,,,,,,,,,",
",,,,,, *=*@@ %&%%&% @@*@@ ,,,,>,,,,,,,, *==* %&%%&% @**@ ,,,,,,,,,,,,,,,,,,,,,,,,,,,,,,,,,,,,,,,,,,,,,,,,,,,,,,,,,,,,,,,,,,,,,,,,,,,,,,,,,,,,,,,,,,,,,,,,,,,,,,,",
",,,,, *=*@@   &%%&   @@@@@ ,,,,,,,,,,, *=**@ %&%%&% @**@@ ,,,,,,,,,,,,,,,,,,,,,,,,,,,,,,,,,,,,,,,,,,,,,,,,,,,,,,,,,,,,,,,,,,,,,,,,,,,,,,,,,,,,,,,,,,,,,,,,,,,,,,",
",,>,, *=@  ==*    @**  @@@ ,>,,,,,,,,, *=*@@ %&%%&% @@*@@ ,,,,,,,,,,,,,,,,,,,,,,,,,,,,,,,,,,,,,,,,,,,,,,,,,,,,,,,,,,,,,,,,,,,,,,,,,,,,,,,,,,,,,,,,,,,,,,,,,,,,,,",
",,,,, *  =*@@@@@@@@@@**  @ ,>,,,,,,,, *=*@@   &%%&   @@@@@ ,,,,,,,,,,,,,,,,,,,,,,,,,,,,,,,,,,,,,,,,,,,,,,,,,,,,,,,,,,,,,,,,,,,,,,,,,,,,,,,,,,,,,,,,,,,,,,,,,,,,,",
",,,,,  =*@@          @@**  ,,,,,,,,,, *=@  ==*    @**  @@@ ,,,,,,,,,,,,,,,,,,,,,,,,,,,,,,,,,,,,,,,,,,,,,,,,,,      ,,,,,,,,,,,,,,,,,,,,,,,,,,,,,,,,,,,,,,,,,,,,,",
",,,,, *@@  ::::::::::  @@* ,,,,,,,,,, *  =*@@@@@@@@@@**  @ ,,,,,,,,,,,,,,,,,,,,,,,,,,,,,,,,,,,,,,,,,,,,,,,,   ===*   ,,,,,,,,,,,,,,,,,,,,,,,,,,,,,,,,,,,,,,,,,,,",
",,,, *@  ::::::::::::::  @* ,,,,,,,,,  =*@@          @@**  ,,,,,,,,,,,,,,,,,,      ,,,,,,,,,,,,,,,,,,,,,,  *@      @*  ,,,,,,,,,,,,,,,,,,,,,,,,,,,,,,,,,,,,,,,,,",
",>, *@ +:   ::::::::   ;. @@ ,,,,,,,, *@@  ::::::::::  @@* ,,,,,,,,,,, +. ,   ===*   , +. ,,,,,,,,,,,,,, **=@ &%%& @**@ ,,,,,,,,,,,,,,,,,,,,,,,,,,,,,,,,,,,,,,,,",
",,,  : +:;;;:::##:::;;;;. ;  ,,,,,,, *@  ::::::::::::::  @* ,,,,,,,,,, -O  *@      @*  -O ,,,,,,,,,,,,, *==* %&%%&% @**@ ,,,,,,,,,,,,,,,,,,,,      ,,,,,,,,,,,,,",
",,,, : +:; ;:::##:::; ;;. ; ,,,,,,, *@ +:   ::::::::   ;. @@ ,,,,,,,,, - **=@ &%%& @**@ O ,,,,,,,,,,,, *=**@ %&%%&% @**@@ ,,,,,,,,,,,,,,,,,   ===*   ,,,,,,,,,,,",
",,,, : +:;;;:::##:::;;;;. ; ,,,,,,,  : +:::::::##::::::;. ;  ,,,,,,,,,  *==* %&%%&% @**@  ,,,,,,,,,,,, *=*@@ %&%%&% @@*@@ ,,,,,,,,,,,,,,,  *@      @*  ,,,,,,,,,",
",,,,,  ++::::++##++::::..  ,,>,,,,,, : +::>>:::##:::>>:;. ; ,,,,,,,,,, *=**@ %&%%&% @**@@ ,,,,,,,,,,, *=*@@   &%%&   @@@@@ ,,,,,,,,,,,,, **=@ &%%& @**@ ,,,,,,,,",
",,,,,,, ++++++    ++++.. ,,,,,,,,,,, : +::>>:::##:::>>:;. ; ,,,,,,,,,, *=*@@ %&%%&% @@*@@ ,,,,,,,,,,, *=@  ==*    @**  @@@ ,,,,,,,,,,,, *==* %&%%&% @**@ ,,,,,,,",
",>,,,>,, +++++    ++... ,,>,,,,,,,,,,  ++::::++##++::::..  ,,,,,,,,,, *=*@@   &%%&   @@@@@ ,,,,,,,,,, *  =*@@@@@@@@@@**  @ ,,,,,,,,,,, *=**@ %&%%&% @**@@ ,,,,,,",
",,,,,,,      ++++++      ,,,,,,,,,,,,,, ++++++    ++++.. ,,,,,,,,,,,, *=@  ==*    @**  @@@ ,,,,,,,,,,  =*@@          @@**  ,,,,,,,,,,, *=*@@ %&%%&% @@*@@ ,,,,,,",
",,,,,, :: , $-$$$$OX , :: ,,,>>,,,,,,,,, +++++    ++... ,,,,,,,,,,,,, *  =*@@@@@@@@@@**  @ ,,,,,,,,,, *@@  ::::::::::  @@* ,,,,,,,,,, *=*@@   &%%&   @@@@@ ,,,,,",
",,,,,, :;$ $-*-$$-*-X $:; ,,,,,,,,,,,,,,,    ++++++    ,,,,,,,,,,,,,,  =*@@          @@**  ,,,,,,,,, *@  ::::::::::::::  @* ,,,,,,,,, *=@  ==*    @**  @@@ ,,,,,",
",,,,,,, X$$$--------$$$X ,,,,,,,,,,,,,,,,, X$-$$$$OXX ,,,,,,,,,,,,,,, *@@  ::::::::::  @@* ,,,,,,,, *@ +:   ::::::::   ;. @@ ,,,,,,,, *  =*@@@@@@@@@@**  @ ,,,,,",
",,,,,,,, XXX--oooo-OXXX ,,,>,,,,,,,,,,,,, X$-*-$$-*-XX ,,,,,,,,,,,,, *@  ::::::::::::::  @* ,,,,,,,  : +:::::::##::::::;. ;  ,,,,,,,,  =*@@          @@**  ,,,,,",
",>>,,>,,,   -------O   ,,,,,,,,,,,,,,,,, X$$--------X$X ,,,,,,,,,,, *@ +:   ::::::::   ;. @@ ,,,,,,, : +::>>:::##:::>>:;. ; ,,,,,,,,, *@@  ::::::::::  @@* ,,,,,",
",,,,,>,,,,, ------OO ,,,,,,,,,,,,,,,,,, X$$ --oooo-O $$X ,,,,,,,,,,  : +:::::::##::::::;. ;  ,,,,,,, : +::>>:::##:::>>:;. ; ,,,,,,,, *@  ::::::::::::::  @* ,,,,",
",,,,,,,,,,, --O  OOO ,,,,,,,,,,,,,,,,, :;$  -------O  $:; ,,,,,,,,,, : +::>>:::##:::>>:;. ; ,,,,,,,,,  ++::::++##++::::..  ,,,,,,,, *@ +:   ::::::::   ;. @@ ,,,",
",,,,,,,,,,, -O ,, -O ,,,,,,,,,,,,,,,,, :: , ------OO , :: ,,,,,,,,,  : +::>>:::##:::>>:;. ;  ,,,,,,,    ++++++    ++++..    ,,,,,,,  : +:::::::##::::::;. ;  ,,,",
",,,,,,,,,,, -O ,, -O ,,,,,,,,,,,,,,,,,,  ,, --O  OOO ,,  ,,,,,,,,, ::  ++::::++##++::::..  ;; ,,,,, ::$$ +++++    ++... XX;; ,,,,, : : +::  :::##:::  :;. ; ; ,,",
",,,,,,,,,,, +. ,, +. ,,,,,,,,,,,,,,,,,,,,,, -O ,, -O ,,,,,,,,,,,,, ::$$ ++++++    ++++.. XX;; ,,,,, ::$$$    ++++++    XXX;; ,,,,, : : +:::::::##::::::;. ; ; ,,"
};
