/* XPM */
static const char *_1zon_idle_front[] = {
/* columns rows colors chars-per-pixel */
"64 64 220 2 ",
"   c #1F1A1F",
".  c #0D111E",
"X  c #363D1C",
"o  c #0C1322",
"O  c #0A1424",
"+  c #111524",
"@  c #1A1C24",
"#  c #161C26",
"$  c #050E22",
"%  c #251E23",
"&  c #291F23",
"*  c #152425",
"=  c #1B2A26",
"-  c #1D3628",
";  c #1E2935",
":  c #2B2225",
">  c #292729",
",  c #322623",
"<  c #352925",
"1  c #3A2C25",
"2  c #332C28",
"3  c #392E2B",
"4  c #3C332A",
"5  c #393229",
"6  c #212A36",
"7  c #222C38",
"8  c #392E33",
"9  c #2B333D",
"0  c #27323D",
"q  c #3A3434",
"w  c #3C3835",
"e  c #2A3128",
"r  c #4C2C1E",
"t  c #59321E",
"y  c #502F1F",
"u  c #6A3A1F",
"i  c #432C25",
"p  c #43372B",
"a  c #523121",
"s  c #5A3E26",
"d  c #563A29",
"f  c #443638",
"g  c #453C3C",
"h  c #493A3B",
"j  c #453934",
"k  c #6A3D29",
"l  c #683B25",
"z  c #723E21",
"x  c #1D462A",
"c  c #25472B",
"v  c #3B4122",
"b  c #2C5331",
"n  c #37692D",
"m  c #3C702E",
"M  c #454A1B",
"N  c #484E1B",
"B  c #59501E",
"V  c #666A1F",
"C  c #594229",
"Z  c #494239",
"A  c #584737",
"S  c #4A492D",
"D  c #674A2B",
"F  c #734129",
"G  c #774926",
"H  c #7D542B",
"J  c #7B582A",
"K  c #694B37",
"L  c #695335",
"P  c #7A5937",
"I  c #744D2F",
"U  c #557632",
"Y  c #767829",
"T  c #2D3643",
"R  c #313F48",
"E  c #374A4C",
"W  c #4C4240",
"Q  c #48585C",
"!  c #545C49",
"~  c #745D50",
"^  c #6C564C",
"/  c #477245",
"(  c #556D55",
")  c #736650",
"_  c #445A62",
"`  c #495B60",
"'  c #54696C",
"]  c #5A757A",
"[  c #546D6D",
"{  c #647679",
"}  c #647A7D",
"|  c #697D7E",
" . c #6E6D67",
".. c #854929",
"X. c #8A4B2A",
"o. c #834727",
"O. c #984E2E",
"+. c #8C5A28",
"@. c #915C27",
"#. c #935E29",
"$. c #895336",
"%. c #965A38",
"&. c #824D31",
"*. c #956029",
"=. c #9D652A",
"-. c #9D692D",
";. c #8E6936",
":. c #886534",
">. c #9C663B",
",. c #A46B2C",
"<. c #A56A2C",
"1. c #BA752B",
"2. c #AD7D39",
"3. c #A77636",
"4. c #AF7635",
"5. c #B25234",
"6. c #CE5339",
"7. c #C7563A",
"8. c #D2573C",
"9. c #C47B2C",
"0. c #C87E2D",
"q. c #C57D3B",
"w. c #835B41",
"e. c #97695A",
"r. c #937A53",
"t. c #A96B45",
"y. c #A66844",
"u. c #BA7C58",
"i. c #A46F5A",
"p. c #A37C63",
"a. c #9A7963",
"s. c #D86D4E",
"d. c #DB7151",
"f. c #458332",
"g. c #42822D",
"h. c #54884A",
"j. c #55884D",
"k. c #688A53",
"l. c #708973",
"z. c #B2B310",
"x. c #BA833A",
"c. c #B6823A",
"v. c #AF803B",
"b. c #A4A625",
"n. c #969A0E",
"m. c #C9812F",
"M. c #CB8431",
"N. c #CC8A36",
"B. c #C78737",
"V. c #D28B35",
"C. c #D18B37",
"Z. c #DA973C",
"A. c #E29C3D",
"S. c #C4C707",
"D. c #C7C911",
"F. c #EFEF0B",
"G. c yellow",
"H. c #F3F30A",
"J. c #CFCF22",
"K. c #C5C523",
"L. c #D3D321",
"P. c #BA8B44",
"I. c #B8975A",
"U. c #AD8A4D",
"Y. c #889575",
"T. c #B99C62",
"R. c #AF8666",
"E. c #978053",
"W. c #DA9C43",
"Q. c #C68D52",
"!. c #DDA148",
"~. c #D9AB5B",
"^. c #E2A144",
"/. c #E6AB4E",
"(. c #E5AE55",
"). c #E7B159",
"_. c #C2856D",
"`. c #C98C69",
"'. c #D48B6A",
"]. c #C39675",
"[. c #C69876",
"{. c #CA9C79",
"}. c #C79978",
"|. c #D4956F",
" X c #E38C67",
".X c #D4A37D",
"XX c #D3AA7B",
"oX c #E8BA65",
"OX c #E3A678",
"+X c #E9AA7C",
"@X c #E6A87B",
"#X c #F3A87C",
"$X c #E19F41",
"%X c #EEC069",
"&X c #637E81",
"*X c #6D8385",
"=X c #688484",
"-X c #73898A",
";X c #708487",
":X c #769484",
">X c #7B9393",
",X c #7F9795",
"<X c #969A88",
"1X c #849A99",
"2X c #859895",
"3X c #8B8F98",
"4X c #D5A782",
"5X c #EBAC80",
"6X c #FBAE85",
"7X c #F7B98C",
"8X c #EEB081",
"9X c #FFC08F",
"0X c #FFC392",
"qX c #FFC895",
"wX c #F8C59B",
"eX c #D1C1B9",
"rX c #FBCDA5",
"tX c #FFE6D0",
"yX c None",
"uX c black",
/* pixels */
"yXyXyXyXyXyXyXyXyXyXyXyXyXyXyXyXyXyXyXyXyXyXyXyXyXyXyXyXyXyXyXyXyXyXyXyXyXyXyXyXyXyXyXyXyXyXyXyXyXyXyXyXyXyXyXyXyXyXyXyXyXyXyXyX",
"yXyXyXyXyXyXyXyXyXyXyXyXyXyXyXyXyXyXyXyXyXyXyXyXyXyXyXyXyXyXyXyXyXyXyXyXyXyXyXyXyXyXyXyXyXyXyXyXyXyXyXyXyXyXyXyXyXyXyXyXyXyXyXyX",
"yXyXyXyXyXyXyXyXyXyXyXyXyXyXyXyXyXyXyXyXyXyXyXyXyXyX+ + o O O O O O O o + + yXyXyXyXyXyXyXyXyXyXyXyXyXyXyXyXyXyXyXyXyXyXyXyXyXyX",
"yXyXyXyXyXyXyXyXyXyXyXyXyXyXyXyXyXyXyXyXyXyXyXyXyXyX+ = w Z Z Z Z Z p 4 @ + yXyXyXyXyXyXyXyXyXyXyXyXyXyXyXyXyXyXyXyXyXyXyXyXyXyX",
"yXyXyXyXyXyXyXyXyXyXyXyXyXyXyXyXyXyXyXyXyXyXo o o O o w r.T.I.I.I.I.P.:.4 o o o o o yXyXyXyXyXyXyXyXyXyXyXyXyXyXyXyXyXyXyXyXyXyX",
"yXyXyXyXyXyXyXyXyXyXyXyXyXyXyXyXyXyXyXyXyXyX4 p 4 : @ w r.T.T.T.T.I.P.:.2 # : 4 p 4 yXyXyXyXyXyXyXyXyXyXyXyXyXyXyXyXyXyXyXyXyXyX",
"yXyXyXyXyXyXyXyXyXyXyXyXyXyXyXyXyXyXo O $ 4 ;.3.-.G : @ q g g g g j p 2 @ < G -.3.;.4 $ O o yXyXyXyXyXyXyXyXyXyXyXyXyXyXyXyXyXyX",
"yXyXyXyXyXyXyXyXyXyXyXyXyXyXyXyXyXyX4 p 4 L P.^.V.*.1 # e v M N N M v e # 1 *.V.A.x.L 4 1 < yXyXyXyXyXyXyXyXyXyXyXyXyXyXyXyXyXyX",
"yXyXyXyXyXyXyXyXyXyXyXyXyXyXyXyX$ 4 :.2.2.P.~.).C.#.< e Y b.z.S.S.z.b.Y e < #.M.Z.W.x.3.-.G 2 $ yXyXyXyXyXyXyXyXyXyXyXyXyXyXyXyX",
"yXyXyXyXyXyXyXyXyXyXyXyXyXyXyXyX4 L P././.(.oX~.3.J B V b.L.H.G.G.H.L.b.V B J ,.B.Z.^.Z.V.,.C 2 yXyXyXyXyXyXyXyXyXyXyXyXyXyXyXyX",
"yXyXyXyXyXyXyXyXyXyXyXyXyXyX$ 4 :.P.~.oXoXoX(.P.D B n.D.K.L.H.G.G.H.L.K.D.n.B s ,.V.Z.$XZ.N.,.G 2 $ yXyXyXyXyXyXyXyXyXyXyXyXyXyX",
"yXyXyXyXyXyXyXyXyXyXyXyXyXyX4 L P.(.oXoXoX).!.3.3 M S.H.L.J.F.G.G.F.J.L.H.S.N < @.M.Z.!.!.Z.M.<.s < yXyXyXyXyXyXyXyXyXyXyXyXyXyX",
"yXyXyXyXyXyXyXyXyXyXyXyXo 4 :.P.~.oX(././.!.C.*.< N S.H.L.J.H.G.G.F.J.L.H.S.N < @.M.Z.^.!.Z.M.1.=.G < o yXyXyXyXyXyXyXyXyXyXyXyX",
"yXyXyXyXyXyXyXyXyXyXyXyXO p 2./.oXoX/.Z.Z.C.m.#.< N S.H.L.J.F.G.G.F.J.L.H.S.N < #.m.C.Z.W.Z.B.9.9.*.1 O yXyXyXyXyXyXyXyXyXyXyXyX",
"yXyXyXyXyXyXyXyXyXyXyXyX$ 4 2./.oXoX/.Z.M.0.0.#.< N S.H.L.J.F.G.G.F.J.L.H.S.N < #.0.0.N.Z.Z.B.9.9.#.1 O yXyXyXyXyXyXyXyXyXyXyXyX",
"yXyXyXyXyXyXyXyXyXyXyXyX4 L P.(.oX).!.C.0.1.=.D : X n.D.K.L.H.G.G.H.L.K.D.n.X : D =.1.m.C.C.0.1.9.=.C < yXyXyXyXyXyXyXyXyXyXyXyX",
"yXyXyXyXyXyXyXyXyXyXo 4 ;.P.~.oX(.W.N.m.0.<.s : + @ X V b.L.H.G.G.H.L.b.V X @ + : s <.0.m.m.9.1.1.1.<.H 1 o yXyXyXyXyXyXyXyXyXyX",
"yXyXyXyXyXyXyXyXyXyXo p 2./.%XoX!.B.<.@.#.H A g Z j 4 S Y b.z.S.S.z.b.Y S 1 4 p 4 d H #.#.=.1.9.9.9.0.*.1 o yXyXyXyXyXyXyXyXyXyX",
"yXyXyXyXyXyXyXyXyXyXo p 2./.%XoXW.,.s , , A r.T.T.I.U.;.S v M N N M v S H -.3.c.v.;.d 2 2 s <.9.9.9.9.*.1 o yXyXyXyXyXyXyXyXyXyX",
"yXyXyXyXyXyXyXyXyXyXo p 2.!.Q.U.>.H A w 4 L I.oXoX).^.2.D < < 1 1 < < s <.M.Z.A.A.c.D 4 4 C H #.#.=.1.*.1 o yXyXyXyXyXyXyXyXyXyX",
"yXyXyXyXyXyXyXyXyXyXo p c.Q.L w 2 A r.I.U.c.B.C.C.C.N.9.,.#.#.#.#.#.#.<.1.0.M.M.M.B.2.2.2.;.d 2 2 s ,.*.1 o yXyXyXyXyXyXyXyXyXyX",
"yXyXyXyXyXyXyXyXyXyXo 3 :.;.A w 4 L I.).^.N.<.@.@.@.@.@.#.*.*.*.*.*.*.#.#.#.@.@.@.,.N.A.A.c.D 4 4 C &.G 2 o yXyXyXyXyXyXyXyXyXyX",
"yXyXyXyXyXyXyXyXyXyX+ @ 2 A E.I.U.c.B.C.V.,.s , , < < < 1 1 1 1 1 1 1 1 < < < , , C ,.M.M.B.2.2.2.;.d : # + yXyXyXyXyXyXyXyXyXyX",
"yXyXyXyXyXyXyXyXyXyXo # 2 L I.).^.N.<.@.@.H A g g g g g g g g g g g g g g g g g g A H @.@.,.N.A.A.x.D 2 # o yXyXyXyXyXyXyXyXyXyX",
"yXyXyXyXyXyXyXyXyXyXO 2 :.c.N.C.V.,.s , , A p.}.[.].].].].].].].].].].].].].].[.}.p.A , , s ,.M.M.B.c.:.2 O yXyXyXyXyXyXyXyXyXyX",
"yXyXyXyXyXyXyXyXyXyX4 L x.N.,.@.@.H A g g ~ .XqXqX0X0X0X0X0X0X0X0X0X0X0X0X0X0XqXqX4X~ g g A &.@.@.,.C.x.L 4 yXyXyXyXyXyXyXyXyXyX",
"yXyXyXyXyXyXyXyX$ 4 ;.x.M.,.C , , A R.{.{..X7XqX0X0X0X0X0X0X0X0X0X0X0X0X0X0X0X0XqX7X.X{.{.p.A , , C ,.M.x.;.4 $ yXyXyXyXyXyXyXyX",
"yXyXyXyXyXyXyXyX4 L c.N.,.G i > q ^ R.{.{.[.]..X7X0X0X0X0X0X0X0X0X0X0X9X0X0X0X7X.X].[.{.{.R.^ 8 : 1 G ,.N.2.D < yXyXyXyXyXyXyXyX",
"yXyXyXyXyXyXo 4 ;.x.m.,.C i d $.R.R.^ g g g f ~ .X0X0X9X0X0X0X0X0X0X0X0X0X0X0X.X~ f g g g ^ p.i.K i 1 C ,.9.<.H 1 o yXyXyXyXyXyX",
"yXyXyXyXyXyXo 3 :.x.Q.>.5 % l t.+X4X~ f f g g ~ .X0X0X0X0X7X6X#X#X6X7X0X0X0X0X.X~ f g g f ~ |.'.%.r @ 3 >.q.,.G 2 o yXyXyXyXyXyX",
"yXyXyXyXyXyX+ @ 2 P `.R.g % l t.@X7X.X].].].]..X7X0X0X0X0X6X Xs.s. X6X0X0X0X0X7X.X].[.[.].{.5X'.$.r @ f u.Q.K : @ + yXyXyXyXyXyX",
"yXyXyXyXyXyX+ o O W {.{.W % l y.OX0X0XqXrXwX4X.X7X0X0X0X0X#Xs.6.6.s.#X0X0X9X9XqXrXwX4X.X7X7X6X'.$.r   h _._.h O o + yXyXyXyXyXyX",
"yXyXyXyXyXyXyXyXO Z {.{.W % l y.OX0X0XrXtXeX .~ .X0X0X0X0X#Xd.6.6.d.#X0X0X9X9XrXtXeX .~ .X0X6X'.$.r @ h _._.h O yXyXyXyXyXyXyXyX",
"yXyXyXyXyXyXyXyXO Z {.{.W & l t.OX0X0XwXeX3XT f ].0X0X0X0X#Xd.6.6.d.#X0X0X0X9XwXeX3XT f ].0X6X'.$.r @ h _._.h o yXyXyXyXyXyXyXyX",
"yXyXyXyXyXyXyXyXO W {.{.W % l y.@XqX0X4X .T + f ].0X0X0X0X#Xd.6.6.d.#X0X0X0X0X4X .T + f ].0X6X'.$.r   h _._.h o yXyXyXyXyXyXyXyX",
"yXyXyXyXyXyXyXyXO g p.a.w & l >.`.8X9X.X~ f g ~ .X7X+XOXOX Xs.6.6.s. XOXOX+X7X.X~ f g ~ .X7XOXu.&.r % q e.e.f o yXyXyXyXyXyXyXyX",
"yXyXyXyXyXyXyXyXyXyXg q = : k O.%.u.5X7X.X].[.4X7X5Xu.y.y.t.7.8.8.7.t.y.y.u.5X7X.X].[.4X7X@Xi.H z a % @ q f yXyXyXyXyXyXyXyXyXyX",
"yXyXyXyXyXyXyXyXyXyXO O o : d F G %.`.OX+X+X+X+X@X`.%.o.o.O.5.7.7.5.O.o.o.%.`.OX+X+X+X@XOXR.&.t t i % o O O yXyXyXyXyXyXyXyXyXyX",
"yXyXyXyXyXyXyXyXyXyXyXyXyXyX: i F O.>.y.t.t.t.t.y.>.$...X.X.O.O.O.O.X.....$.>.y.t.t.t.y.%.&.F t , % yXyXyXyXyXyXyXyXyXyXyXyXyXyX",
"yXyXyXyXyXyXyXyXyXyXyXyXyXyXO : d F o.X.X.........X.X...F k k k k k k F ..X.X...o.G o.F u t a i % o yXyXyXyXyXyXyXyXyXyXyXyXyXyX",
"yXyXyXyXyXyXyXyXyXyXyXyXyXyXyXyX: i F X.X.X.X.X.X.X.X.F i : : : : : : i F X.X.o.F z z z u a , % yXyXyXyXyXyXyXyXyXyXyXyXyXyXyXyX",
"yXyXyXyXyXyXyXyXyXyXyXyXyXyXyXyXO : d k k k k k k F ..F i : : : : : : i F ..F l a a a a a i % o yXyXyXyXyXyXyXyXyXyXyXyXyXyXyXyX",
"yXyXyXyXyXyXyXyXyXyXyXyXyXyXyXyXyXyX: : : : : : : i F o.F k k k k k k F ..F i : % % % % % % yXyXyXyXyXyXyXyXyXyXyXyXyXyXyXyXyXyX",
"yXyXyXyXyXyXyXyXyXyXyXyXyXyXyXyXyXyXo o o o o # * w L w.P J J J J J J J P K e * + + + + o o yXyXyXyXyXyXyXyXyXyXyXyXyXyXyXyXyXyX",
"yXyXyXyXyXyXyXyXyXyXyXyXyXyXyXyXyXyXyXyXyXyXo = b / | l.( U U U U U U U ( ` b - * + yXyXyXyXyXyXyXyXyXyXyXyXyXyXyXyXyXyXyXyXyXyX",
"yXyXyXyXyXyXyXyXyXyXyXyXyXyXyXyXyXyXyXyXyXyX= c / k.Y.Y.k.h.f.f.f.f.h.j.l. .( b - * yXyXyXyXyXyXyXyXyXyXyXyXyXyXyXyXyXyXyXyXyXyX",
"yXyXyXyXyXyXyXyXyXyXyXyXyXyXyXyXyXyXyXyXo = b / l.Y.I.I.Y.l.h.g.g.h.l.Y.I.I.Y.[ E - * + yXyXyXyXyXyXyXyXyXyXyXyXyXyXyXyXyXyXyXyX",
"yXyXyXyXyXyXyXyXyXyXyXyXyXyXyXyXyXyXyXyX= c m h.:X<XT.T.<X:Xk.h.h.k.:X<XT.T.<X*X/ b - * yXyXyXyXyXyXyXyXyXyXyXyXyXyXyXyXyXyXyXyX",
"yXyXyXyXyXyXyXyXyXyXyXyXyXyXyXyXyXyX+ = b m U h.:X2X<X<X2X,X:Xl.l.:X1X2X<X<X2X:Xh.n b - * + yXyXyXyXyXyXyXyXyXyXyXyXyXyXyXyXyXyX",
"yXyXyXyXyXyXyXyXyXyXyXyXyXyXyXyXyXyX+ = n f.m / l.1X1X>X-X*X*X;X;X*X*X-X>X,X>Xl./ n b c * + yXyXyXyXyXyXyXyXyXyXyXyXyXyXyXyXyXyX",
"yXyXyXyXyXyXyXyXyXyXyXyXyXyXyXyXyXyX+ - n m c E | 1X1X-X' Q ` ` ` Q Q ' -X>X*X' b - c c * + yXyXyXyXyXyXyXyXyXyXyXyXyXyXyXyXyXyX",
"yXyXyXyXyXyXyXyXyXyXyXyXyXyXyXyXyXyXo = n n = 9 { 1X1X-X' Q Q Q ` Q Q ' -X>X&X_ 6 * x x * o yXyXyXyXyXyXyXyXyXyXyXyXyXyXyXyXyXyX",
"yXyXyXyXyXyXyXyXyXyXyXyXyXyXyXyXyXyXO = n n = 9 { 1X1X>X-X*X*X*X*X*X*X-X>X>X&X_ 6 * x x * o yXyXyXyXyXyXyXyXyXyXyXyXyXyXyXyXyXyX",
"yXyXyXyXyXyXyXyXyXyXyXyXyXyXyXyXyXyXg ! k.U e 9 { 1X1X2X1X1X1X1X1X1X1X2X>X-X} _ 6 > S ! Z f yXyXyXyXyXyXyXyXyXyXyXyXyXyXyXyXyXyX",
"yXyXyXyXyXyXyXyXyXyXyXyXyXyXyXyXO g p..XXXR.w 9 { 1X1X2X1X1X1X1X1X1X1X>X*X] ] _ ; q e.`._.e.f O yXyXyXyXyXyXyXyXyXyXyXyXyXyXyXyX",
"yXyXyXyXyXyXyXyXyXyXyXyXyXyXyXyXO g ].0X0X].h 0 { 1X1X2X>X-X| { { | -X-X] ] ] _ ; h _.6X6X_.h O yXyXyXyXyXyXyXyXyXyXyXyXyXyXyXyX",
"yXyXyXyXyXyXyXyXyXyXyXyXyXyXyXyXO h _.7X7X_.h 9 { 1X1X>X*X[ E 9 9 E [ } ] ] ] _ ; h _.6X6X_.h O yXyXyXyXyXyXyXyXyXyXyXyXyXyXyXyX",
"yXyXyXyXyXyXyXyXyXyXyXyXyXyXyXyXO f e._._.e.8 9 { 1X>X*X' E ; . . ; E ' ] } ] _ ; 8 e._._.e.f O yXyXyXyXyXyXyXyXyXyXyXyXyXyXyXyX",
"yXyXyXyXyXyXyXyXyXyXyXyXyXyXyXyXyXyXf h h 8 @ 9 } >X*X' R ; yXyXyXyX; E { -X&X_ 7 @ 8 h h f yXyXyXyXyXyXyXyXyXyXyXyXyXyXyXyXyXyX",
"yXyXyXyXyXyXyXyXyXyXyXyXyXyXyXyXyXyXO O O O o T } >X&X_ 6 . yXyXyXyX. 9 } >X=X_ 7 o o O O O yXyXyXyXyXyXyXyXyXyXyXyXyXyXyXyXyXyX",
"yXyXyXyXyXyXyXyXyXyXyXyXyXyXyXyXyXyXyXyXyXyXo T } >X=X_ 6 o yXyXyXyX. 9 } >X=X_ 7 o yXyXyXyXyXyXyXyXyXyXyXyXyXyXyXyXyXyXyXyXyXyX",
"yXyXyXyXyXyXyXyXyXyXyXyXyXyXyXyXyXyXyXyXyXyXo 9  .l. .Q 6 + yXyXyXyXo 9  .l. .Q 6 + yXyXyXyXyXyXyXyXyXyXyXyXyXyXyXyXyXyXyXyXyXyX",
"yXyXyXyXyXyXyXyXyXyXyXyXyXyXyXyXyXyXyXyXyXyXo > K w.K j > + yXyXyXyXo > K w.K j > o yXyXyXyXyXyXyXyXyXyXyXyXyXyXyXyXyXyXyXyXyXyX",
"yXyXyXyXyXyXyXyXyXyXyXyXyXyXyXyXyXyXyXyXyXyXo : k o.z y % + yXyXyXyXo : k o.z y % o yXyXyXyXyXyXyXyXyXyXyXyXyXyXyXyXyXyXyXyXyXyX"
};
