/* XPM */
static char *xpm_[] = {
/* columns rows colors chars-per-pixel */
"96 96 7 1 ",
"  c #131313",
". c #891E2B",
"X c #C42430",
"o c #EA323C",
"O c #884B2B",
"+ c #F5555D",
"@ c None",
/* pixels */
"@@@@@@@@@@@@@@@@@@@@@@@@@@@@@@@@@@@@@@@@@@@@@@@@@@@@@@@@@@@@@@@@@@@@@@@@@@@@@@@@@@@@@@@@@@@@@@@@",
"@@@@@@@@@@@@@@@@@@@@@@@@@@@@@@@@@@@@@@@@@@@@@@@@@@@@@@@@@@@@@@@@@@@@@@@@@@@@@@@@@@@@@@@@@@@@@@@@",
"@@@@@@@@@@@@@@@@@@@@@@@@@@@@@@@@@@@@@@@@@@@@@@@@@@@@@@@@@@@@@@@@@@@@@@@@@@@@@@@@@@@@@@@@@@@@@@@@",
"@@@@@@@@@@@@@@@@@@@@@@@@@@@@@@@@@@@@@@@@@@@@@@@@@@@@@@@@@@@@@@@@@@@@@@@@@@@@@@@@@@@@@@@@@@@@@@@@",
"@@@@@@@@@@@@@@@@@@@@@@@@@ @@@@@@@@@@@@@@@@@@@@@@@@@@@@@@@@@@@@@@@@@@@@@@@@@@@@@@@@@@@@@@@@@@@@@@",
"@@@@@@@@@@@@@@@@@@@@@@@@ O @@@@@@@@@@@@@@@@@@@@@@@@@@@@@@@@@@@@@@@@@@@@@@@@@@@@@@@@@@@@ @@@@@@@@",
"@@@@@@@@@@@@@@@@@@@@@@@@ O @@@@@@@@@@@@@@@@@@@@@@@@@@@@ @@@@@@@@@@@@@@@@@@@@@@@@@@@@@@ O @@@@@@@",
"@@@@@@@@@@@@@@@@@@@@@@@@ O @@@@@@@@@@@@@@@@@@@@@@@@@@@ O @@@@@@@@@@@@@@@@@@@@@@@@@@@@@ O @@@@@@@",
"@@@@@@@@@@@@@@@@@@   @@ O @@@@@@@@@@@@@@@@@@@@@@@@@@@@ O @@@@@@@@@@@@@@@@@@@@@@@@@@@@@ O @@@@@@@",
"@@@@@@@@@@@@@@@@@ .XX  O @@@@@@@@@@@@@@@@@@@@@@@@@@@@@ O @@@@@@@@@@@@@@@@@@@@@@@@   @ O @@@@@@@@",
"@@@@@@@@@@@@@@@@ o .X O @@@@@@@@@@@@@@@@@@@@@@@@@   @ O @@@@@@@@@@@@@@@@@@@@@@@@  .X O @@@@@@@@@",
"@@@@@@@@@@@@@@@ oo . O  @@@@@@@@@@@@@@@@@@@@@@@@  .X O @@@@@@@@@@@@@@@@@@@@@@@@ o . O @@@@@@@@@@",
"@@@@@@@@@@@@@@ oo+o . X. @@@@@@@@@@@@@@@@@@@@@@ o . O @@@@@@@@@@@@@@@@@@@@@@@@ ooo . X @@@@@@@@@",
"@@@@@@@@@@@@@ oo+ooo ... @@@@@@@@@@@@@@@@@@@@@ ooo . X @@@@@@@@@@@@@@@@@@@@@@@ o+oo .. @@@@@@@@@",
"@@@@@@@@@@@@ oo+ooooo  . @@@@@@@@@@@@@@@@@@@@ oo+oo .. @@@@@@@@@@@@@@@@@@@@@@ o+oooo   @@@@@@@@@",
"@@@@@@@@@@@ oo+oooooXXX @@@@@@@@@@@@@@@@@@@@ oo+oooo   @@@@@@@@@@@@@@@@@@@@@ oo+ooooX @@@@@@@@@@",
"@@@@@@@@@@ oo+oooooXXX @@@@@@@@@@@@@@@@@@@@ oo+ooooXX @@@@@@@@@@@@@@@@@@@@@ oo+ooooX @@@@@@@@@@@",
"@@@@@@@@@ oo+oooooXXX @@@@@@@@@@@@@@@@@@@@ oo+ooooXX @@@@@@@@@@@@@@@@@@@@@ oo+ooooX @@@@@@@@@@@@",
"@@@@@@@@ oo+oooooXXX @@@@@@@@@@@@@@@@@@@@ oo+ooooXX @@@@@@@@@@@@@@@@@@@@@ oo+oooooX @@@@@@@@@@@@",
"@@@@@@@ oo+oooooXXX @@@@@@@@@@@@@@@@@@@@ oo+ooooXX @@@@@@@@@@@@@@@@@@@@@@ o+oooooX @@@@@@@@@@@@@",
"@@@@@@ oo+oooooXXX @@@@@@@@@@@@@@@@@@@@ Xo+ooooXX @@@@@@@@@@@@@@@@@@@@@@ oo+ooooX @@@@@@@@@@@@@@",
"@@@@@ Xo+oooooXXX @@@@@@@@@@@@@@@@@@@@@ X+ooooXX @@@@@@@@@@@@@@@@@@@@@@ Xo+ooooX @@@@@@@@@@@@@@@",
"@@@@@ XooooooXXX @@@@@@@@@@@@@@@@@@@@@@ XooooXX @@@@@@@@@@@@@@@@@@@@@@@ X+ooooX @@@@@@@@@@@@@@@@",
"@@@@@ XoooooXXX @@@@@@@@@@@@@@@@@@@@@@@@ XooXX @@@@@@@@@@@@@@@@@@@@@@@@ XooooX @@@@@@@@@@@@@@@@@",
"@@@@@@ XoooXXX @@@@@@@@@@@@@@@@@@@@@@@@@@ XXX @@@@@@@@@@@@@@@@@@@@@@@@@@ XooXX @@@@@@@@@@@@@@@@@",
"@@@@@@@ XXXXX @@@@@@@@@@@@@@@@@@@@@@@@@@@@   @@@@@@@@@@@@@@@@@@@@@@@@@@@@ XXX @@@@@@@@@@@@@@@@@@",
"@@@@@@@@ XXX @@@@@@@@@@@@@@@@@@@@@@@@@@@@@@@@@@@@@@@@@@@@@@@@@@@@@@@@@@@@@   @@@@@@@@@@@@@@@@@@@",
"@@@@@@@@@   @@@@@@@@@@@@@@@@@@@@@@@@@@@@@@@@@@@@@@@@@@@@@@@@@@@@@@@@@@@@@@@@@@@@@@@@@@@@@@@@@@@@",
"@@@@@@@@@@@@@@@@@@@@@@@@@@@@@@@@@@@@@@@@@@@@@@@@@@@@@@@@@@@@@@@@@@@@@@@@@@@@@@@@@@@@@@@@@@@@@@@@",
"@@@@@@@@@@@@@@@@@@@@@@@@@@@@@@@@@@@@@@@@@@@@@@@@@@@@@@@@@@@@@@@@@@@@@@@@@@@@@@@@@@@@@@@@@@@@@@@@",
"@@@@@@@@@@@@@@@@@@@@@@@@@@@@@@@@@@@@@@@@@@@@@@@@@@@@@@@@@@@@@@@@@@@@@@@@@@@@@@@@@@@@@@@@@@@@@@@@",
"@@@@@@@@@@@@@@@@@@@@@@@@@@@@@@@@@@@@@@@@@@@@@@@@@@@@@@@@@@@@@@@@@@@@@@@@@@@@@@@@@@@@@@@@@@@@@@@@",
"@@@@@@@@@@@@@@@@@@@@@@@@@@@@@@@@@@@@@@@@@@@@@@@@@@@@@@@@@@@@@@@@@@@@@@@@@@@@@@@@@@@@@@@@@@@@@@@@",
"@@@@@@@@@@@@@@@@@@@@@@@@@@@@@@@@@@@@@@@@@@@@@@@@@@@@@@@@@@@@@@@@@@@@@@@@@@@@@@@@@@@@@@@@@@@@@@@@",
"@@@@@@@@@@@@@@@@@@@@@@@@@@@@@@@@@@@@@@@@@@@@@@@@@@@@@@@@@@@@@@@@@@@@@@@@@@@@@@@@@@@@@@@@@@@@@@@@",
"@@@@@@@@@@@@@@@@@@@@@@@@@@@@@@@@@@@@@@@@@@@@@@@@@@@@@@@@@@@@@@@@@@@@@@@@@@@@@@@@@@@@@@@@@@@@@@@@",
"@@@@@@@@@@@@@@@@@@@@@@@@ @@@@@@@@@@@@@@@@@@@@@@@@@@@@@@@@@@@@@@@@@@@@@@@@@@@@@@@@@@@@@@@@@@@@@@@",
"@@@@@@@@@@@@@@@@@@@@@@@ O @@@@@@@@@@@@@@@@@@@@@@@@@@@@@ @@@@@@@@@@@@@@@@@@@@@@@@@@@@@@@@@@@@@@@@",
"@@@@@@@@@@@@@@@@@@@@@@@ O @@@@@@@@@@@@@@@@@@@@@@@@@@@@ O @@@@@@@@@@@@@@@@@@@@@@@@@@@@@@ @@@@@@@@",
"@@@@@@@@@@@@@@@@@@@@@@@ O @@@@@@@@@@@@@@@@@@@@@@@@@@@@ O @@@@@@@@@@@@@@@@@@@@@@@@@@@@@ O @@@@@@@",
"@@@@@@@@@@@@@@@@@@   @ O @@@@@@@@@@@@@@@@@@@@@@@@@@@@@ O @@@@@@@@@@@@@@@@@@@@@@@@@@@@@ O @@@@@@@",
"@@@@@@@@@@@@@@@@@  .X O @@@@@@@@@@@@@@@@@@@@@@@@@   @ O @@@@@@@@@@@@@@@@@@@@@@@@@@@@@@ O @@@@@@@",
"@@@@@@@@@@@@@@@@ o . O @@@@@@@@@@@@@@@@@@@@@@@@@  .X O @@@@@@@@@@@@@@@@@@@@@@@@@@   @ O @@@@@@@@",
"@@@@@@@@@@@@@@@  oo . X @@@@@@@@@@@@@@@@@@@@@@@ o . O @@@@@@@@@@@@@@@@@@@@@@@@@@  .X O @@@@@@@@@",
"@@@@@@@@@@@@@@@ o+oo .. @@@@@@@@@@@@@@@@@@@@@@ ooo . X @@@@@@@@@@@@@@@@@@@@@@@@ o . O @@@@@@@@@@",
"@@@@@@@@@@@@@@ o+oooo   @@@@@@@@@@@@@@@@@@@@@@ o+oo .. @@@@@@@@@@@@@@@@@@@@@@@ ooo . X @@@@@@@@@",
"@@@@@@@@@@@@@ oo+ooooX @@@@@@@@@@@@@@@@@@@@@@ o+oooo   @@@@@@@@@@@@@@@@@@@@@@ oo+oo .. @@@@@@@@@",
"@@@@@@@@@@@@ oo+ooooX @@@@@@@@@@@@@@@@@@@@@@ oo+ooooX @@@@@@@@@@@@@@@@@@@@@@ oo+oooo   @@@@@@@@@",
"@@@@@@@@@@@@ o+oooooX @@@@@@@@@@@@@@@@@@@@@ oo+ooooX @@@@@@@@@@@@@@@@@@@@@@ oo+ooooXX @@@@@@@@@@",
"@@@@@@@@@@@ o+oooooX @@@@@@@@@@@@@@@@@@@@@ oo+ooooX @@@@@@@@@@@@@@@@@@@@@@ oo+ooooXX @@@@@@@@@@@",
"@@@@@@@@@@ oo+ooooX @@@@@@@@@@@@@@@@@@@@@ oo+oooooX @@@@@@@@@@@@@@@@@@@@@ oo+ooooXX @@@@@@@@@@@@",
"@@@@@@@@@ oo+ooooX @@@@@@@@@@@@@@@@@@@@@@ o+oooooX @@@@@@@@@@@@@@@@@@@@@ oo+ooooXX @@@@@@@@@@@@@",
"@@@@@@@@ oo+ooooX @@@@@@@@@@@@@@@@@@@@@@ oo+ooooX @@@@@@@@@@@@@@@@@@@@@ Xo+ooooXX @@@@@@@@@@@@@@",
"@@@@@@@@ o+oooooX @@@@@@@@@@@@@@@@@@@@@ Xo+ooooX @@@@@@@@@@@@@@@@@@@@@@ X+ooooXX @@@@@@@@@@@@@@@",
"@@@@@@@ Xo+ooooX @@@@@@@@@@@@@@@@@@@@@@ X+ooooX @@@@@@@@@@@@@@@@@@@@@@@ XooooXX @@@@@@@@@@@@@@@@",
"@@@@@@@ X+ooooX @@@@@@@@@@@@@@@@@@@@@@@ XooooX @@@@@@@@@@@@@@@@@@@@@@@@@ XooXX @@@@@@@@@@@@@@@@@",
"@@@@@@@ XooooX @@@@@@@@@@@@@@@@@@@@@@@@@ XooXX @@@@@@@@@@@@@@@@@@@@@@@@@@ XXX @@@@@@@@@@@@@@@@@@",
"@@@@@@@@ XooX @@@@@@@@@@@@@@@@@@@@@@@@@@@ XXX @@@@@@@@@@@@@@@@@@@@@@@@@@@@   @@@@@@@@@@@@@@@@@@@",
"@@@@@@@@@ XXX @@@@@@@@@@@@@@@@@@@@@@@@@@@@   @@@@@@@@@@@@@@@@@@@@@@@@@@@@@@@@@@@@@@@@@@@@@@@@@@@",
"@@@@@@@@@@   @@@@@@@@@@@@@@@@@@@@@@@@@@@@@@@@@@@@@@@@@@@@@@@@@@@@@@@@@@@@@@@@@@@@@@@@@@@@@@@@@@@",
"@@@@@@@@@@@@@@@@@@@@@@@@@@@@@@@@@@@@@@@@@@@@@@@@@@@@@@@@@@@@@@@@@@@@@@@@@@@@@@@@@@@@@@@@@@@@@@@@",
"@@@@@@@@@@@@@@@@@@@@@@@@@@@@@@@@@@@@@@@@@@@@@@@@@@@@@@@@@@@@@@@@@@@@@@@@@@@@@@@@@@@@@@@@@@@@@@@@",
"@@@@@@@@@@@@@@@@@@@@@@@@@@@@@@@@@@@@@@@@@@@@@@@@@@@@@@@@@@@@@@@@@@@@@@@@@@@@@@@@@@@@@@@@@@@@@@@@",
"@@@@@@@@@@@@@@@@@@@@@@@@@@@@@@@@@@@@@@@@@@@@@@@@@@@@@@@@@@@@@@@@@@@@@@@@@@@@@@@@@@@@@@@@@@@@@@@@",
"@@@@@@@@@@@@@@@@@@@@@@@@@@@@@@@@@@@@@@@@@@@@@@@@@@@@@@@@@@@@@@@@@@@@@@@@@@@@@@@@@@@@@@@@@@@@@@@@",
"@@@@@@@@@@@@@@@@@@@@@@@@@@@@@@@@@@@@@@@@@@@@@@@@@@@@@@@@@@@@@@@@@@@@@@@@@@@@@@@@@@@@@@@@@@@@@@@@",
"@@@@@@@@@@@@@@@@@@@@@@@@@@@@@@@@@@@@@@@@@@@@@@@@@@@@@@@@@@@@@@@@@@@@@@@@@@@@@@@@@@@@@@@@@@@@@@@@",
"@@@@@@@@@@@@@@@@@@@@@@@@@@@@@@@@@@@@@@@@@@@@@@@@@@@@@@@@@@@@@@@@@@@@@@@@@@@@@@@@@@@@@@@@@@@@@@@@",
"@@@@@@@@@@@@@@@@@@@@@@@@@@@@@@@@@@@@@@@@@@@@@@@@@@@@@@@@@@@@@@@@@@@@@@@@@@@@@@@@@@@@@@@@@@@@@@@@",
"@@@@@@@@@@@@@@@@@@@@@@@@@@@@@@@@@@@@@@@@@@@@@@@@@@@@@@@@@@@@@@@@@@@@@@@@@@@@@@@@@@@@@@@@@@@@@@@@",
"@@@@@@@@@@@@@@@@@@@@@@@@@@@@@@@@@@@@@@@@@@@@@@@@@@@@@@@@@@@@@@@@@@@@@@@@@@@@@@@@@@@@@@@@@@@@@@@@",
"@@@@@@@@@@@@@@@@@@@@@@@ @@@@@@@@@@@@@@@@@@@@@@@@@@@@@@@@@@@@@@@@@@@@@@@@@@@@@@@@@@@@@@@ @@@@@@@@",
"@@@@@@@@@@@@@@@@@@@@@@ O @@@@@@@@@@@@@@@@@@@@@@@@@@@@@ @@@@@@@@@@@@@@@@@@@@@@@@@@@@@@@ O @@@@@@@",
"@@@@@@@@@@@@@@@@@@@@@@ O @@@@@@@@@@@@@@@@@@@@@@@@@@@@ O @@@@@@@@@@@@@@@@@@@@@@@@@@@@@@ O @@@@@@@",
"@@@@@@@@@@@@@@@@@@@@@@ O @@@@@@@@@@@@@@@@@@@@@@@@@@@@ O @@@@@@@@@@@@@@@@@@@@@@@@@@@@@@ O @@@@@@@",
"@@@@@@@@@@@@@@@@@   @ O @@@@@@@@@@@@@@@@@@@@@@@@@@@@@ O @@@@@@@@@@@@@@@@@@@@@@@@@   @ O @@@@@@@@",
"@@@@@@@@@@@@@@@@  .X O @@@@@@@@@@@@@@@@@@@@@@@@@   @ O @@@@@@@@@@@@@@@@@@@@@@@@@  .X O @@@@@@@@@",
"@@@@@@@@@@@@@@  o . O @@@@@@@@@@@@@@@@@@@@@@@@@  .X O @@@@@@@@@@@@@@@@@@@@@@@@  o . O @@@@@@@@@@",
"@@@@@@@@@@@@@ oo+o . X @@@@@@@@@@@@@@@@@@@@@@  o . O @@@@@@@@@@@@@@@@@@@@@@@@ oo+o . X @@@@@@@@@",
"@@@@@@@@@@@@ oo+ooo .. @@@@@@@@@@@@@@@@@@@@@ oo+o . X @@@@@@@@@@@@@@@@@@@@@@ oo+ooo .. @@@@@@@@@",
"@@@@@@@@@@@ oo+ooooo   @@@@@@@@@@@@@@@@@@@@ oo+ooo .. @@@@@@@@@@@@@@@@@@@@@ oo+ooooo   @@@@@@@@@",
"@@@@@@@@@  o++oooooXX @@@@@@@@@@@@@@@@@@@  o++ooooo   @@@@@@@@@@@@@@@@@@@  o++oooooXX @@@@@@@@@@",
"@@@@@@@@ oo+oooooXX  @@@@@@@@@@@@@@@@@@@ Xo+ooooooXX @@@@@@@@@@@@@@@@@@@ oo+oooooXX  @@@@@@@@@@@",
"@@@@@@@ Xo+oooooXX @@@@@@@@@@@@@@@@@@@@@ X+oooooXX  @@@@@@@@@@@@@@@@@@@ Xo+oooooXX @@@@@@@@@@@@@",
"@@@@@@@ X+oooooXX @@@@@@@@@@@@@@@@@@@@@@ XoooooXX @@@@@@@@@@@@@@@@@@@@@ X+oooooXX @@@@@@@@@@@@@@",
"@@@@@@@ XoooooXX @@@@@@@@@@@@@@@@@@@@@@@@ XooXXX @@@@@@@@@@@@@@@@@@@@@@ XoooooXX @@@@@@@@@@@@@@@",
"@@@@@@@@ XooXX  @@@@@@@@@@@@@@@@@@@@@@@@@@ XXX  @@@@@@@@@@@@@@@@@@@@@@@@ XooXX  @@@@@@@@@@@@@@@@",
"@@@@@@@@@ XXX @@@@@@@@@@@@@@@@@@@@@@@@@@@@@   @@@@@@@@@@@@@@@@@@@@@@@@@@@ XXX @@@@@@@@@@@@@@@@@@",
"@@@@@@@@@@   @@@@@@@@@@@@@@@@@@@@@@@@@@@@@@@@@@@@@@@@@@@@@@@@@@@@@@@@@@@@@   @@@@@@@@@@@@@@@@@@@",
"@@@@@@@@@@@@@@@@@@@@@@@@@@@@@@@@@@@@@@@@@@@@@@@@@@@@@@@@@@@@@@@@@@@@@@@@@@@@@@@@@@@@@@@@@@@@@@@@",
"@@@@@@@@@@@@@@@@@@@@@@@@@@@@@@@@@@@@@@@@@@@@@@@@@@@@@@@@@@@@@@@@@@@@@@@@@@@@@@@@@@@@@@@@@@@@@@@@",
"@@@@@@@@@@@@@@@@@@@@@@@@@@@@@@@@@@@@@@@@@@@@@@@@@@@@@@@@@@@@@@@@@@@@@@@@@@@@@@@@@@@@@@@@@@@@@@@@",
"@@@@@@@@@@@@@@@@@@@@@@@@@@@@@@@@@@@@@@@@@@@@@@@@@@@@@@@@@@@@@@@@@@@@@@@@@@@@@@@@@@@@@@@@@@@@@@@@",
"@@@@@@@@@@@@@@@@@@@@@@@@@@@@@@@@@@@@@@@@@@@@@@@@@@@@@@@@@@@@@@@@@@@@@@@@@@@@@@@@@@@@@@@@@@@@@@@@",
"@@@@@@@@@@@@@@@@@@@@@@@@@@@@@@@@@@@@@@@@@@@@@@@@@@@@@@@@@@@@@@@@@@@@@@@@@@@@@@@@@@@@@@@@@@@@@@@@",
"@@@@@@@@@@@@@@@@@@@@@@@@@@@@@@@@@@@@@@@@@@@@@@@@@@@@@@@@@@@@@@@@@@@@@@@@@@@@@@@@@@@@@@@@@@@@@@@@"
};
