/* XPM */
static char *xpm_[] = {
/* columns rows colors chars-per-pixel */
"128 32 13 1 ",
"  c #1C121C",
". c #1B1B1B",
"X c #391F21",
"o c #5D2C28",
"O c #8A4836",
"+ c #BF6F4A",
"@ c #FFA214",
"# c #FFC825",
"$ c #657392",
"% c #92A1B9",
"& c #C7CFDD",
"* c #F9E6CF",
"= c None",
/* pixels */
"============        ========================        ========================        ========================        ============",
"=========   &&&&&&&&   ==================   &&&&&&&&   ==================   &&&&&&&&   ==================   &&&&&&&&   =========",
"=======  &&&%%%%%%%%&&&  ==============  &&&%%%%%%%%&&&  ==============  &&&%%%%%%%%&&&  ==============  &&&%%%%%%%%&&&  =======",
"=====  &&%%%%%%%%%%%%%%&&  ==========  &&%%%%%%%%%%%%%%&&  ==========  &&%%%%%%%%%%%%%%&&  ==========  &&%%%%%%%%%%%%%%&&  =====",
"==== &&%%%%%$$$$$$$$%%%%%&& ======== &&%%%%%$$$$$$$$%%%%%&& ======== &&%%%%%$$$$$$$$%%%%%&& ======== &&%%%%%$$$$$$$$%%%%%&& ====",
"=== &%%%%%$$        $$%%%%%% ====== &%%%%%$$        $$%%%%%% ====== &%%%%%$$        $$%%%%%% ====== &%%%%%$$        $$%%%%%% ===",
"== &%%%%$$  OOOXOOOO  $$%%%%% ==== &%%%%$$  oo        $$%%%%% ==== &%%%%$$            $$%%%%% ==== &%%%%$$            $$%%%%% ==",
"= &%%%%$  XO+++o++++XO  $%%%%% == &%%%%$  OoOOoo        $%%%%% == &%%%%$  oo            $%%%%% == &%%%%$                $%%%%% =",
"= &%%%$ OOo++++o++++o+OO $%%%% == &%%%$ oOOoO+o+o        $%%%% == &%%%$ OoOoo            $%%%% == &%%%$                  $%%%% =",
" &%%%$ O++o++++o++++o++++ $%%%$  &%%%$ OoO+o++o++o        $%%%$  &%%%$ oOoOoOo            $%%%$  &%%%$                    $%%%$ ",
" &%%$ O+++o+********o++++o &%%$  &%%$ OOo++o++o++o         &%%$  &%%$ OoOoOoOo             &%%$  &%%$                      &%%$ ",
" &%%$ O+++o*########@++++o &%%$  &%%$ O+o+###@o++o         &%%$  &%%$ OoO@@oOo             &%%$  &%%$                      &%%$ ",
" &%%$ O+++*##@@@@@@##@+++o &%%$  &%%$ ++o#####@++o         &%%$  &%%$ Oo@@@@Oo             &%%$  &%%$                      &%%$ ",
" &%%$ O++*##@      ###@++o &%%$  &%%$ ++##@   *@+o         &%%$  &%%$ Oo@..@Oo             &%%$  &%%$                      &%%$ ",
" &%%$ O+*##@        ###@Oo &%%$  &%%$ +*#@     @+o         &%%$  &%%$ O@@..@+o             &%%$  &%%$                      &%%$ ",
" &%%$ O+*#@          *#@Oo &%%$  &%%$ +*@      @+o         &%%$  &%%$ O@...#+o             &%%$  &%%$                      &%%$ ",
" &%%$ O+*#@          *#@Oo &%%$  &%%$ +*@      @+o         &%%$  &%%$ O@...#+o             &%%$  &%%$                      &%%$ ",
" &%%$ O+*#@          *#@Oo &%%$  &%%$ +*#     *@+o         &%%$  &%%$ O*...#+o             &%%$  &%%$                      &%%$ ",
" &%%$ O+*###        *##@Oo &%%$  &%%$ +*##   *#++o         &%%$  &%%$ +*..*o+o             &%%$  &%%$                      &%%$ ",
" &%%$ O+O####      *##@O+o &%%$  &%%$ ++*##  *@++o         &%%$  &%%$ +##.*o+o             &%%$  &%%$                      &%%$ ",
" &%%$ O++O####    *##@O++o &%%$  &%%$ ++o*#  *@++o         &%%$  &%%$ +o#.#o+o             &%%$  &%%$                      &%%$ ",
" &%%$ O+++X*##    *#@O+++o &%%$  &%%$ ++o*#  *@++o         &%%$  &%%$ +o*.@o+o             &%%$  &%%$                      &%%$ ",
" &%%$ O+++o*##    *#@O+++o &%%$  &%%$ ++o*#  #@++o         &%%$  &%%$ +o*.@o+o             &%%$  &%%$                      &%%$ ",
" &%%$ O+++o*##    *#@O+++o &%%$  &%%$ ++o*# ##@++o         &%%$  &%%$ +o*.@o+o             &%%$  &%%$                      &%%$ ",
" &%%$ O+++o*##    *#@O+++o &%%$  &%%$ ++o*###@o++o         &%%$  &%%$ +o##@o+o             &%%$  &%%$                      &%%$ ",
" &%%$ O+++o*##    *#@O+++o &%%$  &%%$ ++o*#@@+o++o         &%%$  &%%$ +o#@+oo              &%%$  &%%$                      &%%$ ",
" &%%$ O+++o*##****##@O+++o &%%$  &%%$ ++o*@o++o++o         &%%$  &%%$ +o@o+o               &%%$  &%%$                      &%%$ ",
" &%%$ O+++o@########@O+++o &%%$  &%%$ ++o@+o++o+oo         &%%$  &%%$ +o+oo                &%%$  &%%$                      &%%$ ",
" &%%$ O+++o@@@@@@@@@@O+++o &%%$  &%%$ ++o++o+ooo           &%%$  &%%$ +o+o                 &%%$  &%%$                      &%%$ ",
" &%%$ O+++oOOOOXOOOOX++++o &%%$  &%%$ ++o++oo              &%%$  &%%$ +oo                  &%%$  &%%$                      &%%$ ",
" &%%$ O+++o++++o++++o++++o &%%$  &%%$ ++ooo                &%%$  &%%$ +o                   &%%$  &%%$                      &%%$ ",
" &%%$ O+++o++++o++++o++++o &%%$  &%%$ oo                   &%%$  &%%$ o                    &%%$  &%%$                      &%%$ "
};
