/* XPM */
static char *xpm_[] = {
/* columns rows colors chars-per-pixel */
"128 32 9 1 ",
"  c #1C121C",
". c #391F21",
"X c #5D2C28",
"o c #8A4836",
"O c #BF6F4A",
"+ c #657392",
"@ c #92A1B9",
"# c #C7CFDD",
"$ c None",
/* pixels */
"$$$$$$$$$$$$        $$$$$$$$$$$$$$$$$$$$$$$$        $$$$$$$$$$$$$$$$$$$$$$$$        $$$$$$$$$$$$$$$$$$$$$$$$        $$$$$$$$$$$$",
"$$$$$$$$$   ########   $$$$$$$$$$$$$$$$$$   ########   $$$$$$$$$$$$$$$$$$   ########   $$$$$$$$$$$$$$$$$$   ########   $$$$$$$$$",
"$$$$$$$  ###@@@@@@@@###  $$$$$$$$$$$$$$  ###@@@@@@@@###  $$$$$$$$$$$$$$  ###@@@@@@@@###  $$$$$$$$$$$$$$  ###@@@@@@@@###  $$$$$$$",
"$$$$$  ##@@@@@@@@@@@@@@##  $$$$$$$$$$  ##@@@@@@@@@@@@@@##  $$$$$$$$$$  ##@@@@@@@@@@@@@@##  $$$$$$$$$$  ##@@@@@@@@@@@@@@##  $$$$$",
"$$$$ ##@@@@@++++++++@@@@@## $$$$$$$$ ##@@@@@++++++++@@@@@## $$$$$$$$ ##@@@@@++++++++@@@@@## $$$$$$$$ ##@@@@@++++++++@@@@@## $$$$",
"$$$ #@@@@@++        ++@@@@@@ $$$$$$ #@@@@@++        ++@@@@@@ $$$$$$ #@@@@@++        ++@@@@@@ $$$$$$ #@@@@@++        ++@@@@@@ $$$",
"$$ #@@@@++  ooo.oooo  ++@@@@@ $$$$ #@@@@++  XX        ++@@@@@ $$$$ #@@@@++            ++@@@@@ $$$$ #@@@@++            ++@@@@@ $$",
"$ #@@@@+  .oOOOXOOOO.o  +@@@@@ $$ #@@@@+  oXooXX        +@@@@@ $$ #@@@@+  XX            +@@@@@ $$ #@@@@+                +@@@@@ $",
"$ #@@@+ ooXOOOOXOOOOXOoo +@@@@ $$ #@@@+ XooXoOXOX        +@@@@ $$ #@@@+ oXoXX            +@@@@ $$ #@@@+                  +@@@@ $",
" #@@@+ oOOXOOOOXOOOOXOOOO +@@@+  #@@@+ oXoOXOOXOOX        +@@@+  #@@@+ XoXoXoX            +@@@+  #@@@+                    +@@@+ ",
" #@@+ oOOOXOOOOXOOOOXOOOOX #@@+  #@@+ ooXOOXOOXOOX         #@@+  #@@+ oXoXoXoX             #@@+  #@@+                      #@@+ ",
" #@@+ oOOOXOOOOXOOOOXOOOOX #@@+  #@@+ oOXOOXOOXOOX         #@@+  #@@+ oXoXoXoX             #@@+  #@@+                      #@@+ ",
" #@@+ oOOOXOOOOXOOOOXOOOOX #@@+  #@@+ OOXOOXOOXOOX         #@@+  #@@+ oXoXOXoX             #@@+  #@@+                      #@@+ ",
" #@@+ oOOOXOOOOXOOOOXOOOOX #@@+  #@@+ OOXOOXOOXOOX         #@@+  #@@+ oXoXOXoX             #@@+  #@@+                      #@@+ ",
" #@@+ oOOOXOOOOXOOOOXOOOOX #@@+  #@@+ OOXOOXOOXOOX         #@@+  #@@+ oXOXOXOX             #@@+  #@@+                      #@@+ ",
" #@@+ oOOOXOOOOXOOOOXOOOOX #@@+  #@@+ OOXOOXOOXOOX         #@@+  #@@+ oXOXOXOX             #@@+  #@@+                      #@@+ ",
" #@@+ oOOOXOOOOXOOOOXOOOOX #@@+  #@@+ OOXOOXOOXOOX         #@@+  #@@+ oXOXOXOX             #@@+  #@@+                      #@@+ ",
" #@@+ oOOOXOOOOXOOOOXOOOOX #@@+  #@@+ OOXOOXOOXOOX         #@@+  #@@+ oXOXOXOX             #@@+  #@@+                      #@@+ ",
" #@@+ oOOOXOOOOXOOOOXOOOOX #@@+  #@@+ OOXOOXOOXOOX         #@@+  #@@+ OXOXOXOX             #@@+  #@@+                      #@@+ ",
" #@@+ oOOOXOOOOXOOOOXOOOOX #@@+  #@@+ OOXOOXOOXOOX         #@@+  #@@+ OXOXOXOX             #@@+  #@@+                      #@@+ ",
" #@@+ oOOOXOOOOXOOOOXOOOOX #@@+  #@@+ OOXOOXOOXOOX         #@@+  #@@+ OXOXOXOX             #@@+  #@@+                      #@@+ ",
" #@@+ oOOOXOOOOXOOOOXOOOOX #@@+  #@@+ OOXOOXOOXOOX         #@@+  #@@+ OXOXOXOX             #@@+  #@@+                      #@@+ ",
" #@@+ oOOOXOOOOXOOOOXOOOOX #@@+  #@@+ OOXOOXOOXOOX         #@@+  #@@+ OXOXOXOX             #@@+  #@@+                      #@@+ ",
" #@@+ oOOOXOOOOXOOOOXOOOOX #@@+  #@@+ OOXOOXOOXOOX         #@@+  #@@+ OXOXOXOX             #@@+  #@@+                      #@@+ ",
" #@@+ oOOOXOOOOXOOOOXOOOOX #@@+  #@@+ OOXOOXOOXOOX         #@@+  #@@+ OXOXOXOX             #@@+  #@@+                      #@@+ ",
" #@@+ oOOOXOOOOXOOOOXOOOOX #@@+  #@@+ OOXOOXOOXOOX         #@@+  #@@+ OXOXOXX              #@@+  #@@+                      #@@+ ",
" #@@+ oOOOXOOOOXOOOOXOOOOX #@@+  #@@+ OOXOOXOOXOOX         #@@+  #@@+ OXOXOX               #@@+  #@@+                      #@@+ ",
" #@@+ oOOOXOOOOXOOOOXOOOOX #@@+  #@@+ OOXOOXOOXOXX         #@@+  #@@+ OXOXX                #@@+  #@@+                      #@@+ ",
" #@@+ oOOOXOOOOXOOOOXOOOOX #@@+  #@@+ OOXOOXOXXX           #@@+  #@@+ OXOX                 #@@+  #@@+                      #@@+ ",
" #@@+ oOOOXOOOOXOOOOXOOOOX #@@+  #@@+ OOXOOXX              #@@+  #@@+ OXX                  #@@+  #@@+                      #@@+ ",
" #@@+ oOOOXOOOOXOOOOXOOOOX #@@+  #@@+ OOXXX                #@@+  #@@+ OX                   #@@+  #@@+                      #@@+ ",
" #@@+ oOOOXOOOOXOOOOXOOOOX #@@+  #@@+ XX                   #@@+  #@@+ X                    #@@+  #@@+                      #@@+ "
};
