/* XPM */
static char *xpm_[] = {
/* columns rows colors chars-per-pixel */
"96 96 9 1 ",
"  c #121724",
". c #1A1932",
"X c #2A2F4E",
"o c #424C6E",
"O c #C42430",
"+ c #EA323C",
"@ c #884B2B",
"# c #F5555D",
"$ c None",
/* pixels */
"$$$$$$$$$$$$$$$$$$$$$$$$$$$$$$$$$$$$$$$$$$$$$$$$$$$$$$$$$$$$$$$$$$$$$$$$$$$$$$$$$$$$$$$$$$$$$$$$",
"$$$$$$$$$$$$$$$$$$$$$$$$$$$$$$$$$$$$$$$$$$$$$$$$$$$$$$$$$$$$$$$$$$$$$$$$$$$$$$$$$$$$$$$$$$$$$$$$",
"$$$$$$$$$$$$$$$$$$$$$$$$$$$$$$$$$$$$$$$$$$$$$$$$$$$$$$$$$$$$$$$$$$$$$$$$$$$$$$$$$$$$$$$$$$$$$$$$",
"$$$$$$$$$$$    $$$$$$$$$$$$$$$$$$$$$$$$$$$$$$$$$$$$$$$$$$$$$$$$$$$$$$$$$$$$$  $$$$$$$$$$$$$$$$$$",
"$$$$$$$$$  @@@  $$$$$$$$$$$$$$$$$$$$$$$$$$$$  $$$$$$$$$$$$$$$$$$$$$$$$$$$$  @@ $$$$$$$$$$$$$$$$$",
"$$$$$$$$ @@   @  $$$$$$$$$$$$$$$$$$$$$$$$$  @@ $$$$$$$$$$$$$$$$$$$$$$$$$$ @@  @ $$$$$$$$$$$$$$$$",
"$$$$$$$ @    $ @      $$$$$$$$$$$$$$$$$$$ @@  @ $$$$$$$$$$$$$$$$$$$$$$$$ @   $ @     $$$$$$$$$$$",
"$$$$$$$$ $ @@  @ @@@@@ $$$$$$$$$$$$$$$$$ @   $ @     $$$$$$$$$$$$$$$$$$$$ $ @  @ @@@@ $$$$$$$$$$",
"$$$$$$$$$ @  @@ @     @ $$$$$$$$$$$$$$$$$ $ @  @ @@@@ $$$$$$$$$$$$$$$$$$$$ @ @@ @    @ $$$$$$$$$",
"$$$$$$$$ @ $$      $$ @ $$$$$$$$$$$$$$$$$$ @ @@ @    @ $$$$$$$$$$$$$$$$$$ @ $      $ @ $$$$$$$$$",
"$$$$$$$      +++++O      $$$$$$$$$$$$$$$$ @ $      $ @ $$$$$$$$$$$$$$$$$     +++++O     $$$$$$$$",
"$$$$$$ ++++O +#+++O O+++O $$$$$$$$$$$$$$     +++++O     $$$$$$$$$$$$$$$ +++O +#+++O O++O $$$$$$$",
"$$$$$$ +#++O +#+++O O#++O $$$$$$$$$$$$$ +++O +#+++O O++O $$$$$$$$$$$$$$ +#+O +#+++O O#+O $$$$$$$",
"$$$$$$ +#++OXXoXXX..O#++O $$$$$$$$$$$$$ +#+O +#+++O O#+O $$$$$$$$$$$$$$ +#+OXXoXXX..O#+O $$$$$$$",
"$$$$$$XXoXX.XXoXXX...oXX..$$$$$$$$$$$$$ +#+OXXoXXX..O#+O $$$$$$$$$$$$$$XXoX.XXoXXX...oX..$$$$$$$",
"$$$$$$XXoXX.XXoXXX...oXX..$$$$$$$$$$$$$XXoX.XXoXXX...oX..$$$$$$$$$$$$$$XXoX. +#+++O .oX..$$$$$$$",
"$$$$$$XXoXX. +#+++O .oXX..$$$$$$$$$$$$$XXoX. +#+++O .oX..$$$$$$$$$$$$$$ +#+O +#+++O O#+O $$$$$$$",
"$$$$$$ +#++O +#+++O O#++O $$$$$$$$$$$$$ +#+O +#+++O O#+O $$$$$$$$$$$$$$ +#+O +#+++O O#+O $$$$$$$",
"$$$$$$ +#++O +#+++O O#++O $$$$$$$$$$$$$ +#+O +#+++O O#+O $$$$$$$$$$$$$$ +#+O +#+++O O#+O $$$$$$$",
"$$$$$$ +#++O +#+++O O#++O $$$$$$$$$$$$$ +#+O +#+++O O#+O $$$$$$$$$$$$$$ +#+O +#+++O O#+O $$$$$$$",
"$$$$$$ +#++O +#+++O O#++O $$$$$$$$$$$$$ +#+O +#+++O O#+O $$$$$$$$$$$$$$ +#+O +#+++O O#+O $$$$$$$",
"$$$$$$XXoXX. +#+++O .oXX..$$$$$$$$$$$$$XXoX. +#+++O .oX..$$$$$$$$$$$$$$ +#+O +#+++O O#+O $$$$$$$",
"$$$$$$XXoXX.XXoXXX...oXX..$$$$$$$$$$$$$XXoX.XXoXXX...oX..$$$$$$$$$$$$$$XXoX. +#+++O .oX..$$$$$$$",
"$$$$$$XXoXX.XXoXXX...oXX..$$$$$$$$$$$$$ +#+OXXoXXX..O#+O $$$$$$$$$$$$$$XXoX.XXoXXX...oX..$$$$$$$",
"$$$$$$ +#++OXXoXXX..O#++O $$$$$$$$$$$$$ ++OO +#+++O O+OO $$$$$$$$$$$$$$ +#+OXXoXXX..O#+O $$$$$$$",
"$$$$$$ +++OO +#+++O O++OO $$$$$$$$$$$$$ OOOO ++++OO OOOO $$$$$$$$$$$$$$ ++OO +#+++O O+OO $$$$$$$",
"$$$$$$ OOOOO ++++OO OOOOO $$$$$$$$$$$$$$     OOOOOO     $$$$$$$$$$$$$$$ OOOO ++++OO OOOO $$$$$$$",
"$$$$$$$      OOOOOO      $$$$$$$$$$$$$$$$$$$$      $$$$$$$$$$$$$$$$$$$$$     OOOOOO     $$$$$$$$",
"$$$$$$$$$$$$$      $$$$$$$$$$$$$$$$$$$$$$$$$$$$$$$$$$$$$$$$$$$$$$$$$$$$$$$$$$      $$$$$$$$$$$$$",
"$$$$$$$$$$$$$$$$$$$$$$$$$$$$$$$$$$$$$$$$$$$$$$$$$$$$$$$$$$$$$$$$$$$$$$$$$$$$$$$$$$$$$$$$$$$$$$$$",
"$$$$$$$$$$$$$$$$$$$$$$$$$$$$$$$$$$$$$$$$$$$$$$$$$$$$$$$$$$$$$$$$$$$$$$$$$$$$$$$$$$$$$$$$$$$$$$$$",
"$$$$$$$$$$$$$$$$$$$$$$$$$$$$$$$$$$$$$$$$$$$$$$$$$$$$$$$$$$$$$$$$$$$$$$$$$$$$$$$$$$$$$$$$$$$$$$$$",
"$$$$$$$$$$$$$$$$$$$$$$$$$$$$$$$$$$$$$$$$$$$$$$$$$$$$$$$$$$$$$$$$$$$$$$$$$$$$$$$$$$$$$$$$$$$$$$$$",
"$$$$$$$$$$$$$$$$$$$$$$$$$$$$$$$$$$$$$$$$$$$$$$$$$$$$$$$$$$$$$$$$$$$$$$$$$$$$$$$$$$$$$$$$$$$$$$$$",
"$$$$$$$$$$$$$ $$$$$$$$$$$$$$$$$$$$$$$$$$$$$$$$$$$$$$$$$$$$$$$$$$$$$$$$$$$$$$$$$$$$$$$$$$$$$$$$$$",
"$$$$$$$$$$$$ @ $$$$$$$$$$$$$$$$$$$$$$$$$$$$$  $$$$$$$$$$$$$$$$$$$$$$$$$$$$$$$$$$$$$$$$$$$$$$$$$$",
"$$$$$$$$$$$ @ @ $$$$$$$$$$$$$$$$$$$$$$$$$$  @@ $$$$$$$$$$$$$$$$$$$$$$$$$$$$$  $$$$$$$$$$$$$$$$$$",
"$$$$$$$$$$ @   @    $$$$$$$$$$$$$$$$$$$$$ @@  @ $$$$$$$$$$$$$$$$$$$$$$$$$$  @@ $$$$$$$$$$$$$$$$$",
"$$$$$$$$$$$ @@ @ @@@ $$$$$$$$$$$$$$$$$$$ @   $ @     $$$$$$$$$$$$$$$$$$$$ @@  @ $$$$$$$$$$$$$$$$",
"$$$$$$$$$$ @  @ @   @ $$$$$$$$$$$$$$$$$$$ $ @  @ @@@@ $$$$$$$$$$$$$$$$$$ @   $ @     $$$$$$$$$$$",
"$$$$$$$$$$ @ $    $ @ $$$$$$$$$$$$$$$$$$$$ @ @@ @    @ $$$$$$$$$$$$$$$$$$ $ @  @ @@@@ $$$$$$$$$$",
"$$$$$$$$$     +++O     $$$$$$$$$$$$$$$$$$ @ $      $ @ $$$$$$$$$$$$$$$$$$$ @ @@ @    @ $$$$$$$$$",
"$$$$$$$$ +++O +#+O O++O $$$$$$$$$$$$$$$$     +++++O     $$$$$$$$$$$$$$$$$ @ $      $ @ $$$$$$$$$",
"$$$$$$$$ +#+O +#+O O#+O $$$$$$$$$$$$$$$ +++O +#+++O O++O $$$$$$$$$$$$$$$     +++++O     $$$$$$$$",
"$$$$$$$$ +#+OXXoX..O#+O $$$$$$$$$$$$$$$ +#+O +#+++O O#+O $$$$$$$$$$$$$$ +++O +#+++O O++O $$$$$$$",
"$$$$$$$$XXoX.XXoX...oX..$$$$$$$$$$$$$$$ +#+OXXoXXX..O#+O $$$$$$$$$$$$$$ +#+O +#+++O O#+O $$$$$$$",
"$$$$$$$$XXoX. +#+O .oX..$$$$$$$$$$$$$$$XXoX.XXoXXX...oX..$$$$$$$$$$$$$$ +#+OXXoXXX..O#+O $$$$$$$",
"$$$$$$$$ +#+O +#+O O#+O $$$$$$$$$$$$$$$XXoX. +#+++O .oX..$$$$$$$$$$$$$$XXoX.XXoXXX...oX..$$$$$$$",
"$$$$$$$$ +#+O +#+O O#+O $$$$$$$$$$$$$$$ +#+O +#+++O O#+O $$$$$$$$$$$$$$XXoX. +#+++O .oX..$$$$$$$",
"$$$$$$$$ +#+O +#+O O#+O $$$$$$$$$$$$$$$ +#+O +#+++O O#+O $$$$$$$$$$$$$$ +#+O +#+++O O#+O $$$$$$$",
"$$$$$$$$ +#+O +#+O O#+O $$$$$$$$$$$$$$$ +#+O +#+++O O#+O $$$$$$$$$$$$$$ +#+O +#+++O O#+O $$$$$$$",
"$$$$$$$$ +#+O +#+O O#+O $$$$$$$$$$$$$$$ +#+O +#+++O O#+O $$$$$$$$$$$$$$ +#+O +#+++O O#+O $$$$$$$",
"$$$$$$$$ +#+O +#+O O#+O $$$$$$$$$$$$$$$ +#+O +#+++O O#+O $$$$$$$$$$$$$$ +#+O +#+++O O#+O $$$$$$$",
"$$$$$$$$ +#+O +#+O O#+O $$$$$$$$$$$$$$$ +#+O +#+++O O#+O $$$$$$$$$$$$$$XXoX. +#+++O .oX..$$$$$$$",
"$$$$$$$$ +#+O +#+O O#+O $$$$$$$$$$$$$$$XXoX. +#+++O .oX..$$$$$$$$$$$$$$XXoX.XXoXXX...oX..$$$$$$$",
"$$$$$$$$XXoX. +#+O .oX..$$$$$$$$$$$$$$$XXoX.XXoXXX...oX..$$$$$$$$$$$$$$ +#+OXXoXXX..O#+O $$$$$$$",
"$$$$$$$$XXoX.XXoX...oX..$$$$$$$$$$$$$$$ +#+OXXoXXX..O#+O $$$$$$$$$$$$$$ ++OO +#+++O O+OO $$$$$$$",
"$$$$$$$$ +#+OXXoX..O#+O $$$$$$$$$$$$$$$ ++OO +#+++O O+OO $$$$$$$$$$$$$$ OOOO ++++OO OOOO $$$$$$$",
"$$$$$$$$ ++OO +#+O O+OO $$$$$$$$$$$$$$$ OOOO ++++OO OOOO $$$$$$$$$$$$$$$     OOOOOO     $$$$$$$$",
"$$$$$$$$ OOOO ++OO OOOO $$$$$$$$$$$$$$$$     OOOOOO     $$$$$$$$$$$$$$$$$$$$$      $$$$$$$$$$$$$",
"$$$$$$$$$     OOOO     $$$$$$$$$$$$$$$$$$$$$$      $$$$$$$$$$$$$$$$$$$$$$$$$$$$$$$$$$$$$$$$$$$$$",
"$$$$$$$$$$$$$$    $$$$$$$$$$$$$$$$$$$$$$$$$$$$$$$$$$$$$$$$$$$$$$$$$$$$$$$$$$$$$$$$$$$$$$$$$$$$$$",
"$$$$$$$$$$$$$$$$$$$$$$$$$$$$$$$$$$$$$$$$$$$$$$$$$$$$$$$$$$$$$$$$$$$$$$$$$$$$$$$$$$$$$$$$$$$$$$$$",
"$$$$$$$$$$$$$$$$$$$$$$$$$$$$$$$$$$$$$$$$$$$$$$$$$$$$$$$$$$$$$$$$$$$$$$$$$$$$$$$$$$$$$$$$$$$$$$$$",
"$$$$$$$$$$$$$$$$$$$$$$$$$$$$$$$$$$$$$$$$$$$$$$$$$$$$$$$$$$$$$$$$$$$$$$$$$$$$$$$$$$$$$$$$$$$$$$$$",
"$$$$$$$$$$$$$$$$$$$$$$$$$$$$$$$$$$$$$$$$$$$$$$$$$$$$$$$$$$$$$$$$$$$$$$$$$$$$$$$$$$$$$$$$$$$$$$$$",
"$$$$$$$$$$$$$$$$$$$$$$$$$$$$$$$$$$$$$$$$$$$$$$$$$$$$$$$$$$$$$$$$$$$$$$$$$$$$$$$$$$$$$$$$$$$$$$$$",
"$$$$$$$$$$$$$$$$$$$$$$$$$$$$$$$$$$$$$$$$$$$$$$$$$$$$$$$$$$$$$$$$$$$$$$$$$$$$$$$$$$$$$$$$$$$$$$$$",
"$$$$$$$$$$$$$$$$$$$$$$$$$$$$$$$$$$$$$$$$$$$$$$$$$$$$$$$$$$$$$$$$$$$$$$$$$$$$$$$$$$$$$$$$$$$$$$$$",
"$$$$$$$$$$$$  $$$$$$$$$$$$$$$$$$$$$$$$$$$$$$$$$$$$$$$$$$$$$$$$$$$$$$$$$$$$$$  $$$$$$$$$$$$$$$$$$",
"$$$$$$$$$$  @@ $$$$$$$$$$$$$$$$$$$$$$$$$$$$   $$$$$$$$$$$$$$$$$$$$$$$$$$$$  @@ $$$$$$$$$$$$$$$$$",
"$$$$$$$$$ @@  @ $$$$$$$$$$$$$$$$$$$$$$$$$  @@@ $$$$$$$$$$$$$$$$$$$$$$$$$$ @@  @ $$$$$$$$$$$$$$$$",
"$$$$$$$$ @   $ @     $$$$$$$$$$$$$$$$$$$ @@ $ @ $$$$$$$$$$$$$$$$$$$$$$$$ @   $ @     $$$$$$$$$$$",
"$$$$$$$$$ $ @  @ @@@@ $$$$$$$$$$$$$$$$$ @    $ @      $$$$$$$$$$$$$$$$$$$ $ @  @ @@@@ $$$$$$$$$$",
"$$$$$$$$$$ @ @@ @    @ $$$$$$$$$$$$$$$$$ $ @@  @ @@@@@ $$$$$$$$$$$$$$$$$$$ @ @@ @    @ $$$$$$$$$",
"$$$$$$$$$ @ $      $ @ $$$$$$$$$$$$$$$$$$ @  @@ @     @ $$$$$$$$$$$$$$$$$ @ $      $ @ $$$$$$$$$",
"$$$$$$$$     +++++O     $$$$$$$$$$$$$$$$ @ $$      $$ @ $$$$$$$$$$$$$$$$     +++++O     $$$$$$$$",
"$$$$$$$ +++O +#+++O O++O $$$$$$$$$$$$$$      +++++O      $$$$$$$$$$$$$$ +++O +#+++O O++O $$$$$$$",
"$$$$$$$ +#+O +#+++O O#+O $$$$$$$$$$$$$ ++++O +#+++O O+++O $$$$$$$$$$$$$ +#+O +#+++O O#+O $$$$$$$",
"$$$$$$$ +#+OXXoXXX..O#+O $$$$$$$$$$$$$ +#++OXXoXXX..O#++O $$$$$$$$$$$$$ +#+OXXoXXX..O#+O $$$$$$$",
"$$$$$$$XXoX.XXoXXX...oX..$$$$$$$$$$$$$XXoXX.XXoXXX...oXX..$$$$$$$$$$$$$XXoX.XXoXXX...oX..$$$$$$$",
"$$$$$$$XXoX. +#+++O .oX..$$$$$$$$$$$$$XXoXX. +#+++O .oXX..$$$$$$$$$$$$$XXoX. +#+++O .oX..$$$$$$$",
"$$$$$$$ +#+O +#+++O O#+O $$$$$$$$$$$$$ +#++O +#+++O O#++O $$$$$$$$$$$$$ +#+O +#+++O O#+O $$$$$$$",
"$$$$$$$ +#+O +#+++O O#+O $$$$$$$$$$$$$ +#++O +#+++O O#++O $$$$$$$$$$$$$ +#+O +#+++O O#+O $$$$$$$",
"$$$$$$$XXoX. +#+++O .oX..$$$$$$$$$$$$$XXoXX. +#+++O .oXX..$$$$$$$$$$$$$XXoX. +#+++O .oX..$$$$$$$",
"$$$$$$$XXoX.XXoXXX...oX..$$$$$$$$$$$$$XXoXX.XXoXXX...oXX..$$$$$$$$$$$$$XXoX.XXoXXX...oX..$$$$$$$",
"$$$$$$$ +#+OXXoXXX..O#+O $$$$$$$$$$$$$ +++OOXXoXXX. O++OO $$$$$$$$$$$$$ +#+OXXoXXX..O#+O $$$$$$$",
"$$$$$$$ ++OO +#+++O O+OO $$$$$$$$$$$$$ OOOOO ++++OO OOOOO $$$$$$$$$$$$$ ++OO +#+++O O+OO $$$$$$$",
"$$$$$$$ OOOO ++++OO OOOO $$$$$$$$$$$$$$      OOOOOO      $$$$$$$$$$$$$$ OOOO ++++OO OOOO $$$$$$$",
"$$$$$$$$     OOOOOO     $$$$$$$$$$$$$$$$$$$$$      $$$$$$$$$$$$$$$$$$$$$     OOOOOO     $$$$$$$$",
"$$$$$$$$$$$$$      $$$$$$$$$$$$$$$$$$$$$$$$$$$$$$$$$$$$$$$$$$$$$$$$$$$$$$$$$$      $$$$$$$$$$$$$",
"$$$$$$$$$$$$$$$$$$$$$$$$$$$$$$$$$$$$$$$$$$$$$$$$$$$$$$$$$$$$$$$$$$$$$$$$$$$$$$$$$$$$$$$$$$$$$$$$",
"$$$$$$$$$$$$$$$$$$$$$$$$$$$$$$$$$$$$$$$$$$$$$$$$$$$$$$$$$$$$$$$$$$$$$$$$$$$$$$$$$$$$$$$$$$$$$$$$",
"$$$$$$$$$$$$$$$$$$$$$$$$$$$$$$$$$$$$$$$$$$$$$$$$$$$$$$$$$$$$$$$$$$$$$$$$$$$$$$$$$$$$$$$$$$$$$$$$",
"$$$$$$$$$$$$$$$$$$$$$$$$$$$$$$$$$$$$$$$$$$$$$$$$$$$$$$$$$$$$$$$$$$$$$$$$$$$$$$$$$$$$$$$$$$$$$$$$",
"$$$$$$$$$$$$$$$$$$$$$$$$$$$$$$$$$$$$$$$$$$$$$$$$$$$$$$$$$$$$$$$$$$$$$$$$$$$$$$$$$$$$$$$$$$$$$$$$"
};
