/* XPM */
static char *xpm_[] = {
/* columns rows colors chars-per-pixel */
"96 64 6 1 ",
"  c #AE2334",
". c #FB6B1D",
"X c #F79617",
"o c #F9C22B",
"O c #FFF0C7",
"+ c None",
/* pixels */
"+++++++++++++++++++++++++++++++++++++++++++++++++++++++++++++++++++++++ + ... +++++++++ .  +++++",
"++++++++++++++++++++++++++++++++++++++++++++++++++++++++++++++++++++  .XXOoo.. +++++  ..XX.. +++",
"+++++++++++++++++++++++++++++++++++++++++++++++++++++++++++++++++++ .oXOOOOOoX  +++..XoOOoXX. ++",
"++++++++++++++++++++++++++++++++++++++++++++++++++++++++++++++++++ .XXOOOOOOOOX   ..XOOOOOoo..++",
"+++++++++++++++++++++++++++++++++++++++++++++++++++++  +++++++++++.XoOOOOOOOOOO. .XXOOOOOOOOoX +",
"++++++++++++++++++++++++++++++++++++++++++     +++++  .X  +++++++ .OOOOOOOOOOOOX.XoOOOOOOOOOoX +",
"+++++++++++++++++++++++++++++++++++++++++...XXX +++ ..X..Xo++++++.oOOOOOOOOOOOooXXOOOOOOOOOOOX. ",
"++++++++++++++++++++++++++++++++++++++ .XXooXX. +  Xooooo. +++++.oOOOOOOOOOOOOo.XOOOOOOOOOOOOO. ",
"++++++++++++++++++++++++++++++++++++++ .XoooooX    oooooO. o++++.ooOOOOOOOOOOOo.XOOOOOOOOOOOOO.+",
"++++++++++++++++++++++++++++++++++++++XoooOOooX. XooooOooO. ++++ oOOOOOOOOOOOOo  OOOOOOOOOOOOO. ",
"+++++++++++ o.  ++.  O+++++++++++++++ XooOooOoo. XoOooooOo. ++++ oOOOOOOOOOOOX .   OOOOOOOOOOo +",
"++++++++++ .XoX  ..X..+++++++++++++++ .oooOooOo.  oooooOoo. ++++.XOOOOOOOOXXX XoOO. OOOOOOOOO. +",
"++++++++++ Xoo  .Xooo.+++++++++++++++ ooooooooo     ooOoooX +++++.oOOOOOX   OXoOOOO. OOOOOOOO. +",
"+++++++++++Xo.X  XXXo +++++++++++++++ XoOooooo  .XX.XOOoO. X+++++.XoOOOX ... XOOOOO. oOOOOOOo ++",
"++++++++++ . .o.XooX. ++++++++++++++++ Xooo... .oooX ....X ++++++ .XXXXX.Xoo XOOOOOO. OOOOOX. ++",
"++++++++++ .XooXoooX. +++++++++++++++++ .o   . .oOOo ...  ++++++++ .X   XoOOo OOOOOOX OOOOO..  +",
"+++++++++++.XooXooooX. +++++++++++++++++ .Xooo XoOoo .     ++++++++ ....XOOO  OOOOOOX  OOO..X.  ",
"+++++++++++XX.o..ooXX  +++++++++++++++++  XoOO .oooX . XX. ++++++++.XXo.OOOOO XOOOOOX OOX OooX. ",
"++++++++++    X....X . ++++++++++++++++ . XooOo .oO  XXooX.+++++++ .oOO.OOOOO XOOOOOX    OOOoOX.",
"++++++++++  .X X oooo.++++++++++++++++  O XOoOo. .O OoOooo.  +++++.oOOO oOOOOO oOOOo. OOOOOOOOXo",
"++++++++++  .oooX oo..+++++++++++++++ ..O X.ooo.  XoOooOooX  ++++ oXOOO .OOOOOO XXX. OOOOOOOOOoo",
"+++++++++++ .Xo. .X..++++++++++++++++ .XoX  XXX . oOooOOooX  ++++.oOOOOo .OOOOOO o OOOOOOOOOOOo.",
"+++++++++++. ..   . ++++++++++++++++  .ooo  ...  XoOooOooOX +++++.OOOOOX .OOOOOO  OOOOOOOOOOOOo ",
"++++++++++++++ +++++++++++++++++++++ ..oOoo.    .XoOoooOoXX ++++ XOOOOOOO oOOOOO oOOOOOOOOOOOO.+",
"++++++++++++++++++++++++++++++++++++ .XoOooOOOo .XooooOooX..++++.XOOOOOOO  OOOo.oOOOOOOOOOOOOo.+",
"++++++++++++++++++++++++++++++++++++ .XoOooOo   .XoooOooX. +++++.XOOOOOOOO .OOX oOOOOOOOOOOOOo +",
"++++++++++++++++++++++++++++++++++++ ..ooOoo. + ..XooooX.X +++++ XOOOOOOOOO  X. oOOOOOOOOOOOX. +",
"+++++++++++++++++++++++++++++++++++++ .XoOo.. +. ..XXXX.   ++++++.XOOOOOOOOOX. ooOOOOOOOOOOo.. +",
"++++++++++++++++++++++++++++++++++++++ ..... +++   ....   ++++++++ XOOOOOOOXX XXOOOOOOOOOOoX. ++",
"+++++++++++++++++++++++++++++++++++++++     +++++ + .X +++++++++++  .OOOOOX.     ooooOOOOXX. +++",
"++++++++++++++++++++++++++++++++++++++++++++++++++++++++++++++++++++ .OOOo.  + ++   XOoXXX  ++++",
"+++++++++++++++++++++++++++++++++++++++++++++++++++++++++++++++++++++  o. +++++++++++ .. +++++++",
"++++++++++++++++++++++++++++++++++++++++++++++++++++++++++++++++++++++++++++++++++++++++++++++++",
"++++++  ++++++++++++++++++++++++++++++++++++++++++++++++++++++++++++++++++++++++++++++++++++++++",
"+++++ ..X. .++++++++++    ++++++++++++++++++++++++++++++++++++++++++++++++++++++++++++++++++++++",
"+++  XXXXXX..+ ++++++  .... .+++++++  +++X+++++++++++++ ++++++++++++++++++++++++++++++++++++++++",
"++. .XXooooX.X  ++++  .....X ++++++ ++X+oo...+++++++++.++ .++++++++++  +++++++++++++++.++ .+++++",
"++ ..oXOOooXo.. +++  ..XoooXX +++++++Xo+oooo.X+++++ ...++++++++++++++++X++o...+++++ .+++++++++++",
"++ .XXoooOOXoX.  +  ..ooOOoo. ++++++Xo+ooOOo.X+++  +XXooo   ++++++++++X++oo+o.X+++++++o+o++ ++++",
"+ ..XOoOooOoXo..XX ..ooOooooo ++++++oo++oooo.X+++ . oo+X+o. +++++++++X++ooO+o+X+++ +oo++++.+++++",
"+ .XXooOooOoXo.X..  XOoooOoOo ++++++oO++oO+o.   +.. o  + ++ +++++++++o+++ooo++X++++++  ++++ ++++",
"+ .XXOooooooXo X... oXoOoOooo.+++++X+o+o+++o. +.XX+ o o  ++++++++++++o+++o+++.+. X+ + o ++++++++",
"++.XooooOoooXX ..ooo XoOXoOo..+++ +X+o+oOo+o+ X.     +oX +++++++++++X+++o+++o.   .o ++++ +++++++",
"++ XoooooooXX ..oOoo..OoOoo..o++++ X+oOo+o++. XooO Xo X Xo++++++++ +X+o+o+++o+ +.+XXo+X X+++++++",
"++ .XoOooooXX ..oOooo. Xoooo. ++++ .o+X+ooX .XXoooo X+X X+ ++++++++ ++oOo+o +. ++.++ +X ++ +++++",
"+++ .ooooXXOX .ooooOo. X..o.  +++++X X+++X.X X o    Xo++o++ +++++++ .++X+ooX+.+.+ooO o++o++ ++++",
"++++  ..XoXXX XooooooX. .... +++++++     .o.X.Xo+O  OXXXX++ +++++++++ X+++o.+.+ ++XoOX+++++ ++++",
"++++    .. .   XoOOooo. .   +++++++++ ++.o  oX..+ +oX .+++++++++++++++ ++X+++X X+  oOO++++++++++",
"+++++       X  Xooooo.     ++++++++++++.XoX oXX .+ XX  +  + +++++++++++++.oX+  +Xo++ +++   +++++",
"++++++  X ...X  .Oooo.  ..   ++++++++++ OoXoXXX . oXo . +..  +++++++++ +..++ + ++++   . +.+ ++++",
"++++++++ .....X ..oX. ......  +++++++ ++o  X XX . ooX ++XX+. +++++++++++o..+O+OXX+.. X+X+++ ++++",
"+++++   ...oOOoX....  XXXXX.. +++++++++oX+XXo  oO oo  oo+++.+ ++++++++++++XXo+X X X+o+o+++.+ +++",
"++++  . ..oOOOOX.   XXXoooXX.. ++++++++ ..X oooo XX  oo+o+ X.++++++ +XXXX+X oo ++ +X+oX + ++++++",
"+++  ..  .ooOOOo  .XXXoooooXX. +++ +XXXXX   X XX X+Xo++Oo  X. ++++++.Xo+o  +X +  +O+o+Oo +X+ +++",
"++  .XXX .XooooO  XXXoOoOooOX. ++++.Xo+o XX.X XX + X+oooo++X. ++++++++++ +++XO+.++XXXooo+++. +++",
"++ ..XoO ..ooo.O  .XXoooooXoX. ++++X+++ooXXXXX ++. +o+ooO+ X  ++++++.+++ooX..X+++ +o+++++ ++ +++",
"++ ..oooo  ooOo.  .XoooooOooX  ++++.+oooooX XXo + X  ooo+o .+++++++ X++o+++.+X++ X  +oo+o ++++++",
"++ .XoooOX ....X  .XoooooooX. ++++ X+oo++o..  X+  .X+ ooo  + +++++++ +Xoo+XX++++ .X++ooo +++++++",
"++ .XoOooo. ...   ..XoooooXX  +++++ +Xoo+XX++ + + .XX  + ++  +++++++.++XoX+.+++ ++++++++++++++++",
"+++ .ooooX.. . ++  .XXXXXX.   +++++.++XoX+..+X++++..+++ + +++++++++++.++++.+ X+++.++++ + +++++++",
"+++ .XXoX.. ++++++ ...X...  ++++++++. .+X.+ +++++++.+  ++++++++++++++++.++ .++++++.+++++++++++++",
"++++ ..X..  +++++++ ..     ++++++++++ .++ .+++++++++ ++++++++++++++++++++ +++++++++ ++++++++++++",
"+++++      ++++++++++   ++++++++++++++++ +++++++++++++++++++++++++++++++++++++++++++++++++++++++",
"++++++++++++++++++++++++++++++++++++++++++++++++++++++++++++++++++++++++++++++++++++++++++++++++"
};
