/* XPM */
static char *xpm_[] = {
/* columns rows colors chars-per-pixel */
"96 96 6 1 ",
"  c #1C121C",
". c #391F21",
"X c #5D2C28",
"o c #8A4836",
"O c #BF6F4A",
"+ c None",
/* pixels */
"++++++++++++++++++++++++++++++++++++++++++++++++++++++++++++++++++++++++++++++++++++++++++++++++",
"++++++++++++++++++++++++++++++++++++++++++++++++++++++++++++++++++++++++++++++++++++++++++++++++",
"++++++++++++++++++++++++++++++++++++++++++++++++++++++++++++++++++++++++++++++++++++++++++++++++",
"++++++++++++++++++++++++++++++++++++++++++++++++++++++++++++++++++++++++++++++++++++++++++++++++",
"++++                        +++++++++++++++++++++++++++++++++++++++++                      +++++",
"++++ OOOOOOOOOOOOOOOOOOOOOO +++++++++                      ++++++++++ OOOOOOOOOOOOOOOOOOOO +++++",
"++++ Oooooooooooooooooooooo +++++++++ OOOOOOOOOOOOOOOOOOOO ++++++++++ Oooooooooooooooooooo +++++",
"++++ Oooooooooooooooooooooo +++++++++ Oooooooooooooooooooo ++++++++++ Oooooooooooooooooooo +++++",
"++++                        +++++++++ Oooooooooooooooooooo ++++++++++                      +++++",
"+++++ X.. X.. X... X.  XXX ++++++++++                      +++++++++++ .. ... .... . XXXX ++++++",
"+++++ oXX oXX oXXX o OOooo +++++++++++ .. ... .... . XXXX ++++++++++++ oX oXX oXXX  Ooooo ++++++",
"+++++ oXX oXX oXXX  Oooooo +++++++++++ oX oXX oXXX  Ooooo ++++++++++++ oX oXX oXX  Ooooo  ++++++",
"+++++ oXX oXX oXX OOoooo   +++++++++++ oX oXX oXX OOoooo  ++++++++++++ oX oXX oX OOoooo . ++++++",
"+++++ oXX oXX o  Oooooo .. +++++++++++ oX oXX o  Oooooo . ++++++++++++ oX oXX o Ooooo  .X ++++++",
"+++++ oXX oXX  OOoooo  .XX +++++++++++ oX oXX  OOoooo  .X ++++++++++++ oX oXX  Ooooo . oX ++++++",
"+++++ oXX oX  Oooooo . oXX +++++++++++ oX oX  Oooooo . oX ++++++++++++ oX oXX Ooooo .X oX ++++++",
"+++++ oXX o OOoooo  .X oXX +++++++++++ oX o OOoooo  .X oX ++++++++++++ oX oX Ooooo .XX oX ++++++",
"+++++ oXX  Oooooo  .XX oXX +++++++++++ oX  Oooooo  .XX oX ++++++++++++ oX   Ooooo  oXX oX ++++++",
"+++++ oX OOoooo  . oXX oXX +++++++++++ o OOoooo  . oXX oX ++++++++++++ oX OOoooo . oXX oX ++++++",
"+++++   Oooooo ..X oXX oXX +++++++++++  Oooooo ..X oXX oX ++++++++++++ o Ooooo  .X oXX oX ++++++",
"+++++ OOoooo  .XXX oXX oXX +++++++++++ Ooooo  .XXX oXX oX ++++++++++++  Ooooo ..XX oXX oX ++++++",
"+++++ Ooooo . oXXX oXX oXX +++++++++++ oooo . oXXX oXX oX ++++++++++++ Ooooo  oXXX oXX oX ++++++",
"+++++ Ooo  .X oXXX oXX oXX ++++++++++                      +++++++++++ oooo . oXXX oXX oX ++++++",
"++++                        +++++++++ OOOOOOOOOOOOOOOOOOOO ++++++++++                      +++++",
"++++ OOOOOOOOOOOOOOOOOOOOOO +++++++++ Oooooooooooooooooooo ++++++++++ OOOOOOOOOOOOOOOOOOOO +++++",
"++++ Oooooooooooooooooooooo +++++++++ Oooooooooooooooooooo ++++++++++ Oooooooooooooooooooo +++++",
"++++ Oooooooooooooooooooooo +++++++++                      ++++++++++ Oooooooooooooooooooo +++++",
"++++                        +++++++++++++++++++++++++++++++++++++++++                      +++++",
"++++++++++++++++++++++++++++++++++++++++++++++++++++++++++++++++++++++++++++++++++++++++++++++++",
"++++++++++++++++++++++++++++++++++++++++++++++++++++++++++++++++++++++++++++++++++++++++++++++++",
"++++++++++++++++++++++++++++++++++++++++++++++++++++++++++++++++++++++++++++++++++++++++++++++++",
"++++++++++++++++++++++++++++++++++++++++++++++++++++++++++++++++++++++++++++++++++++++++++++++++",
"++++++++++++++++++++++++++++++++++++++++++++++++++++++++++++++++++++++++++++++++++++++++++++++++",
"++++++++++++++++++++++++++++++++++++++++++++++++++++++++++++++++++++++++++++++++++++++++++++++++",
"++++++++++++++++++++++++++++++++++++++++++++++++++++++++++++++++++++++++++++++++++++++++++++++++",
"++++++                    ++++++++++++++++++++++++++++++++++++++++++++++++++++++++++++++++++++++",
"++++++ OOOOOOOOOOOOOOOOOO +++++++++++                      +++++++++++++++++++++++++++++++++++++",
"++++++ Oooooooooooooooooo +++++++++++ OOOOOOOOOOOOOOOOOOOO ++++++++++                      +++++",
"++++++ Oooooooooooooooooo +++++++++++ Oooooooooooooooooooo ++++++++++ OOOOOOOOOOOOOOOOOOOO +++++",
"++++++                    +++++++++++ Oooooooooooooooooooo ++++++++++ Oooooooooooooooooooo +++++",
"+++++++ .. ... .. .. XXX ++++++++++++                      ++++++++++ Oooooooooooooooooooo +++++",
"+++++++ oX oXX oX o Oooo +++++++++++++ .. ... .... . XXXX +++++++++++                      +++++",
"+++++++ oX oXX oX  Oooo  +++++++++++++ oX oXX oXXX  Ooooo ++++++++++++ .. ... .... . XXXX ++++++",
"+++++++ oX oXX oX Oooo . +++++++++++++ oX oXX oXX  Ooooo  ++++++++++++ oX oXX oXXX  Ooooo ++++++",
"+++++++ oX oXX o Oooo .X +++++++++++++ oX oXX oX OOoooo . ++++++++++++ oX oXX oXX OOoooo  ++++++",
"+++++++ oX oXX  Oooo  oX +++++++++++++ oX oXX o Ooooo  .X ++++++++++++ oX oXX o  Oooooo . ++++++",
"+++++++ oX oXX Oooo . oX +++++++++++++ oX oXX  Ooooo . oX ++++++++++++ oX oXX  OOoooo  .X ++++++",
"+++++++ oX oXX Ooo .X oX +++++++++++++ oX oXX Ooooo .X oX ++++++++++++ oX oX  Oooooo . oX ++++++",
"+++++++ oX oX Ooo .XX oX +++++++++++++ oX oX Ooooo .XX oX ++++++++++++ oX o OOoooo  .X oX ++++++",
"+++++++ oX o Oooo oXX oX +++++++++++++ oX   Ooooo  oXX oX ++++++++++++ oX  Oooooo  .XX oX ++++++",
"+++++++ oX  Oooo  oXX oX +++++++++++++ oX OOoooo . oXX oX ++++++++++++ o OOoooo  . oXX oX ++++++",
"+++++++ oX Oooo . oXX oX +++++++++++++ o Ooooo  .X oXX oX ++++++++++++  Oooooo ..X oXX oX ++++++",
"+++++++ o Oooo .X oXX oX +++++++++++++  Ooooo ..XX oXX oX ++++++++++++ Ooooo  .XXX oXX oX ++++++",
"+++++++  Oooo  oX oXX oX +++++++++++++ Ooooo  oXXX oXX oX ++++++++++++ oooo . oXXX oXX oX ++++++",
"+++++++ Oooo . oX oXX oX +++++++++++++ oooo . oXXX oXX oX +++++++++++                      +++++",
"+++++++ ooo  X oX oXX oX ++++++++++++                      ++++++++++ OOOOOOOOOOOOOOOOOOOO +++++",
"++++++                    +++++++++++ OOOOOOOOOOOOOOOOOOOO ++++++++++ Oooooooooooooooooooo +++++",
"++++++ OOOOOOOOOOOOOOOOOO +++++++++++ Oooooooooooooooooooo ++++++++++ Oooooooooooooooooooo +++++",
"++++++ Oooooooooooooooooo +++++++++++ Oooooooooooooooooooo ++++++++++                      +++++",
"++++++ Oooooooooooooooooo +++++++++++                      +++++++++++++++++++++++++++++++++++++",
"++++++                    ++++++++++++++++++++++++++++++++++++++++++++++++++++++++++++++++++++++",
"++++++++++++++++++++++++++++++++++++++++++++++++++++++++++++++++++++++++++++++++++++++++++++++++",
"++++++++++++++++++++++++++++++++++++++++++++++++++++++++++++++++++++++++++++++++++++++++++++++++",
"++++++++++++++++++++++++++++++++++++++++++++++++++++++++++++++++++++++++++++++++++++++++++++++++",
"++++++++++++++++++++++++++++++++++++++++++++++++++++++++++++++++++++++++++++++++++++++++++++++++",
"++++++++++++++++++++++++++++++++++++++++++++++++++++++++++++++++++++++++++++++++++++++++++++++++",
"++++++++++++++++++++++++++++++++++++++++++++++++++++++++++++++++++++++++++++++++++++++++++++++++",
"++++++++++++++++++++++++++++++++++++++++++++++++++++++++++++++++++++++++++++++++++++++++++++++++",
"++++++++++++++++++++++++++++++++++++++++++++++++++++++++++++++++++++++++++++++++++++++++++++++++",
"++++++++++++++++++++++++++++++++++++++++++++++++++++++++++++++++++++++++++++++++++++++++++++++++",
"+++++                      +++++++++                        +++++++++                      +++++",
"+++++ OOOOOOOOOOOOOOOOOOOO +++++++++ OOOOOOOOOOOOOOOOOOOOOO +++++++++ OOOOOOOOOOOOOOOOOOOO +++++",
"+++++ Oooooooooooooooooooo +++++++++ Oooooooooooooooooooooo +++++++++ Oooooooooooooooooooo +++++",
"+++++ Oooooooooooooooooooo +++++++++ Oooooooooooooooooooooo +++++++++ Oooooooooooooooooooo +++++",
"+++++                      +++++++++                        +++++++++                      +++++",
"++++++ .. ... .... .  XXX +++++++++++ ... ... .... ..  XXX +++++++++++ .. ... .... .  XXX ++++++",
"++++++ oX oXX oXXX  OOooo +++++++++++ oXX oXX oXXX   OOooo +++++++++++ oX oXX oXXX  OOooo ++++++",
"++++++ oX oXX oX  OOooo   +++++++++++ oXX oXX oXX  OOooo   +++++++++++ oX oXX oX  OOooo   ++++++",
"++++++ oX oXX   OOooo  .. +++++++++++ oXX oXX    OOooo  .. +++++++++++ oX oXX   OOooo  .. ++++++",
"++++++ oX oXX OOooo  . oX +++++++++++ oXX oX  OOOooo   .XX +++++++++++ oX oXX OOooo  . oX ++++++",
"++++++ oX o  Oooo  ..X oX +++++++++++ oXX   OOooo   .. oXX +++++++++++ oX o  Oooo  ..X oX ++++++",
"++++++ oX  OOooo . oXX oX +++++++++++ oX  OOooo  . .XX oXX +++++++++++ oX  OOooo . oXX oX ++++++",
"++++++   OOooo  .X oXX oX +++++++++++   OOooo  ..X oXX oXX +++++++++++   OOooo  .X oXX oX ++++++",
"++++++ OOooo  ..XX oXX oX +++++++++++ OOooo   .XXX oXX oXX +++++++++++ OOooo  ..XX oXX oX ++++++",
"++++++ ooo  . oXXX oXX oX +++++++++++ ooo  .. oXXX oXX oXX +++++++++++ ooo  . oXXX oXX oX ++++++",
"+++++                      +++++++++                        +++++++++                      +++++",
"+++++ OOOOOOOOOOOOOOOOOOOO +++++++++ OOOOOOOOOOOOOOOOOOOOOO +++++++++ OOOOOOOOOOOOOOOOOOOO +++++",
"+++++ Oooooooooooooooooooo +++++++++ Oooooooooooooooooooooo +++++++++ Oooooooooooooooooooo +++++",
"+++++ Oooooooooooooooooooo +++++++++ Oooooooooooooooooooooo +++++++++ Oooooooooooooooooooo +++++",
"+++++                      +++++++++                        +++++++++                      +++++",
"++++++++++++++++++++++++++++++++++++++++++++++++++++++++++++++++++++++++++++++++++++++++++++++++",
"++++++++++++++++++++++++++++++++++++++++++++++++++++++++++++++++++++++++++++++++++++++++++++++++",
"++++++++++++++++++++++++++++++++++++++++++++++++++++++++++++++++++++++++++++++++++++++++++++++++",
"++++++++++++++++++++++++++++++++++++++++++++++++++++++++++++++++++++++++++++++++++++++++++++++++",
"++++++++++++++++++++++++++++++++++++++++++++++++++++++++++++++++++++++++++++++++++++++++++++++++",
"++++++++++++++++++++++++++++++++++++++++++++++++++++++++++++++++++++++++++++++++++++++++++++++++"
};
