/* XPM */
static char *_24dcd863d114c81903e25e7e79ac76aWfPtUYlbi1xzIjVd[] = {
/* columns rows colors chars-per-pixel */
"96 64 5 1 ",
"  c #44003C",
". c #820474",
"X c #DE2481",
"o c #ABBBC1",
"O c white",
/* pixels */
"ooooooooooooooooooooooooooooooooooooooooooooooooooooooooooooooooXXX.XXX.XXX.XXX.XXX.XXX.XXX.XXX.",
"ooooooooooooooooooooooooooooooooooooooooooooooooooooooooooooooooXX.XXX.XXX.XXX.XXX.XXX.XXX.XXX.X",
"ooooOOOOOOOOOOOOOOOOOOOOOOOOOOOOOOOOOOOOOOOOooooooooOOOOOOOOooooX.XXX.XXX.XXX.XXX.XXX.XXX.XXX.XX",
"oooO.XXX.XXX.XXX.XXX.XXX.XXX.XXX.XXX.XXX.XXXOooooooO.XXX.XXXOooo.XXX.XXX.XXX.XXX.XXX.XXX.XXX.XXX",
"ooO.XXX.XXX.XXX.XXX.XXX.XXX.XXX.XXX.XXX.XXX.XOooooO.XXX.XXX.XOooXXX.XXX.XXX.XXX.XXX.XXX.XXX.XXX.",
"ooOXXX.XXX.XXX.XXX.XXX.XXX.XXX.XXX.XXX.XXX.XXOooooOXXX.XXX.XXOooXX.XXX.XXX.XXX.XXX.XXX.XXX.XXX.X",
"ooOXX.XXX.XXX.XXX.XXX.XXX.XXX.XXX.XXX.XXX.XXXOooooOXX.XXX.XXXOooX.XXX.XXX.XXX.XXX.XXX.XXX.XXX.XX",
"oo.O.XXX.XXX.XXX.XXX.XXX.XXX.XXX.XXX.XXX.XXXOXoooo.O.XXX.XXXOXoo.XXX.XXX.XXX.XXX.XXX.XXX.XXX.XXX",
"oo .OOOOOOOOOOOOOOOOOOOOOOOOOOOOOOOOOOOOOOOOXXoooo .OOOOOOOOXXooXXX.XXX.XXX.XOOOOOO.XXX.XXX.XXX.",
"oo  .......................................XXXoooo  .......XXXooXX.XXX.XXX.XXO....OXXX.XXX.XXX.X",
"oo   ......................................XXXoooo   ......XXXooX.XXX.XXX.XXXO....OXX.XXX.XXX.XX",
"oo   ......................................XXXoooo   ......XXXoo.XXX.XXX.XXX.O....OX.XXX.XXX.XXX",
"ooo  ......................................XXoooooo  ......XXoooXXX.XXX.XXX.XO....O.XXX.XXX.XXX.",
"oooo ......................................Xoooooooo ......XooooXX.XXX.XXX.XXO....OXXX.XXX.XXX.X",
"ooooooooooooooooooooooooooooooooooooooooooooooooooooooooooooooooX.XXX.XXX.XXXOooooOXX.XXX.XXX.XX",
"oooooooooooooooooooooooooooooooooooooooooooooooooooooooooooooooo.XXX.XXX.XXX.OooooOX.XXX.XXX.XXX",
"ooooooooooooooooooooooooooooooooooooooooooooooooooooooooooooooooXXX.XXX.XXX.XOooooO.XXX.XXX.XXX.",
"ooooooooooooooooooooooooooooooooooooooooooooooooooooooooooooooooXX.XXX.XXX.XXOooooOXXX.XXX.XXX.X",
"ooooOOOOOOOOOOOOOOOOOOOOOOOOOOOOOOOOOOOOOOOOooooooooOOOOOOOOooooX.XXX.XXX.XXXOOOOOOXX.XXX.XXX.XX",
"oooO.XXX.XXX.XXX.XXX.XXX.XXX.XXX.XXX.XXX.XXXOooooooO.XXX.XXXOooo.XXX.XXX.XXX.XXX.XXX.XXX.XXX.XXX",
"ooO.XXX.XXX.XXX.XXX.XXX.XXX.XXX.XXX.XXX.XXX.XOooooO.XXX.XXX.XOooXXX.XXX.XXX.XXX.XXX.XXX.XXX.XXX.",
"ooOXXX.XXX.XXX.XXX.XXX.XXX.XXX.XXX.XXX.XXX.XXOooooOXXX.XXX.XXOooXX.XXX.XXX.XXX.XXX.XXX.XXX.XXX.X",
"ooOXX.XXX.XXX.XXX.XXX.XXX.XXX.XXX.XXX.XXX.XXXOooooOXX.XXX.XXXOooX.XXX.XXX.XXX.XXX.XXX.XXX.XXX.XX",
"ooOX.XXX.XXX.XXX.XXX.XXX.XXX.XXX.XXX.XXX.XXX.OooooOX.XXX.XXX.Ooo.XXX.XXX.XXX.XXX.XXX.XXX.XXX.XXX",
"ooO.XXX.XXX.XXX.XXX.XXX.XXX.XXX.XXX.XXX.XXX.XOooooO.XXX.XXX.XOooXXX.XXX.XXX.XXX.XXX.XXX.XXX.XXX.",
"ooOXXX.XXX.XXX.XXX.XXX.XXX.XXX.XXX.XXX.XXX.XXOooooOXXX.XXX.XXOooXX.XXX.XXX.XXX.XXX.XXX.XXX.XXX.X",
"ooOXX.XXX.XXX.XXX.XXX.XXX.XXX.XXX.XXX.XXX.XXXOooooOXX.XXX.XXXOooX.XXX.XXX.XXX.XXX.XXX.XXX.XXX.XX",
"ooOX.XXX.XXX.XXX.XXX.XXX.XXX.XXX.XXX.XXX.XXX.OooooOX.XXX.XXX.Ooo.XXX.XXX.XXX.XXX.XXX.XXX.XXX.XXX",
"ooO.XXX.XXX.XXX.XXX.XXX.XXX.XXX.XXX.XXX.XXX.XOooooO.XXX.XXX.XOooXXX.XXX.XXX.XXX.XXX.XXX.XXX.XXX.",
"ooOXXX.XXX.XXX.XXX.XXX.XXX.XXX.XXX.XXX.XXX.XXOooooOXXX.XXX.XXOooXX.XXX.XXX.XXX.XXX.XXX.XXX.XXX.X",
"ooOXX.XXX.XXX.XXX.XXX.XXX.XXX.XXX.XXX.XXX.XXXOooooOXX.XXX.XXXOooX.XXX.XXX.XXX.XXX.XXX.XXX.XXX.XX",
"ooOX.XXX.XXX.XXX.XXX.XXX.XXX.XXX.XXX.XXX.XXX.OooooOX.XXX.XXX.Ooo.XXX.XXX.XXX.XXX.XXX.XXX.XXX.XXX",
"ooO.XXX.XXX.XXX.XXX.XXX.XXX.XXX.XXX.XXX.XXX.XOooooO.XXX.XXX.XOooooO.XXX.XXX.XXX.ooO.XXX.XXX.XOoo",
"ooOXXX.XXX.XXX.XXX.XXX.XXX.XXX.XXX.XXX.XXX.XXOooooOXXX.XXX.XXOooooOXXX.XXX.XXX.XooOXXX.XXX.XXOoo",
"ooOXX.XXX.XXX.XXX.XXX.XXX.XXX.XXX.XXX.XXX.XXXOooooOXX.XXX.XXXOooOOOXX.XXX.XXX.XXOOOXX.XXX.XXXOOO",
"ooOX.XXX.XXX.XXX.XXX.XXX.XXX.XXX.XXX.XXX.XXX.OooooOX.XXX.XXX.Ooo.XXX.XXX.XXX.XXX.XXX.XXX.XXX.XXX",
"ooO.XXX.XXX.XXX.XXX.XXX.XXX.XXX.XXX.XXX.XXX.XOooooO.XXX.XXX.XOooXXX.XXX.XXX.XXX.XXX.XXX.XXX.XXX.",
"ooOXXX.XXX.XXX.XXX.XXX.XXX.XXX.XXX.XXX.XXX.XXOooooOXXX.XXX.XXOooXX.XXX.XXX.XXX.XXX.XXX.XXX.XXX.X",
"ooOXX.XXX.XXX.XXX.XXX.XXX.XXX.XXX.XXX.XXX.XXXOooooOXX.XXX.XXXOooX.XXX.XXX.XXX.XXX.XXX.XXX.XXX.XX",
"ooOX.XXX.XXX.XXX.XXX.XXX.XXX.XXX.XXX.XXX.XXX.OooooOX.XXX.XXX.Ooo.XXX.XXX.XXX.XXX.XXX.XXX.XXX.XXX",
"ooO.XXX.XXX.XXX.XXX.XXX.XXX.XXX.XXX.XXX.XXX.XOooooO.XXX.XXX.XOooOOO.XXX.XXX.XXX.XXX.XXX.XXX.XXX.",
"ooOXXX.XXX.XXX.XXX.XXX.XXX.XXX.XXX.XXX.XXX.XXOooooOXXX.XXX.XXOoo..OXXX.XXX.XXX.XXX.XXX.XXX.XXX.X",
"ooOXX.XXX.XXX.XXX.XXX.XXX.XXX.XXX.XXX.XXX.XXXOooooOXX.XXX.XXXOoo..OXX.XXX.XXX.XXX.XXX.XXX.XXX.XX",
"ooOX.XXX.XXX.XXX.XXX.XXX.XXX.XXX.XXX.XXX.XXX.OooooOX.XXX.XXX.Ooo..OX.XXX.XXX.XXX.XXX.XXX.XXX.XXX",
"ooO.XXX.XXX.XXX.XXX.XXX.XXX.XXX.XXX.XXX.XXX.XOooooO.XXX.XXX.XOoo..O.XXX.XXX.XXX.XXX.XXX.XXX.XXX.",
"ooOXXX.XXX.XXX.XXX.XXX.XXX.XXX.XXX.XXX.XXX.XXOooooOXXX.XXX.XXOoo..OXXX.XXX.XXX.XXX.XXX.XXX.XXX.X",
"ooOXX.XXX.XXX.XXX.XXX.XXX.XXX.XXX.XXX.XXX.XXXOooooOXX.XXX.XXXOooooOXX.XXX.XXX.XXX.XXX.XXX.XXX.XX",
"ooOX.XXX.XXX.XXX.XXX.XXX.XXX.XXX.XXX.XXX.XXX.OooooOX.XXX.XXX.OooooOX.XXX.XXX.XXX.XXX.XXX.XXX.XXX",
"ooO.XXX.XXX.XXX.XXX.XXX.XXX.XXX.XXX.XXX.XXX.XOooooO.XXX.XXX.XOooXXX.XXX.XXX.XOooXXX.XXX.XXX.XXX.",
"ooOXXX.XXX.XXX.XXX.XXX.XXX.XXX.XXX.XXX.XXX.XXOooooOXXX.XXX.XXOooXX.XXX.XXX.XXOooXX.XXX.XXX.XXX.X",
"ooOXX.XXX.XXX.XXX.XXX.XXX.XXX.XXX.XXX.XXX.XXXOooooOXX.XXX.XXXOooX.XXX.XXX.XXXOOOX.XXX.XXX.XXX.XX",
"ooOX.XXX.XXX.XXX.XXX.XXX.XXX.XXX.XXX.XXX.XXX.OooooOX.XXX.XXX.Ooo.XXX.XXX.XXX.XXX.XXX.XXX.XXX.XXX",
"ooO.XXX.XXX.XXX.XXX.XXX.XXX.XXX.XXX.XXX.XXX.XOooooO.XXX.XXX.XOooXXX.XXX.XXX.XXX.XXX.XXX.XXX.XXX.",
"ooOXXX.XXX.XXX.XXX.XXX.XXX.XXX.XXX.XXX.XXX.XXOooooOXXX.XXX.XXOooXX.XXX.XXX.XXX.XXX.XXX.XXX.XXX.X",
"ooOXX.XXX.XXX.XXX.XXX.XXX.XXX.XXX.XXX.XXX.XXXOooooOXX.XXX.XXXOooX.XXX.XXX.XXX.XXX.XXX.XXX.XXX.XX",
"oo.O.XXX.XXX.XXX.XXX.XXX.XXX.XXX.XXX.XXX.XXXOXoooo.O.XXX.XXXOXoo.XXX.XXX.XXX.XXX.XXX.XXX.XXX.XXX",
"oo .OOOOOOOOOOOOOOOOOOOOOOOOOOOOOOOOOOOOOOOOXXoooo .OOOOOOOOXXooXXX.XXX.XXX.XOOOOOO.XXX.XXX.XOOO",
"oo  .......................................XXXoooo  .......XXXooXX.XXX.XXX.XXO....OXXX.XXX.XXO..",
"oo   ......................................XXXoooo   ......XXXooX.XXX.XXX.XXXO....OXX.XXX.XXXO..",
"oo   ......................................XXXoooo   ......XXXoo.XXX.XXX.XXX.O....OX.XXX.XXX.O..",
"ooo  ......................................XXoooooo  ......XXoooXXX.XXX.XXX.XO....O.XXX.XXX.XO..",
"oooo ......................................Xoooooooo ......XooooXX.XXX.XXX.XXO....OXXX.XXX.XXO..",
"ooooooooooooooooooooooooooooooooooooooooooooooooooooooooooooooooX.XXX.XXX.XXXOooooOXX.XXX.XXXOoo",
"oooooooooooooooooooooooooooooooooooooooooooooooooooooooooooooooo.XXX.XXX.XXX.OooooOX.XXX.XXX.Ooo"
};
