/* XPM */
static char *_20f451fa63e4fc8cf19e1a07fc4822aJ1qUGkP6OneTfcEk[] = {
/* columns rows colors chars-per-pixel */
"112 64 3 1 ",
"  c None",
". c #464E55",
"X c #535B63",
/* pixels */
"................................................................................XXXXXXXXXXXXXXXXXXXXXXXXXXXXXXXX",
"................................................................................XXXXXXXXXXXXXXXXXXXXXXXXXXXXXXXX",
"X..............X...............XX..............XX................................XXXXXXXXXXXXXX..XXXXXXXXXXXXXX.",
"....................XXXXXXXXXXXXXXXXXXXXXXXXXXXXXXXXXXXXXXXX........XXXXXXXX....XXXXXXXXXXXXXXXXXXXXXXXXXXXXXXXX",
"...................XXXXXXXXXXXXXXXXXXXXXXXXXXXXXXXXXXXXXXXXXX......XXXXXXXXXX...XXXXXXXXXXXXXXXXXXXXXXXXXXXXXXXX",
"...................XXXXXXXXXXXXXXXXXXXXXXXXXXXXXXXXXXXXXXXXXX......XXXXXXXXXX...XXXXXXXXXXXXXXXXXXXXXXXXXXXXXXXX",
"...................XXXXXXXXXXXXXXXXXXXXXXXXXXXXXXXXXXXXXXXXXXX.....XXXXXXXXXXX..XXXXXXXXXXXXXXXXXXXXXXXXXXXXXXXX",
"......XXX..........XXX...XXXXXXXXXXXXX...XXXXXXXXXXXXX...XXXX......XXX...XXXX...XXXXXX...XXXXXXXXXXXXX...XXXXXXX",
"...................XXXXXXXXXXXXXXXXXXXXXXXXXXXXXXXXXXXXXXXXXX......XXXXXXXXXX...XXXXXXXXXXXXXXXXXXXXXXXXXXXXXXXX",
"........XX.........XXXXX..XXXXXXXXXXXXXX..XXXXXXXXXXXXXX..XXX......XXXXX..XXX...XXXXXXXX..XXXXXXXXXXXXXX..XXXXXX",
"..................XXXXXXXXXXXXXXXXXXXXXXXXXXXXXXXXXXXXXXXXXXX......XXXXXXXXXX...XXXXXXXXXXXXXXXXXXXXXXXXXXXXXXXX",
"...................XXXXXXXXXXXXXXXXXXXXXXXXXXXXXXXXXXXXXXXXXX......XXXXXXXXXX...XXXXXXXXXXXXXXXXXXXXXXXXXXXXXXXX",
"....................XXXXXXXXXXXXXXXXXXXXXXXXXXXXXXXXXXXXXXXX........XXXXXXXX....XXXXXXXXXXXXXXXXXXXXXXXXXXXXXXXX",
"...................................XX................XX.........................XXXXXXXXXXXXXX....XXXXXXXXXXXXXX",
"................................................................................XXXXXXXXXXXXX......XXXXXXXXXXXXX",
"................................................................................XXXXXXXXXXXXX......XXXXXXXXXXXXX",
"                ................................................................XXXXXXXXXXXXX......XXXXXXXXXXXXX",
"                ................................................................XXXXXXXXXXXXX......XXXXXXXXXXXXX",
"                ..........XX....X..............X.......XX........................XXXXXXXXXXXXX....XXXXXXXXXXXXX.",
"                ....XXXXXXXXXXXXXXXXXXXXXXXXXXXXXXXXXXXXXXXX........XXXXXXXX....XXXXXXXXXXXXXXXXXXXXXXXXXXXXXXXX",
"                ...XXXXXXXXXXXXXXXXXXXXXXXXXXXXXXXXXXXXXXXXXX......XXXXXXXXXX...XXXXXXXXXXXXXXXXXXXXXXXXXXXXXXXX",
"                ...XXXXXXXXXXXXXXXXXXXXXXXXXXXXXXXXXXXXXXXXXX......XXXXXXXXXX...XXXXXXXXXXXXXXXXXXXXXXXXXXXXXXXX",
"                ...XXXXXXXXXXXXXXXXXXXXXXXXXXXXXXXXXXXXXXXXXX......XXXXXXXXXX...XXXXXXXXXXXXXXXXXXXXXXXXXXXXXXXX",
"                ...XXX...XXXXXXXXXXXXX...XXXXXXXXXXXXX...XXXX......XXX...XXXX...XXXXXX...XXXXXXXXXXXXX...XXXXXXX",
"                ...XXXXXXXXXXXXXXXXXXXXXXXXXXXXXXXXXXXXXXXXXX......XXXXXXXXXX...XXXXXXXXXXXXXXXXXXXXXXXXXXXXXXXX",
"                ...XXXXX..XXXXXXXXXXXXXX..XXXXXXXXXXXXXX..XXX......XXXXX..XXXX..XXXXXXXX..XXXXXXXXXXXXXX..XXXXXX",
"                ..XXXXXXXXXXXXXXXXXXXXXXXXXXXXXXXXXXXXXXXXXXX......XXXXXXXXXX...XXXXXXXXXXXXXXXXXXXXXXXXXXXXXXXX",
"                ...XXXXXXXXXXXXXXXXXXXXXXXXXXXXXXXXXXXXXXXXXX......XXXXXXXXXX...XXXXXXXXXXXXXXXXXXXXXXXXXXXXXXXX",
"                ...XXXXXXXXXXXXXXXXXXXXXXXXXXXXXXXXXXXXXXXXXXX.....XXXXXXXXXX...XXXXXXXXXXXXXXXXXXXXXXXXXXXXXXXX",
"                ...XXXXXXXXXXXXXXXXXXXXXXXXXXXXXXXXXXXXXXXXXX.....XXXXXXXXXXX...XXXXXXXXXXXXXXXXXXXXXXXXXXXXXXXX",
"                ...XXXXXXXXXXXXXXXXXXXXXXXXXXXXXXXXXXXXXXXXXX......XXXXXXXXXX...XXXXXXXXXXXXXXXXXXXXXXXXXXXXXXXX",
"                ...XXXXXXXXXXXXXXXXXXXXXXXXXXXXXXXXXXXXXXXXXX......XXXXXXXXXX...XXXXXXXXXXXXXXXXXXXXXXXXXXXXXXXX",
"                ...XXXXXXXXXXXXXXXXXXXXXXXXXXXXXXXXXXXXXXXXXXX.....XXXXXXXXXX......XXXXXXXXXXXXX...XXXXXXXXXX...",
"                ...XXXXXXXXXXXXXXXXXXXXXXXXXXXXXXXXXXXXXXXXXX......XXXXXXXXXX......XXXXXXXXXXXXX...XXXXXXXXXX...",
"                ...XXXXXXXXXXXX..XXXXXXXXXXXXXX..XXXXXXXXXXXX......XXXXXXXXXX.....XXXXXXXXXXXXX...XXXXXXXXXXXX..",
"                ..XXXXXXXXXXXXXXXXXXXXXXXXXXXXXXXXXXXXXXXXXXX......XXXXXXXXXXX..XXXXXXXXXXXXXXXXXXXXXXXXXXXXXXXX",
"                ...XXXXXXXXXXXXXXXXXXXXXXXXXXXXXXXXXXXXXXXXXX......XXXXXXXXXX...XXXXXXXXXXXXXXXXXXXXXXXXXXXXXXXX",
"                ...XXXXXXXXXXXXXXXXXXXXXXXXXXXXXXXXXXXXXXXXXX......XXXXXXXXXX...XXXXXXXXXXXXXXXXXXXXXXXXXXXXXXXX",
"                ...XXXXXXXXXXXXXXXXXXXXXXXXXXXXXXXXXXXXXXXXXX.....XXXXXXXXXXX...XXXXXXXXXXXXXXXXXXXXXXXXXXXXXXXX",
"                ...XXX...XXXXXXXXXXXXX...XXXXXXXXXXXXX...XXXX......XXX...XXXX...XXXXXX...XXXXXXXXXXXXX...XXXXXXX",
"                ...XXXXXXXXXXXXXXXXXXXXXXXXXXXXXXXXXXXXXXXXXX......XXXXXXXXXX...XXXXXXXXXXXXXXXXXXXXXXXXXXXXXXXX",
"                ...XXXXX..XXXXXXXXXXXXXX..XXXXXXXXXXXXXX..XXX......XXXXX..XXX...XXXXXXXX..XXXXXXXXXXXXXX..XXXXXX",
"                ...XXXXXXXXXXXXXXXXXXXXXXXXXXXXXXXXXXXXXXXXXX......XXXXXXXXXX...XXXXXXXXXXXXXXXXXXXXXXXXXXXXXXXX",
"                ...XXXXXXXXXXXXXXXXXXXXXXXXXXXXXXXXXXXXXXXXXX......XXXXXXXXXX...XXXXXXXXXXXXXXXXXXXXXXXXXXXXXXXX",
"                ...XXXXXXXXXXXXXXXXXXXXXXXXXXXXXXXXXXXXXXXXXX.....XXXXXXXXXXX...XXXXXXXXXXXXXXXXXXXXXXXXXXXXXXXX",
"                ...XXXXXXXXXXXXXXXXXXXXXXXXXXXXXXXXXXXXXXXXXX......XXXXXXXXXX.....XXXXXXXXXXXXXXXXXXXXXXXXXXXXXX",
"                ...XXXXXXXXXXXXXXXXXXXXXXXXXXXXXXXXXXXXXXXXXXX.....XXXXXXXXXX......XXXXXXXXXXXXXXXXXXXXXXXXXXXXX",
"                ...XXXXXXXXXXXXXXXXXXXXXXXXXXXXXXXXXXXXXXXXXXX.....XXXXXXXXXX......XXXXXXXXXXXXXXXXXXXXXXXXXXXXX",
"                ...XXXXXXXXXXXXXXXXXXXXXXXXXXXXXXXXXXXXXXXXXX......XXXXXXXXXX...XXXXXXXXXXXXX...XXXXXXXXXXXXXXXX",
"                ...XXXXXXXXXXXXXXXXXXXXXXXXXXXXXXXXXXXXXXXXXX......XXXXXXXXXX...XXXXXXXXXXXXX...XXXXXXXXXXXXXXXX",
"                ...XXXXXXXXXXXX..XXXXXXXXXXXXXX..XXXXXXXXXXXX......XXXXXXXXXXX...XXXXXXXXXXXXX...XXXXXXXXXXXXXX.",
"                ...XXXXXXXXXXXXXXXXXXXXXXXXXXXXXXXXXXXXXXXXXXX.....XXXXXXXXXX...XXXXXXXXXXXXXXXXXXXXXXXXXXXXXXXX",
"                ...XXXXXXXXXXXXXXXXXXXXXXXXXXXXXXXXXXXXXXXXXX......XXXXXXXXXX...XXXXXXXXXXXXXXXXXXXXXXXXXXXXXXXX",
"                ...XXXXXXXXXXXXXXXXXXXXXXXXXXXXXXXXXXXXXXXXXX......XXXXXXXXXX...XXXXXXXXXXXXXXXXXXXXXXXXXXXXXXXX",
"                ...XXXXXXXXXXXXXXXXXXXXXXXXXXXXXXXXXXXXXXXXXX......XXXXXXXXXX...XXXXXXXXXXXXXXXXXXXXXXXXXXXXXXXX",
"                ..XXXX...XXXXXXXXXXXXX...XXXXXXXXXXXXX...XXXX......XXX...XXXX...XXXXXX...XXXXXXXXXXXXX...XXXXXXX",
"                ...XXXXXXXXXXXXXXXXXXXXXXXXXXXXXXXXXXXXXXXXXX......XXXXXXXXXX...XXXXXXXXXXXXXXXXXXXXXXXXXXXXXXXX",
"                ...XXXXX..XXXXXXXXXXXXXX..XXXXXXXXXXXXXX..XXX.....XXXXXX..XXX...XXXXXXXX..XXXXXXXXXXXXXX..XXXXXX",
"                ...XXXXXXXXXXXXXXXXXXXXXXXXXXXXXXXXXXXXXXXXXX......XXXXXXXXXX...XXXXXXXXXXXXXXXXXXXXXXXXXXXXXXXX",
"                ...XXXXXXXXXXXXXXXXXXXXXXXXXXXXXXXXXXXXXXXXXX......XXXXXXXXXX...XXXXXXXXXXXXXXXXXXXXXXXXXXXXXXXX",
"                ....XXXXXXXXXXXXXXXXXXXXXXXXXXXXXXXXXXXXXXXX........XXXXXXXX....XXXXXXXXXXXXXXXXXXXXXXXXXXXXXXXX",
"                .......XX................XX........XX...........................XXXXXXXXXXXXXX....XXXXXXXXXXXX..",
"                ................................................................XXXXXXXXXXXXX......XXXXXXXXXX...",
"                ................................................................XXXXXXXXXXXXX......XXXXXXXXXX..."
};
